<?xml version="1.0" standalone="no"?>
<!DOCTYPE svg PUBLIC "-//W3C//DTD SVG 1.1//EN" "http://www.w3.org/Graphics/SVG/1.1/DTD/svg11.dtd" >
<svg xmlns="http://www.w3.org/2000/svg" xmlns:xlink="http://www.w3.org/1999/xlink" version="1.1">
<metadata>
Created by FontForge 20170731 at Thu May 14 13:00:01 2020
 By Aleksey,,,
Copyright 2014 The Heebo Project Authors (https://github.com/OdedEzer/heebo)
</metadata>
<defs>
<font id="Heebo-Medium" horiz-adv-x="759" >
  <font-face 
    font-family="Heebo Medium"
    font-weight="500"
    font-stretch="normal"
    units-per-em="2048"
    panose-1="0 0 0 0 0 0 0 0 0 0"
    ascent="1638"
    descent="-410"
    x-height="1082"
    cap-height="1456"
    bbox="-945 -749 1873 2146"
    underline-thickness="100"
    underline-position="-300"
    unicode-range="U+0020-FB4F"
  />
<missing-glyph horiz-adv-x="1024" 
d="M102 -555h820v2701h-820v-2701zM204 -453v2497h616v-2497h-616z" />
    <glyph glyph-name=".notdef" horiz-adv-x="1024" 
d="M102 -555h820v2701h-820v-2701zM204 -453v2497h616v-2497h-616z" />
    <glyph glyph-name=".null" horiz-adv-x="0" 
 />
    <glyph glyph-name="nonmarkingreturn" horiz-adv-x="682" 
 />
    <glyph glyph-name="space" unicode=" " horiz-adv-x="509" 
 />
    <glyph glyph-name="space" unicode="&#xa0;" horiz-adv-x="509" 
 />
    <glyph glyph-name="exclam" unicode="!" horiz-adv-x="547" 
d="M383 433h-211l-26 1023h263zM139 119q0 57 37.5 95.5t103.5 38.5t103.5 -38.5t37.5 -95.5q0 -56 -37.5 -94.5t-103.5 -38.5t-103.5 38.5t-37.5 94.5z" />
    <glyph glyph-name="quotedbl" unicode="&#x22;" horiz-adv-x="658" 
d="M271 1399l-35 -389h-143l1 378v148h177v-137zM575 1399l-36 -389h-142l1 386v140h177v-137z" />
    <glyph glyph-name="numbersign" unicode="#" horiz-adv-x="1239" 
d="M512 1456h166l-267 -1456h-167zM900 1456h168l-268 -1456h-168zM163 881v159h1040v-159h-1040zM87 410v159h1041v-159h-1041z" />
    <glyph glyph-name="dollar" unicode="$" horiz-adv-x="1165" 
d="M692 1389h-157v301h157v-301zM672 -212h-156v268h156v-268zM816 380q0 57 -23 100t-74.5 77.5t-139.5 64.5q-128 46 -223.5 102.5t-148 140.5t-52.5 209q0 124 56 214.5t158 139.5t237 49q139 0 240.5 -55t157 -160t55.5 -255h-247q0 125 -55.5 196t-152.5 71
q-69 0 -114 -26t-66 -70.5t-21 -102.5q0 -55 22 -96.5t74.5 -75.5t144.5 -68q129 -47 223.5 -104t146 -140.5t51.5 -208.5q0 -129 -59.5 -219t-166 -137t-249.5 -47q-89 0 -176.5 24t-158.5 78t-113.5 143.5t-42.5 221.5h248q0 -77 21 -128t56.5 -80.5t78.5 -42.5t87 -13
q74 0 124 25t76 70t26 103z" />
    <glyph glyph-name="percent" unicode="%" horiz-adv-x="1507" 
d="M99 1176q0 83 36.5 151t105.5 109t167 41q100 0 169 -41t105 -109t36 -151v-77q0 -81 -36 -149t-104.5 -109t-167.5 -41t-168.5 41t-106 109t-36.5 149v77zM271 1099q0 -39 15 -73.5t46 -56t78 -21.5t77 21.5t44.5 56t14.5 73.5v77q0 40 -15 75t-45.5 56.5t-77.5 21.5
q-46 0 -76.5 -21.5t-45.5 -56.5t-15 -75v-77zM800 357q0 82 36.5 150t105.5 109t167 41q101 0 169.5 -41t104.5 -109t36 -150v-78q0 -82 -35.5 -150t-104 -109t-168.5 -41q-99 0 -168.5 41t-106 109t-36.5 150v78zM971 279q0 -39 16.5 -74t48 -56t75.5 -21q51 0 80.5 21
t43 55.5t13.5 74.5v78q0 60 -34.5 106t-104.5 46q-69 0 -103.5 -46t-34.5 -106v-78zM460 110l-126 72l711 1138l126 -72z" />
    <glyph glyph-name="ampersand" unicode="&#x26;" horiz-adv-x="1316" 
d="M624 961q62 41 88.5 81t26.5 97q0 51 -39 94.5t-111 43.5q-76 0 -114.5 -49t-38.5 -118q0 -67 50.5 -139.5t126.5 -161.5l687 -809h-287l-559 657q-110 132 -179 234.5t-69 213.5q0 115 47.5 198t134 128t202.5 45q111 0 192.5 -45t125.5 -119t44 -162q0 -69 -25 -125.5
t-69 -104t-102 -90.5l-307 -222q-52 -41 -76.5 -79t-32.5 -70t-8 -57q0 -63 27.5 -113.5t80 -80t127.5 -29.5q81 0 158 37.5t139 106.5t98 164t36 210h215q0 -161 -47.5 -296.5t-156.5 -232.5q-8 -6 -16.5 -16.5t-16.5 -16.5q-86 -79 -192.5 -117t-225.5 -38
q-146 0 -252.5 53t-164.5 145.5t-58 213.5q0 89 37.5 156t102.5 125t149 117z" />
    <glyph glyph-name="quotesingle" unicode="'" horiz-adv-x="342" 
d="M267 1404l-26 -389h-162l1 374v147h187v-132z" />
    <glyph glyph-name="parenleft" unicode="(" horiz-adv-x="713" 
d="M128 591q0 215 47 389t122 305.5t161.5 218t165.5 123.5l49 -142q-57 -43 -114 -118t-104.5 -184.5t-76 -256.5t-28.5 -332v-22q0 -186 28.5 -332.5t76 -256.5t104.5 -186.5t114 -121.5l-49 -137q-79 39 -165.5 125t-161.5 217.5t-122 305.5t-47 388v17z" />
    <glyph glyph-name="parenright" unicode=")" horiz-adv-x="719" 
d="M593 574q0 -210 -48 -383.5t-124 -306t-164 -220t-168 -126.5l-49 137q57 43 114 119t104.5 187t76 258t28.5 333v22q0 185 -30 333t-78.5 258.5t-105 186.5t-109.5 119l49 136q80 -37 168 -125t164 -221t124 -306.5t48 -383.5v-17z" />
    <glyph glyph-name="asterisk" unicode="*" horiz-adv-x="910" 
d="M336 971l-308 90l54 168l306 -119l-15 347h179l-16 -353l300 117l55 -171l-314 -89l204 -268l-146 -105l-182 290l-180 -282l-146 102z" />
    <glyph glyph-name="plus" unicode="+" horiz-adv-x="1136" 
d="M1064 576h-998v226h998v-226zM685 146h-239v1060h239v-1060z" />
    <glyph glyph-name="comma" unicode="," horiz-adv-x="461" 
d="M354 59q0 -104 -52 -213t-137 -181l-133 76q28 45 51 91t37 99t14 118v186h220v-176z" />
    <glyph glyph-name="hyphen" unicode="-" horiz-adv-x="701" 
d="M613 522h-533v200h533v-200z" />
    <glyph glyph-name="period" unicode="." horiz-adv-x="574" 
d="M133 124q0 59 38.5 98.5t105.5 39.5q68 0 106.5 -39.5t38.5 -98.5q0 -57 -38.5 -96t-106.5 -39q-67 0 -105.5 39t-38.5 96z" />
    <glyph glyph-name="slash" unicode="/" horiz-adv-x="799" 
d="M192 -125h-193l566 1581h193z" />
    <glyph glyph-name="zero" unicode="0" horiz-adv-x="1165" 
d="M1061 610q0 -226 -59 -364.5t-166 -202t-252 -63.5q-143 0 -251.5 63.5t-168.5 202t-60 364.5v241q0 227 59.5 364t167.5 199t251 62q145 0 252.5 -62t167 -199t59.5 -364v-241zM813 888q0 143 -26.5 228t-78 122.5t-126.5 37.5q-73 0 -124.5 -37.5t-78.5 -122.5
t-27 -228v-313q0 -143 27.5 -230t79.5 -126.5t125 -39.5q75 0 126 39.5t77 126.5t26 230v313z" />
    <glyph glyph-name="one" unicode="1" horiz-adv-x="1165" 
d="M773 0h-249v1163l-355 -119v208l573 209h31v-1461z" />
    <glyph glyph-name="two" unicode="2" horiz-adv-x="1165" 
d="M1089 0h-981v171l474 515q78 86 122.5 149t62.5 113.5t18 98.5q0 101 -55.5 165.5t-158.5 64.5q-80 0 -134.5 -34.5t-81.5 -94.5t-27 -138h-248q0 128 58 234t169 169t267 63q220 0 340 -109t120 -294q0 -92 -39 -181t-107 -177.5t-156 -181.5l-311 -334h668v-199z" />
    <glyph glyph-name="three" unicode="3" horiz-adv-x="1165" 
d="M537 841q83 0 137 28t81 78t27 115q0 66 -24 114.5t-73 74.5t-123 26q-62 0 -112.5 -24.5t-80 -69t-29.5 -106.5h-248q0 117 61 207t166.5 141t238.5 51q141 0 247 -46.5t165.5 -138.5t59.5 -228q0 -64 -29 -127.5t-86 -116.5t-142 -85t-197 -32h-183v139h144zM393 782
h183q128 0 218.5 -29.5t147.5 -81.5t83.5 -120t26.5 -143q0 -137 -65 -232.5t-176.5 -145.5t-252.5 -50q-93 0 -180 26t-154.5 77.5t-107 129t-39.5 180.5h248q0 -62 30 -110.5t83.5 -76t124.5 -27.5q112 0 176.5 60.5t64.5 168.5q0 83 -32.5 135.5t-92.5 77t-142 24.5h-144
v137z" />
    <glyph glyph-name="four" unicode="4" horiz-adv-x="1165" 
d="M1114 325h-1052l-8 152l625 979h199l-212 -371l-355 -561h803v-199zM934 0h-248v1456h248v-1456z" />
    <glyph glyph-name="five" unicode="5" horiz-adv-x="1165" 
d="M168 722l80 734h788v-212h-582l-39 -347q33 19 92.5 38.5t135.5 19.5q138 0 236 -59t150.5 -168.5t52.5 -261.5q0 -133 -52 -243.5t-158 -176.5t-269 -66q-92 0 -175.5 27t-150 80t-106.5 130.5t-46 178.5h243q12 -104 73.5 -160.5t160.5 -56.5q78 0 130 38t77 105
t25 153q0 83 -28.5 146.5t-85.5 100t-142 36.5t-129 -24.5t-82 -60.5z" />
    <glyph glyph-name="six" unicode="6" horiz-adv-x="1165" 
d="M869 1466v-205h-17q-129 0 -221.5 -39t-152 -107.5t-88 -160t-28.5 -195.5v-232q0 -114 32.5 -191t88 -116t122.5 -39q72 0 124 37.5t80 103.5t28 151q0 81 -27 147.5t-79 106.5t-128 40q-71 0 -128.5 -33.5t-91.5 -86.5t-38 -113l-93 36q8 90 41.5 163t88.5 125
t127 80.5t159 28.5q141 0 232.5 -69t137 -180t45.5 -240q0 -140 -56.5 -252.5t-163 -179t-255.5 -66.5q-117 0 -209 45t-155.5 123.5t-96.5 182t-33 220.5v101q0 168 42 315t129.5 259t224.5 176t328 64h31z" />
    <glyph glyph-name="seven" unicode="7" horiz-adv-x="1165" 
d="M1079 1318l-579 -1318h-261l578 1257h-749v199h1011v-138z" />
    <glyph glyph-name="eight" unicode="8" horiz-adv-x="1165" 
d="M1063 398q0 -136 -63 -229t-171 -141t-245 -48t-246 48t-172.5 141t-63.5 229q0 119 62.5 210t170.5 141.5t247 50.5q138 0 247 -50.5t171.5 -141.5t62.5 -210zM815 411q0 72 -29.5 125t-81.5 82.5t-122 29.5t-122 -29.5t-80.5 -82.5t-28.5 -125t28.5 -124t81 -80
t123.5 -28t123 28t80 80t28 124zM1031 1072q0 -109 -58 -194t-159 -133.5t-230 -48.5q-131 0 -232.5 48.5t-159.5 133.5t-58 194q0 130 58 220t159.5 137t231.5 47t231.5 -47t159 -137t57.5 -220zM783 1063q0 63 -24.5 111t-69.5 75.5t-106 27.5q-62 0 -106.5 -26t-69 -74
t-24.5 -114q0 -65 24.5 -113.5t69.5 -75t107 -26.5t106 26.5t68.5 75t24.5 113.5z" />
    <glyph glyph-name="nine" unicode="9" horiz-adv-x="1165" 
d="M323 198q137 0 229.5 35t146.5 98.5t77.5 149t23.5 187.5v258q0 115 -32 193t-85 117.5t-118 39.5q-72 0 -123 -42t-77.5 -111t-26.5 -151q0 -78 25 -147t76 -111.5t129 -42.5q53 0 99 21.5t80 56.5t54 79.5t23 91.5l94 -33q0 -74 -31.5 -147t-86.5 -132.5t-128.5 -94.5
t-158.5 -35q-140 0 -233.5 67.5t-140.5 178.5t-47 242q0 141 56.5 256.5t162.5 184.5t255 69q117 0 207.5 -45t151 -126t92 -188.5t31.5 -231.5v-88q0 -131 -23.5 -251t-74.5 -221t-135.5 -176t-205.5 -116.5t-284 -41.5h-21v207h19z" />
    <glyph glyph-name="colon" unicode=":" horiz-adv-x="546" 
d="M127 124q0 59 38.5 98.5t105.5 39.5q68 0 106.5 -39.5t38.5 -98.5q0 -57 -38.5 -96t-106.5 -39q-67 0 -105.5 39t-38.5 96zM128 969q0 59 38.5 98.5t105.5 39.5q68 0 106.5 -39.5t38.5 -98.5q0 -57 -38.5 -96t-106.5 -39q-67 0 -105.5 39t-38.5 96z" />
    <glyph glyph-name="semicolon" unicode=";" horiz-adv-x="495" 
d="M108 969q0 59 38.5 98.5t105.5 39.5q68 0 106.5 -39.5t38.5 -98.5q0 -57 -38.5 -96t-106.5 -39q-67 0 -105.5 39t-38.5 96zM372 59q0 -104 -52 -213t-137 -181l-133 76q28 45 51 91t37 99t14 118v186h220v-176z" />
    <glyph glyph-name="less" unicode="&#x3c;" horiz-adv-x="1042" 
d="M905 407v-246l-843 371v165l186 -43zM249 604l-187 -39v166l843 370v-245z" />
    <glyph glyph-name="equal" unicode="=" horiz-adv-x="1153" 
d="M1012 774h-869v205h869v-205zM1012 349h-869v205h869v-205z" />
    <glyph glyph-name="greater" unicode="&#x3e;" horiz-adv-x="1064" 
d="M127 859v242l864 -370v-166l-196 49zM796 655l195 43v-165l-864 -371v243z" />
    <glyph glyph-name="question" unicode="?" horiz-adv-x="1000" 
d="M351 432q1 93 16 157.5t50 116.5t94 109q46 44 83 83t59 82t22 99q0 92 -46 142t-134 50q-72 0 -130 -43.5t-59 -139.5h-248q2 129 60 215t156.5 129.5t220.5 43.5q202 0 315 -101.5t113 -285.5q0 -89 -35 -159t-91.5 -131.5t-121.5 -122.5q-56 -50 -75 -109t-20 -135
h-229zM331 122q0 56 37.5 95t103.5 39t103.5 -39t37.5 -95q0 -57 -37.5 -95t-103.5 -38t-103.5 38t-37.5 95z" />
    <glyph glyph-name="at" unicode="@" horiz-adv-x="1835" 
d="M1742 523q-4 -98 -29 -194.5t-76 -175.5t-130 -126.5t-191 -47.5q-135 0 -206 91t-58 244l51 568h180l-51 -568q-5 -59 3 -96.5t25.5 -58t40 -28.5t45.5 -8q72 0 123 53t80.5 142.5t32.5 200.5q12 231 -51.5 400t-204.5 261t-364 92q-207 0 -357.5 -103t-235.5 -284
t-96 -415q-9 -185 29 -327.5t118 -241.5t200 -149.5t275 -50.5q89 0 179 20t152 52l39 -137q-70 -45 -175 -67t-199 -22q-259 0 -441 108.5t-273 315t-80 499.5q9 205 73 378.5t177.5 302.5t269.5 200t349 71q259 0 436 -111.5t264 -313.5t76 -474zM729 425
q-8 -90 5.5 -152.5t48.5 -94.5t88 -32q32 0 69.5 21.5t72.5 74t58 142.5l77 -90q-46 -155 -136.5 -234t-200.5 -79q-98 0 -165 55t-97 155.5t-17 233.5q17 174 82 300t161.5 195.5t207.5 69.5q113 0 177.5 -32.5t122.5 -75.5l-96 -124q-29 26 -75.5 50.5t-110.5 24.5
q-75 0 -131.5 -46.5t-92 -137t-48.5 -224.5z" />
    <glyph glyph-name="A" unicode="A" horiz-adv-x="1363" 
d="M287 0h-271l548 1456h172l-17 -207zM644 1249l-19 207h173l550 -1456h-271zM1060 333h-793v208h793v-208z" />
    <glyph glyph-name="B" unicode="B" horiz-adv-x="1295" 
d="M326 654l-2 188h322q121 0 187 53t66 150q0 107 -62.5 155t-193.5 48h-239v-1248h-258v1456h497q241 0 377.5 -95.5t136.5 -298.5q0 -90 -43.5 -165t-128.5 -122t-212 -55l-78 -66h-369zM244 0l117 207h323q124 0 187 61t63 158q0 71 -25 122t-77 78.5t-137 27.5h-284
l2 188h368l58 -72q121 -2 198.5 -51t115.5 -126.5t38 -167.5q0 -209 -134.5 -317t-372.5 -108h-440z" />
    <glyph glyph-name="C" unicode="C" horiz-adv-x="1338" 
d="M1261 476q-12 -143 -80.5 -255.5t-191.5 -176.5t-301 -64q-180 0 -312.5 84.5t-204 239.5t-71.5 366v115q0 212 73 366.5t207.5 239.5t317.5 85q175 0 295.5 -64.5t187 -178t80.5 -260.5h-257q-15 139 -82.5 216t-223.5 77q-113 0 -187.5 -55.5t-112.5 -162t-38 -261.5
v-117q0 -148 34 -255.5t106 -166t188 -58.5q106 0 171.5 33t99.5 96.5t44 156.5h258z" />
    <glyph glyph-name="D" unicode="D" horiz-adv-x="1337" 
d="M260 0l2 207h308q134 0 224 58t136 166.5t46 259.5v76q0 155 -45.5 262t-134.5 163t-217 56h-325v208h325q195 0 342.5 -86t230.5 -241t83 -364v-74q0 -210 -83 -365t-232.5 -240.5t-349.5 -85.5h-310zM404 0h-258v1456h258v-1456z" />
    <glyph glyph-name="E" unicode="E" horiz-adv-x="1157" 
d="M1101 0h-769v207h769v-207zM404 0h-258v1456h258v-1456zM1000 648h-668v204h668v-204zM1096 1248h-764v208h764v-208z" />
    <glyph glyph-name="F" unicode="F" horiz-adv-x="1126" 
d="M404 0h-258v1456h258v-1456zM992 615h-652v207h652v-207zM1076 1248h-736v208h736v-208z" />
    <glyph glyph-name="G" unicode="G" horiz-adv-x="1395" 
d="M1268 187q-32 -40 -97 -88.5t-173.5 -83.5t-269.5 -35q-184 0 -324.5 82t-219.5 239t-79 378v98q0 222 73 378.5t207.5 238.5t320.5 82q180 0 298.5 -60t182.5 -165.5t80 -242.5h-253q-11 76 -45 134.5t-97 92.5t-161 34q-115 0 -192 -57.5t-115 -167t-38 -265.5v-100
q0 -158 44.5 -267.5t127.5 -167t200 -57.5q84 0 138 14t85.5 34t48.5 38v282h-298v194h556v-562z" />
    <glyph glyph-name="H" unicode="H" horiz-adv-x="1453" 
d="M1106 644h-766v208h766v-208zM404 0h-258v1456h258v-1456zM1305 0h-257v1456h257v-1456z" />
    <glyph glyph-name="I" unicode="I" horiz-adv-x="582" 
d="M420 0h-257v1456h257v-1456z" />
    <glyph glyph-name="J" unicode="J" horiz-adv-x="1138" 
d="M742 1456h258v-1017q0 -145 -62 -247.5t-170 -157t-245 -54.5q-139 0 -246.5 47.5t-169 145t-61.5 246.5h258q0 -125 60.5 -178.5t158.5 -53.5q65 0 114 29.5t77 85.5t28 137v1017z" />
    <glyph glyph-name="K" unicode="K" horiz-adv-x="1294" 
d="M404 0h-258v1456h258v-1456zM690 751l-338 -358l-45 258l238 300l418 505h315zM527 685l178 176l600 -861h-307z" />
    <glyph glyph-name="L" unicode="L" horiz-adv-x="1107" 
d="M1062 0h-730v207h730v-207zM404 0h-258v1456h258v-1456z" />
    <glyph glyph-name="M" unicode="M" horiz-adv-x="1792" 
d="M481 1456l414 -1110l414 1110h230l-553 -1456h-182l-552 1456h229zM365 1456l38 -989v-467h-257v1456h219zM1645 1456v-1456h-258v467l39 989h219z" />
    <glyph glyph-name="N" unicode="N" horiz-adv-x="1453" 
d="M1305 0h-259l-642 1026v-1026h-258v1456h258l644 -1028v1028h257v-1456z" />
    <glyph glyph-name="O" unicode="O" horiz-adv-x="1413" 
d="M1312 690q0 -221 -76 -380t-211.5 -244.5t-317.5 -85.5q-178 0 -315.5 85.5t-215 244.5t-77.5 380v75q0 221 77 380.5t214 245t315 85.5q182 0 318 -85.5t212.5 -245t76.5 -380.5v-75zM1053 767q0 161 -41 271.5t-119 167t-188 56.5q-108 0 -185.5 -56.5t-119 -167
t-41.5 -271.5v-77q0 -161 42 -272t120 -168t186 -57q111 0 188.5 57t117.5 168t40 272v77z" />
    <glyph glyph-name="P" unicode="P" horiz-adv-x="1310" 
d="M326 537v208h376q98 0 157.5 31t87.5 86t28 126q0 68 -28 127t-87.5 96t-157.5 37h-298v-1248h-258v1456h556q170 0 289 -60t181.5 -165t62.5 -241q0 -141 -62.5 -242.5t-181.5 -156t-289 -54.5h-376z" />
    <glyph glyph-name="Q" unicode="Q" horiz-adv-x="1413" 
d="M1305 -105l-166 -150l-380 304l160 151zM1308 690q0 -221 -76 -380t-212 -244.5t-317 -85.5q-178 0 -316 85.5t-215.5 244.5t-77.5 380v75q0 221 77 380.5t214.5 245t315.5 85.5q181 0 317.5 -85.5t213 -245t76.5 -380.5v-75zM1048 767q0 161 -41 271.5t-118.5 167
t-187.5 56.5q-108 0 -186 -56.5t-119.5 -167t-41.5 -271.5v-77q0 -161 42 -272t120.5 -168t186.5 -57q110 0 187 57t117.5 168t40.5 272v77z" />
    <glyph glyph-name="R" unicode="R" horiz-adv-x="1288" 
d="M663 1456q167 0 285 -50t180.5 -148t62.5 -241q0 -110 -40 -193t-113.5 -139.5t-173.5 -87.5l-78 -40h-461l-2 207h342q89 0 148.5 31t89 85t29.5 123q0 112 -64.5 178.5t-204.5 66.5h-259v-1248h-258v1456h517zM633 653l271 1l345 -641v-13h-276z" />
    <glyph glyph-name="S" unicode="S" horiz-adv-x="1242" 
d="M909 376q0 59 -24.5 100.5t-91.5 77t-193 74.5q-103 31 -190.5 71t-152.5 92.5t-101.5 122t-36.5 160.5q0 119 66 209.5t183 141.5t271 51q164 0 282 -59.5t181.5 -160.5t63.5 -225h-258q0 69 -29.5 123.5t-89.5 85t-153 30.5q-87 0 -145 -26t-86 -70t-28 -100
q0 -53 34 -94t103 -74.5t172 -64.5q162 -47 269 -110t159.5 -149t52.5 -204q0 -123 -64 -212.5t-181 -137.5t-275 -48q-105 0 -207 28.5t-184.5 86t-132 144.5t-49.5 205h258q0 -70 24 -119t67 -80.5t100.5 -45.5t123.5 -14q87 0 145 24.5t87.5 67.5t29.5 99z" />
    <glyph glyph-name="T" unicode="T" horiz-adv-x="1249" 
d="M751 0h-256v1456h256v-1456zM1205 1248h-1160v208h1160v-208z" />
    <glyph glyph-name="U" unicode="U" horiz-adv-x="1340" 
d="M1217 1456v-970q0 -167 -72.5 -279.5t-196.5 -169.5t-277 -57q-157 0 -280.5 57t-194 169.5t-70.5 279.5v970h257v-970q0 -103 35 -169t100 -98t153 -32q90 0 154 32t99 98t35 169v970h258z" />
    <glyph glyph-name="V" unicode="V" horiz-adv-x="1326" 
d="M1026 1456h285l-520 -1456h-193l49 275zM676 275l52 -275h-193l-519 1456h284z" />
    <glyph glyph-name="W" unicode="W" horiz-adv-x="1802" 
d="M799 1456h156l-14 -275l-309 -1181h-162l42 309zM536 316l17 -316h-172l-335 1456h257zM1508 1456h257l-334 -1456h-173l21 319zM1301 305l40 -305h-162l-304 1181l-12 275h153z" />
    <glyph glyph-name="X" unicode="X" horiz-adv-x="1295" 
d="M649 932l303 524h298l-438 -722l448 -734h-300l-311 534l-312 -534h-299l449 734l-439 722h298z" />
    <glyph glyph-name="Y" unicode="Y" horiz-adv-x="1252" 
d="M625 770l333 686h285l-488 -921v-535h-260v535l-488 921h286z" />
    <glyph glyph-name="Z" unicode="Z" horiz-adv-x="1236" 
d="M1168 0h-1012v207h1012v-207zM253 0h-174v163l896 1293h170v-159zM1050 1248h-966v208h966v-208z" />
    <glyph glyph-name="bracketleft" unicode="[" horiz-adv-x="560" 
d="M541 1489h-162v-1624h162v-193h-411v2010h411v-193z" />
    <glyph glyph-name="backslash" unicode="\" horiz-adv-x="855" 
d="M17 1456h247l608 -1581h-247z" />
    <glyph glyph-name="bracketright" unicode="]" horiz-adv-x="560" 
d="M12 1682h412v-2010h-412v193h163v1624h-163v193z" />
    <glyph glyph-name="asciicircum" unicode="^" horiz-adv-x="880" 
d="M260 729h-207l299 727h142l-44 -234zM430 1222l-45 234h143l299 -727h-207z" />
    <glyph glyph-name="underscore" unicode="_" horiz-adv-x="919" 
d="M916 -195h-914v195h914v-195z" />
    <glyph glyph-name="grave" unicode="`" horiz-adv-x="660" 
d="M529 1233h-206l-270 303h279z" />
    <glyph glyph-name="a" unicode="a" horiz-adv-x="1105" 
d="M730 731q0 84 -46.5 134t-140.5 50q-56 0 -98 -19.5t-65 -52.5t-23 -75h-248q0 87 55 163.5t155.5 123.5t237.5 47q122 0 217 -41t149.5 -124t54.5 -208v-477q0 -76 11 -134t31 -101v-17h-254q-17 39 -26.5 101t-9.5 121v509zM768 506h-170q-132 0 -198.5 -48.5
t-66.5 -131.5q0 -64 44 -106.5t124 -42.5q73 0 127.5 29.5t85.5 73t32 81.5l79 -111q-12 -41 -40.5 -87.5t-75 -88t-110 -68t-147.5 -26.5q-106 0 -189 42t-130.5 115.5t-47.5 165.5q0 172 129 264t366 92h186z" />
    <glyph glyph-name="b" unicode="b" horiz-adv-x="1152" 
d="M371 1536v-1302l-24 -234h-224v1536h248zM1075 530q0 -160 -47.5 -284t-141 -195t-232.5 -71q-135 0 -223.5 68t-137 187.5t-66.5 275.5v59q18 157 66.5 276.5t136.5 187.5t222 68q140 0 234 -70t141.5 -194t47.5 -287v-21zM827 551q0 95 -21.5 174t-73 126.5
t-142.5 47.5q-63 0 -108 -21t-75.5 -58t-47.5 -87t-23 -108v-170q9 -75 37 -137t82 -98.5t137 -36.5q89 0 140 46t73 124.5t22 176.5v21z" />
    <glyph glyph-name="c" unicode="c" horiz-adv-x="1071" 
d="M567 179q58 0 105 23.5t75 64.5t31 94h234q-3 -107 -63 -193t-159 -137t-221 -51q-165 0 -274.5 73.5t-163.5 197t-54 273.5v34q0 150 54 273.5t163.5 197t274.5 73.5q131 0 229.5 -51.5t154.5 -143.5t59 -215h-234q-3 58 -28.5 106t-72 76.5t-111.5 28.5
q-96 0 -148.5 -50t-72.5 -129t-20 -166v-34q0 -88 19.5 -167t72.5 -128.5t150 -49.5z" />
    <glyph glyph-name="d" unicode="d" horiz-adv-x="1156" 
d="M780 1536h248v-1536h-225l-23 227v1309zM78 550q0 164 51.5 288.5t146.5 194t228 69.5q131 0 219 -68t138.5 -188.5t67.5 -279.5v-58q-17 -154 -67 -273t-138.5 -187t-221.5 -68q-131 0 -226 71.5t-146.5 195.5t-51.5 282v21zM326 529q0 -96 24 -174.5t76.5 -125
t138.5 -46.5q81 0 133.5 35.5t82 96.5t40.5 137v169q-7 60 -25 111t-48.5 88t-75.5 58t-105 21q-86 0 -139.5 -46.5t-77.5 -126t-24 -176.5v-21z" />
    <glyph glyph-name="e" unicode="e" horiz-adv-x="1099" 
d="M602 -20q-161 0 -278 69.5t-180 188t-63 265.5v41q0 169 64 294.5t175.5 194.5t252.5 69q156 0 259 -67.5t154 -187t51 -276.5v-107h-837v179h592v19q-2 63 -24 118t-69.5 89t-126.5 34t-133 -44.5t-82 -125t-28 -189.5v-41q0 -92 34 -165t99 -115.5t155 -42.5
q87 0 154.5 34t116.5 98l130 -130q-51 -77 -153.5 -139.5t-262.5 -62.5z" />
    <glyph glyph-name="f" unicode="f" horiz-adv-x="725" 
d="M207 0v1185q0 180 102 276t279 96q36 0 71 -5t68 -13l-6 -194q-19 4 -43 6t-50 2q-82 0 -127.5 -43.5t-45.5 -124.5v-1185h-248zM676 899h-634v183h634v-183z" />
    <glyph glyph-name="g" unicode="g" horiz-adv-x="1162" 
d="M1040 1082v-1051q0 -146 -63 -248.5t-174.5 -155.5t-258.5 -53q-62 0 -137.5 17.5t-146.5 56.5t-119 102l116 150q58 -67 127.5 -99.5t146.5 -32.5q121 0 190.5 67t69.5 192v809l23 246h226zM80 550q0 164 52.5 288.5t150 194t231.5 69.5q106 0 181 -38.5t124.5 -110
t78 -170t42.5 -217.5v-58q-18 -154 -67 -273t-137.5 -187t-223.5 -68q-132 0 -229 71.5t-150 195.5t-53 282v21zM328 529q0 -96 26 -174.5t80.5 -125t140.5 -46.5q84 0 137 35.5t82.5 96.5t40.5 137v169q-6 60 -23.5 111t-49 88t-77.5 58t-108 21q-86 0 -141 -46.5
t-81.5 -126t-26.5 -176.5v-21z" />
    <glyph glyph-name="h" unicode="h" horiz-adv-x="1139" 
d="M367 0h-248v1536h248v-1536zM244 579q1 151 53.5 269t147.5 186t222 68q107 0 186.5 -40.5t123.5 -130t44 -238.5v-693h-249v695q0 76 -22 121t-64.5 64t-103.5 19q-64 0 -112 -24.5t-81 -68.5t-49 -102t-16 -124z" />
    <glyph glyph-name="i" unicode="i" horiz-adv-x="525" 
d="M387 0h-248v1082h248v-1082zM123 1365q0 57 37 94.5t103 37.5t104 -37.5t38 -94.5q0 -56 -38 -93.5t-104 -37.5t-103 37.5t-37 93.5z" />
    <glyph glyph-name="j" unicode="j" horiz-adv-x="516" 
d="M383 1082v-1170q0 -169 -85.5 -259t-247.5 -90q-32 0 -67 4.5t-66 12.5l1 196q21 -4 44.5 -6.5t44.5 -2.5q61 0 94.5 34t33.5 111v1170h248zM114 1365q0 57 37 94.5t103 37.5t104 -37.5t38 -94.5q0 -56 -38 -93.5t-104 -37.5t-103 37.5t-37 93.5z" />
    <glyph glyph-name="k" unicode="k" horiz-adv-x="1072" 
d="M372 0h-249v1536h249v-1536zM575 558l-261 -265l-66 207l197 245l299 337h299zM452 505l157 172l475 -677h-288z" />
    <glyph glyph-name="l" unicode="l" horiz-adv-x="525" 
d="M387 0h-248v1536h248v-1536z" />
    <glyph glyph-name="m" unicode="m" horiz-adv-x="1782" 
d="M371 0h-249v1082h234l15 -221v-861zM246 579q0 151 48.5 269t144.5 186t239 68q147 0 242 -89t95 -292v-721h-248v698q0 76 -23.5 120t-66 62.5t-101.5 18.5q-67 0 -113.5 -24.5t-75.5 -68.5t-42.5 -102t-13.5 -124zM883 614q1 133 49 244t142 177.5t232 66.5
q110 0 189 -40.5t122 -129t43 -234.5v-698h-249v700q0 79 -23.5 122.5t-66 60t-100.5 16.5q-55 0 -96.5 -20t-69 -55.5t-42 -83t-14.5 -102.5z" />
    <glyph glyph-name="n" unicode="n" horiz-adv-x="1141" 
d="M368 0h-248v1082h233l15 -231v-851zM244 579q1 157 55 274.5t151 183t226 65.5q105 0 182 -39.5t120 -128t43 -237.5v-697h-249v699q0 75 -21.5 119t-64 62.5t-103.5 18.5q-62 0 -109.5 -24.5t-81 -68.5t-51 -102t-17.5 -124z" />
    <glyph glyph-name="o" unicode="o" horiz-adv-x="1163" 
d="M77 551q0 158 60 282t172.5 196.5t270.5 72.5q160 0 273 -72.5t172.5 -196.5t59.5 -282v-21q0 -157 -59.5 -281.5t-172 -196.5t-271.5 -72t-272 72t-173 196.5t-60 281.5v21zM325 530q0 -96 27 -175.5t83.5 -127.5t146.5 -48q89 0 145.5 48t83 127.5t26.5 175.5v21
q0 95 -26.5 175t-83.5 128.5t-147 48.5q-89 0 -145.5 -48.5t-83 -128.5t-26.5 -175v-21z" />
    <glyph glyph-name="p" unicode="p" horiz-adv-x="1152" 
d="M371 -416h-248v1498h229l19 -208v-1290zM1073 531q0 -158 -48.5 -282.5t-142 -196.5t-228.5 -72q-136 0 -225.5 66.5t-139.5 183.5t-69 267v71q19 160 69 279.5t139 187t223 67.5q137 0 231 -69t142.5 -193t48.5 -288v-21zM825 552q0 97 -24.5 176t-78 125t-139.5 46
q-62 0 -107 -20.5t-75.5 -57.5t-47.5 -87.5t-24 -110.5v-181q12 -72 40 -132t80.5 -95.5t135.5 -35.5q86 0 139 48.5t77 128t24 175.5v21z" />
    <glyph glyph-name="q" unicode="q" horiz-adv-x="1161" 
d="M779 866l28 216h221v-1498h-249v1282zM78 551q0 164 50.5 288.5t146 193.5t231.5 69q134 0 222.5 -67.5t138.5 -187.5t67 -279v-59q-17 -154 -67 -273.5t-139 -187.5t-224 -68t-230.5 72t-145.5 196t-50 282v21zM326 530q0 -96 24.5 -175.5t77.5 -127.5t139 -48
q84 0 137 37t82 99t40 138v169q-6 60 -23.5 111t-48.5 89.5t-77 59.5t-108 21q-86 0 -140 -47.5t-78.5 -127.5t-24.5 -177v-21z" />
    <glyph glyph-name="r" unicode="r" horiz-adv-x="726" 
d="M371 0h-248v1082h236l12 -212v-870zM697 854q-23 4 -48.5 6t-50.5 2q-82 0 -136.5 -29.5t-82.5 -84t-33 -128.5l-57 -1q0 137 36 246t108 173t180 64q21 0 47 -4t39 -9z" />
    <glyph glyph-name="s" unicode="s" horiz-adv-x="1055" 
d="M727 295q0 34 -17.5 62t-67.5 52t-147 44q-115 24 -202.5 64t-136 103t-48.5 154q0 88 50.5 162.5t145 120t223.5 45.5q136 0 234 -45.5t150.5 -123t52.5 -175.5h-248q0 64 -47.5 112.5t-142.5 48.5q-59 0 -98.5 -19t-59 -49t-19.5 -66q0 -35 19.5 -61t67 -46t133.5 -38
q124 -26 214 -65.5t138.5 -104t48.5 -163.5q0 -95 -54.5 -169t-153 -116t-232.5 -42q-149 0 -251 53t-154.5 135.5t-52.5 171.5h239q4 -64 36.5 -103t82 -56.5t103.5 -17.5q64 0 106.5 17t65 46.5t22.5 68.5z" />
    <glyph glyph-name="t" unicode="t" horiz-adv-x="683" 
d="M624 899h-614v183h614v-183zM432 1347v-1042q0 -50 14 -75.5t40 -34.5t60 -9q25 0 48 3t37 6v-191q-30 -10 -69.5 -17t-92.5 -7q-83 0 -147.5 30t-101 97.5t-36.5 179.5v1060h248z" />
    <glyph glyph-name="u" unicode="u" horiz-adv-x="1140" 
d="M771 1082h248v-1082h-234l-14 256v826zM888 484q0 -146 -43 -259.5t-134 -179t-236 -65.5q-160 0 -259 94t-99 309v699h248v-701q0 -75 23.5 -118.5t62.5 -61.5t86 -18q101 0 159.5 39.5t83.5 107.5t25 152z" />
    <glyph glyph-name="v" unicode="v" horiz-adv-x="1018" 
d="M736 1082h257l-374 -1082h-160l16 196zM545 193l12 -193h-159l-377 1082h258z" />
    <glyph glyph-name="w" unicode="w" horiz-adv-x="1519" 
d="M665 1082h158l-42 -264l-251 -818h-140l26 247zM470 244l13 -244h-157l-292 1082h242zM1239 1082h241l-291 -1082h-157l20 254zM1096 256l29 -256h-141l-254 819l-41 263h161z" />
    <glyph glyph-name="x" unicode="x" horiz-adv-x="1032" 
d="M516 731l204 351h272l-326 -531l338 -551h-271l-216 367l-214 -367h-274l339 551l-326 531h273z" />
    <glyph glyph-name="y" unicode="y" horiz-adv-x="1004" 
d="M727 1082h265l-433 -1246q-15 -41 -39 -88t-62.5 -89t-96 -69t-138.5 -27q-22 0 -42.5 2.5t-39.5 6.5t-37 9v191q10 -1 24 -2t23 -1q89 0 135 32t71 109l79 209zM530 281l44 -268l-172 -39l-391 1108h268z" />
    <glyph glyph-name="z" unicode="z" horiz-adv-x="1032" 
d="M962 0h-806v199h806v-199zM241 0h-160v160l696 922h164v-154zM847 882h-754v200h754v-200z" />
    <glyph glyph-name="braceleft" unicode="{" horiz-adv-x="684" 
d="M654 1455q-102 -34 -139.5 -122t-37.5 -201v-205q0 -100 -43 -182t-136 -130.5t-243 -48.5v142q102 0 146.5 59.5t44.5 159.5v205q0 105 33 196.5t111 161t215 107.5zM605 -362q-137 39 -215 108t-111 160.5t-33 196.5v204q0 100 -44.5 159.5t-146.5 59.5v143
q150 0 243 -48.5t136 -130t43 -183.5v-204q0 -113 37.5 -200.5t139.5 -122.5z" />
    <glyph glyph-name="bar" unicode="|" horiz-adv-x="512" 
d="M340 -270h-165v1726h165v-1726z" />
    <glyph glyph-name="braceright" unicode="}" horiz-adv-x="684" 
d="M78 1597q137 -38 215 -107.5t110.5 -161t32.5 -196.5v-205q0 -100 45 -159.5t147 -59.5v-136q-150 0 -243 46.5t-136.5 127.5t-43.5 181v205q0 113 -37 201t-140 122zM28 -220q103 35 140 122.5t37 200.5v204q0 102 43.5 182t136.5 127t243 47v-137q-102 0 -147 -59.5
t-45 -159.5v-204q0 -105 -32.5 -196.5t-110.5 -160.5t-215 -108z" />
    <glyph glyph-name="asciitilde" unicode="~" horiz-adv-x="1355" 
d="M1238 787q0 -117 -42 -207t-116.5 -141.5t-170.5 -51.5q-84 0 -148.5 33.5t-138.5 101.5q-45 43 -84.5 66t-84.5 23q-66 0 -104.5 -51.5t-38.5 -136.5l-194 1q0 119 42 207t116 137t170 49q84 0 151.5 -34.5t137.5 -99.5q47 -44 85.5 -67t81.5 -23q67 0 108 55t41 140z
" />
    <glyph glyph-name="exclamdown" unicode="&#xa1;" horiz-adv-x="548" 
d="M171 658h211l26 -1024h-263zM415 968q0 -56 -37 -95t-104 -39q-66 0 -103.5 39t-37.5 95q0 57 37.5 95t103.5 38q67 0 104 -38t37 -95z" />
    <glyph glyph-name="cent" unicode="&#xa2;" horiz-adv-x="1155" 
d="M687 1028h-195v290h195v-290zM687 -245h-195v289h195v-289zM591 179q58 0 105 23.5t75.5 64.5t31.5 94h233q-3 -107 -63 -193t-159 -137t-220 -51q-166 0 -275.5 73.5t-163.5 197t-54 273.5v34q0 150 54.5 273.5t163.5 197t274 73.5q131 0 229.5 -51.5t154.5 -143.5
t59 -215h-233q-3 58 -29 106t-72.5 76.5t-111.5 28.5q-95 0 -147.5 -50t-73 -129t-20.5 -166v-34q0 -88 20 -167t72.5 -128.5t149.5 -49.5z" />
    <glyph glyph-name="sterling" unicode="&#xa3;" horiz-adv-x="1207" 
d="M99 0v207h1050l-1 -207h-1049zM96 595v204h727v-204h-727zM525 424q1 -97 -35 -171.5t-119 -118.5l-186 73q33 9 50 42.5t23.5 78.5t6.5 85l-21 626q0 138 57.5 235.5t159.5 149.5t234 52q210 0 324 -112t114 -294h-250q0 73 -27 116t-71.5 62.5t-96.5 19.5
q-79 0 -132.5 -58t-53.5 -171z" />
    <glyph glyph-name="currency" unicode="&#xa4;" horiz-adv-x="1435" 
d="M307 608q0 -93 32.5 -174t89 -142t131.5 -95.5t161 -34.5t161 34.5t132 95.5t89 142t32 174t-32 173.5t-89 141.5t-132 95t-161 34t-161 -34t-131.5 -95t-89 -141.5t-32.5 -173.5zM126 608q0 133 46.5 247t128 199t189.5 132.5t231 47.5t231 -47.5t190 -132.5t128 -199
t46 -247t-46 -247t-128 -199.5t-190 -133.5t-231 -48t-231 48t-189.5 133.5t-128 199.5t-46.5 247zM1155 917l-138 142l201 206l139 -142zM229 -26l-138 141l202 205l138 -140zM1017 179l138 141l202 -205l-139 -142zM91 1123l138 141l202 -206l-138 -141z" />
    <glyph glyph-name="yen" unicode="&#xa5;" horiz-adv-x="1089" 
d="M972 586h-870v154h870v-154zM972 296h-870v154h870v-154zM803 1456h274l-417 -880h-149l-32 116zM617 684l-38 -108h-149l-417 880h275zM669 0h-257v766h257v-766z" />
    <glyph glyph-name="brokenbar" unicode="&#xa6;" horiz-adv-x="507" 
d="M136 -270v793h230v-793h-230zM366 698h-230v758h230v-758z" />
    <glyph glyph-name="section" unicode="&#xa7;" horiz-adv-x="1275" 
d="M687 259q111 0 172.5 51.5t61.5 132.5q0 53 -29 91t-98.5 70.5t-192.5 68.5q-147 41 -253 92t-162.5 130.5t-56.5 205.5q0 114 62.5 198.5t176.5 131t269 46.5q236 0 372 -110.5t136 -318.5h-248q0 63 -30 115t-87.5 82.5t-142.5 30.5q-136 0 -198 -50.5t-62 -122.5
q0 -55 25.5 -91t93.5 -65t195 -63q151 -40 257.5 -91.5t162 -130t55.5 -201.5q0 -162 -130.5 -248.5t-348.5 -86.5v133zM557 740q-111 0 -162.5 -51t-51.5 -130q0 -57 25.5 -95t94 -68.5t195.5 -67.5q152 -41 257.5 -91.5t161 -129.5t55.5 -206q0 -178 -138 -274.5
t-367 -96.5q-99 0 -194.5 21t-172.5 69.5t-123 130.5t-46 202l248 1q0 -66 25.5 -109t67 -68.5t93 -36t102.5 -10.5q124 0 190.5 47.5t66.5 121.5q0 51 -28 87t-97 66.5t-191 66.5q-148 39 -254 90.5t-162.5 130.5t-56.5 201q0 157 125.5 246.5t336.5 89.5v-137z" />
    <glyph glyph-name="dieresis" unicode="&#xa8;" horiz-adv-x="915" 
d="M96 1368q0 50 35 84.5t92 34.5q58 0 93 -34.5t35 -84.5q0 -49 -35 -83.5t-93 -34.5q-57 0 -92 34.5t-35 83.5zM561 1367q0 49 34 84t92 35t93 -35t35 -84q0 -50 -35 -84t-93 -34t-92 34t-34 84z" />
    <glyph glyph-name="copyright" unicode="&#xa9;" horiz-adv-x="1607" 
d="M1118 597q0 -157 -89.5 -235.5t-244.5 -78.5q-160 0 -254 107.5t-94 279.5v117q0 172 94 279.5t254 107.5q155 0 245 -78t90 -235h-152q0 97 -46.5 139t-136.5 42q-64 0 -108 -32.5t-66.5 -89.5t-22.5 -132v-118q0 -113 50 -183.5t147 -70.5q90 0 136 41t46 140h152z
M208 729q0 -132 45.5 -246.5t127 -199.5t188.5 -133t229 -48t229 47.5t188 133t126.5 200t45.5 246.5q0 133 -45.5 246.5t-126.5 198.5t-188 132t-229 47t-229 -47t-188.5 -132t-127 -198.5t-45.5 -246.5zM88 729q0 159 55 295t153 237.5t226.5 158t275.5 56.5t275.5 -56.5
t226 -158t153 -237.5t55.5 -295t-55.5 -295t-153 -238.5t-226 -159.5t-275.5 -57t-275.5 57t-226.5 159.5t-153 238.5t-55 295z" />
    <glyph glyph-name="ordfeminine" unicode="&#xaa;" horiz-adv-x="912" 
d="M586 1202q0 63 -29.5 96t-88.5 33q-67 0 -104.5 -26t-37.5 -75l-169 14q0 101 85 167t225 66q131 0 210.5 -69.5t79.5 -206.5v-314q0 -49 6 -93t20 -88h-173q-12 35 -18 75t-6 81v340zM629 1035h-146q-89 0 -130 -33.5t-41 -78.5q0 -42 29.5 -66t90.5 -24q41 0 84 19
t71.5 46t28.5 52l17 -115q-14 -32 -45.5 -65.5t-80.5 -55.5t-117 -22q-120 0 -184.5 61.5t-64.5 165.5q0 110 84.5 170.5t256.5 60.5h146z" />
    <glyph glyph-name="guillemotleft" unicode="&#xab;" horiz-adv-x="998" 
d="M291 530l-206 1v13l287 390h169zM541 136h-169l-287 389v13l206 1zM656 530l-206 1v13l287 390h169zM906 136h-169l-287 389v13l206 1z" />
    <glyph glyph-name="logicalnot" unicode="&#xac;" horiz-adv-x="1132" 
d="M961 636h-834v167h834v-167zM961 375h-196v352h196v-352z" />
    <glyph glyph-name="uni00AD" unicode="&#xad;" horiz-adv-x="600" 
d="M613 522h-533v200h533v-200z" />
    <glyph glyph-name="registered" unicode="&#xae;" horiz-adv-x="1607" 
d="M608 654l-2 131h190q66 1 116 31t50 87q0 74 -39 103t-139 29h-131v-719h-148v850h279q149 0 237 -65.5t88 -194.5q0 -81 -56.5 -135t-161.5 -83q-4 0 -7.5 -6.5t-6.5 -6.5q-17 -10 -21.5 -14.5t-9 -5.5t-24.5 -1h-214zM833 756q156 0 214 -68.5t58 -172.5v-56
q0 -37 3.5 -70.5t13.5 -56.5v-16h-152q-10 26 -11.5 74t-1.5 70v54q0 71 -33 105.5t-112 34.5zM208 729q0 -132 45.5 -246.5t127 -199.5t188.5 -133t229 -48t228.5 47.5t187.5 133t127 200t46 246.5q0 133 -46 246.5t-127 198.5t-187.5 132t-228.5 47t-229 -47t-188.5 -132
t-127 -198.5t-45.5 -246.5zM88 729q0 159 55 295t153 237.5t226.5 158t275.5 56.5t275.5 -56.5t226.5 -158t153 -237.5t55 -295t-55 -295t-153 -238.5t-226.5 -159.5t-275.5 -57t-275.5 57t-226.5 159.5t-153 238.5t-55 295z" />
    <glyph glyph-name="macron" unicode="&#xaf;" horiz-adv-x="991" 
d="M841 1294h-683v157h683v-157z" />
    <glyph glyph-name="degree" unicode="&#xb0;" horiz-adv-x="783" 
d="M128 1207q0 74 36.5 135t97 98t132.5 37q71 0 130.5 -37t95 -98t35.5 -135q0 -73 -35.5 -134t-95 -96t-130.5 -35q-72 0 -132.5 35t-97 96t-36.5 134zM267 1207q0 -54 37.5 -90t89.5 -36t87 36t35 90q0 56 -35 93t-87 37t-89.5 -37t-37.5 -93z" />
    <glyph glyph-name="plusminus" unicode="&#xb1;" horiz-adv-x="1099" 
d="M1009 703h-916v204h916v-204zM668 318h-221v960h221v-960zM974 1h-852v201h852v-201z" />
    <glyph glyph-name="uni00B2" unicode="&#xb2;" 
d="M690 667h-612v126l288 263q60 54 85.5 97t25.5 70q0 43 -27.5 69t-79.5 26q-63 0 -93 -35.5t-30 -84.5h-187q0 74 36.5 135t104.5 97.5t162 36.5q142 0 221 -64t79 -179q0 -56 -23.5 -102.5t-69 -92.5t-113.5 -102l-137 -111h370v-149z" />
    <glyph glyph-name="uni00B3" unicode="&#xb3;" 
d="M357 1133q64 0 94.5 26.5t30.5 70.5q0 34 -26.5 61t-89.5 27q-47 0 -80 -19.5t-33 -54.5h-187q0 71 41 121t108 76t146 26q137 0 222.5 -57t85.5 -168q0 -58 -35.5 -101.5t-98.5 -67.5t-147 -24h-118v84h87zM270 1088h118q93 0 159 -20.5t101 -64.5t35 -115
q0 -111 -92 -171.5t-229 -60.5q-75 0 -145.5 24.5t-116 77.5t-45.5 139h186q0 -37 35.5 -64t94.5 -27q64 0 94.5 28t30.5 69q0 56 -37 79t-102 23h-87v83z" />
    <glyph glyph-name="acute" unicode="&#xb4;" horiz-adv-x="666" 
d="M306 1536h279l-274 -303h-201z" />
    <glyph glyph-name="mu" unicode="&#xb5;" horiz-adv-x="1140" 
d="M118 607h211l25 -1023h-262zM771 1082h248v-1082h-234l-14 256v826zM888 484q0 -146 -43 -259.5t-134 -179t-236 -65.5q-160 0 -259 94t-99 309v699h248v-701q0 -75 23.5 -118.5t62.5 -61.5t86 -18q101 0 159.5 39.5t83.5 107.5t25 152z" />
    <glyph glyph-name="paragraph" unicode="&#xb6;" horiz-adv-x="1003" 
d="M648 0v520h-84q-159 0 -268.5 60.5t-166.5 166.5t-57 241q0 134 57 240t166.5 167t268.5 61h292v-1456h-208z" />
    <glyph glyph-name="periodcentered" unicode="&#xb7;" horiz-adv-x="584" 
d="M143 711q0 58 38.5 97.5t105.5 39.5q68 0 106 -39.5t38 -97.5t-38 -97t-106 -39q-67 0 -105.5 39t-38.5 97z" />
    <glyph glyph-name="cedilla" unicode="&#xb8;" horiz-adv-x="532" 
d="M322 4l-12 -56q57 -10 104.5 -48t47.5 -125q0 -102 -84.5 -164t-247.5 -62l-7 142q38 0 68.5 9t48.5 28.5t18 51.5q0 45 -36 61.5t-114 22.5l31 140h183z" />
    <glyph glyph-name="uni00B9" unicode="&#xb9;" 
d="M515 667h-185v570l-199 -48v147l366 119h18v-788z" />
    <glyph glyph-name="ordmasculine" unicode="&#xba;" horiz-adv-x="935" 
d="M120 1122q0 156 93.5 255.5t251.5 99.5q160 0 252.5 -99.5t92.5 -255.5v-78q0 -155 -92 -254t-251 -99q-160 0 -253.5 99t-93.5 254v78zM292 1044q0 -90 42.5 -150t132.5 -60q87 0 129.5 60t42.5 150v78q0 89 -42.5 149t-131.5 60q-88 0 -130.5 -60t-42.5 -149v-78z" />
    <glyph glyph-name="guillemotright" unicode="&#xbb;" horiz-adv-x="998" 
d="M342 539l205 -1v-13l-286 -389h-169zM261 934l286 -390v-13l-205 -1l-250 404h169zM718 539l205 -1v-13l-286 -389h-169zM637 934l286 -390v-13l-205 -1l-250 404h169z" />
    <glyph glyph-name="onequarter" unicode="&#xbc;" horiz-adv-x="1504" 
d="M517 110l-126 72l711 1138l126 -72zM515 546h-185v570l-199 -48v147l366 119h18v-788zM1449 164h-639l-10 121l365 504h147l-160 -255l-171 -218h468v-152zM1353 0h-187v789h187v-789z" />
    <glyph glyph-name="onehalf" unicode="&#xbd;" horiz-adv-x="1615" 
d="M507 110l-126 72l711 1138l126 -72zM515 546h-185v570l-199 -48v147l366 119h18v-788zM1547 0h-612v126l288 263q60 54 85.5 97t25.5 70q0 43 -27.5 69t-79.5 26q-63 0 -93 -35.5t-30 -84.5h-187q0 74 36.5 135t104.5 97.5t162 36.5q142 0 221 -64t79 -179
q0 -56 -23.5 -102.5t-69 -92.5t-113.5 -102l-137 -111h370v-149z" />
    <glyph glyph-name="threequarters" unicode="&#xbe;" horiz-adv-x="1604" 
d="M357 1005q64 0 94.5 26.5t30.5 70.5q0 34 -26.5 61t-89.5 27q-47 0 -80 -19.5t-33 -54.5h-187q0 71 41 121t108 76t146 26q137 0 222.5 -57t85.5 -168q0 -58 -35.5 -101.5t-98.5 -67.5t-147 -24h-118v84h87zM270 960h118q93 0 159 -20.5t101 -64.5t35 -115
q0 -111 -92 -171.5t-229 -60.5q-75 0 -145.5 24.5t-116 77.5t-45.5 139h186q0 -37 35.5 -64t94.5 -27q64 0 94.5 28t30.5 69q0 56 -37 79t-102 23h-87v83zM616 110l-126 72l711 1138l126 -72zM1548 164h-639l-10 121l365 504h147l-160 -255l-171 -218h468v-152zM1452 0h-187
v789h187v-789z" />
    <glyph glyph-name="questiondown" unicode="&#xbf;" horiz-adv-x="1000" 
d="M636 658q-1 -92 -16 -155t-48.5 -114.5t-92.5 -109.5q-44 -43 -81 -83t-59 -85.5t-22 -105.5q0 -92 48 -138.5t134 -46.5q76 0 133 44.5t59 140.5h248q-1 -129 -59.5 -216t-156.5 -131t-221 -44q-205 0 -319 100.5t-114 286.5q0 89 36 161.5t92.5 135t119.5 121.5
q37 35 56 70.5t26.5 77t7.5 91.5h229zM659 969q0 -56 -37 -95t-103 -39t-103.5 39t-37.5 95q0 57 37.5 95t103.5 38t103 -38t37 -95z" />
    <glyph glyph-name="Agrave" unicode="&#xc0;" horiz-adv-x="1363" 
d="M287 0h-271l548 1456h172l-17 -207zM644 1249l-19 207h173l550 -1456h-271zM1060 333h-793v208h793v-208zM815 1543h-206l-270 303h280z" />
    <glyph glyph-name="Aacute" unicode="&#xc1;" horiz-adv-x="1363" 
d="M287 0h-271l548 1456h172l-17 -207zM644 1249l-19 207h173l550 -1456h-271zM1060 333h-793v208h793v-208zM757 1846h279l-274 -303h-200z" />
    <glyph glyph-name="Acircumflex" unicode="&#xc2;" horiz-adv-x="1363" 
d="M287 0h-271l548 1456h172l-17 -207zM644 1249l-19 207h173l550 -1456h-271zM1060 333h-793v208h793v-208zM1037 1569v-11h-199l-153 155l-152 -155h-196v14l275 274h146z" />
    <glyph glyph-name="Atilde" unicode="&#xc3;" horiz-adv-x="1363" 
d="M287 0h-271l548 1456h172l-17 -207zM644 1249l-19 207h173l550 -1456h-271zM1060 333h-793v208h793v-208zM1053 1824q0 -73 -29 -131t-79 -91.5t-114 -33.5q-50 0 -83.5 14t-61.5 31.5t-57 31t-70 13.5q-38 0 -64 -28t-26 -74l-151 8q0 73 29.5 131.5t79 93t113.5 34.5
q41 0 74.5 -13.5t64 -31t62.5 -31t71 -13.5q38 0 64.5 28t26.5 74z" />
    <glyph glyph-name="Adieresis" unicode="&#xc4;" horiz-adv-x="1363" 
d="M287 0h-271l548 1456h172l-17 -207zM644 1249l-19 207h173l550 -1456h-271zM1060 333h-793v208h793v-208zM326 1678q0 50 35 84.5t92 34.5q58 0 93 -34.5t35 -84.5q0 -49 -35 -83.5t-93 -34.5q-57 0 -92 34.5t-35 83.5zM791 1677q0 49 34 84t92 35t93 -35t35 -84
q0 -50 -35 -84t-93 -34t-92 34t-34 84z" />
    <glyph glyph-name="Aring" unicode="&#xc5;" horiz-adv-x="1363" 
d="M287 0h-271l548 1456h172l-17 -207zM644 1249l-19 207h173l550 -1456h-271zM1060 333h-793v208h793v-208zM465 1730q0 86 63 146.5t158 60.5q94 0 156.5 -60.5t62.5 -146.5q0 -85 -62.5 -143.5t-156.5 -58.5q-95 0 -158 58.5t-63 143.5zM574 1730q0 -43 31 -76.5
t81 -33.5t80.5 33t30.5 77q0 46 -30.5 80t-80.5 34t-81 -34t-31 -80z" />
    <glyph glyph-name="AE" unicode="&#xc6;" horiz-adv-x="1922" 
d="M290 0h-295l825 1456h157l7 -154zM1108 342h-750v217h750v-217zM1873 0h-733v201h733v-201zM1228 0h-249l-61 1456h249zM1730 651h-630v201h630v-201zM1811 1255h-732v201h732v-201z" />
    <glyph glyph-name="Ccedilla" unicode="&#xc7;" horiz-adv-x="1338" 
d="M1261 476q-12 -143 -80.5 -255.5t-191.5 -176.5t-301 -64q-180 0 -312.5 84.5t-204 239.5t-71.5 366v115q0 212 73 366.5t207.5 239.5t317.5 85q175 0 295.5 -64.5t187 -178t80.5 -260.5h-257q-15 139 -82.5 216t-223.5 77q-113 0 -187.5 -55.5t-112.5 -162t-38 -261.5
v-117q0 -148 34 -255.5t106 -166t188 -58.5q106 0 171.5 33t99.5 96.5t44 156.5h258zM779 -2l-12 -56q57 -10 104.5 -48t47.5 -125q0 -102 -84.5 -164t-247.5 -62l-7 142q38 0 68.5 9t48.5 28.5t18 51.5q0 45 -36 61.5t-114 22.5l31 140h183z" />
    <glyph glyph-name="Egrave" unicode="&#xc8;" horiz-adv-x="1157" 
d="M1101 0h-769v207h769v-207zM404 0h-258v1456h258v-1456zM1000 648h-668v204h668v-204zM1096 1248h-764v208h764v-208zM759 1550h-206l-270 303h280z" />
    <glyph glyph-name="Eacute" unicode="&#xc9;" horiz-adv-x="1157" 
d="M1101 0h-769v207h769v-207zM404 0h-258v1456h258v-1456zM1000 648h-668v204h668v-204zM1096 1248h-764v208h764v-208zM701 1853h279l-274 -303h-200z" />
    <glyph glyph-name="Ecircumflex" unicode="&#xca;" horiz-adv-x="1157" 
d="M1101 0h-769v207h769v-207zM404 0h-258v1456h258v-1456zM1000 648h-668v204h668v-204zM1096 1248h-764v208h764v-208zM981 1576v-11h-199l-153 155l-152 -155h-196v14l275 274h146z" />
    <glyph glyph-name="Edieresis" unicode="&#xcb;" horiz-adv-x="1157" 
d="M1101 0h-769v207h769v-207zM404 0h-258v1456h258v-1456zM1000 648h-668v204h668v-204zM1096 1248h-764v208h764v-208zM270 1685q0 50 35 84.5t92 34.5q58 0 93 -34.5t35 -84.5q0 -49 -35 -83.5t-93 -34.5q-57 0 -92 34.5t-35 83.5zM735 1684q0 49 34 84t92 35t93 -35
t35 -84q0 -50 -35 -84t-93 -34t-92 34t-34 84z" />
    <glyph glyph-name="Igrave" unicode="&#xcc;" horiz-adv-x="582" 
d="M420 0h-257v1456h257v-1456zM420 1550h-206l-270 303h280z" />
    <glyph glyph-name="Iacute" unicode="&#xcd;" horiz-adv-x="582" 
d="M420 0h-257v1456h257v-1456zM363 1853h279l-274 -303h-200z" />
    <glyph glyph-name="Icircumflex" unicode="&#xce;" horiz-adv-x="582" 
d="M420 0h-257v1456h257v-1456zM643 1576v-11h-199l-153 155l-152 -155h-196v14l275 274h146z" />
    <glyph glyph-name="Idieresis" unicode="&#xcf;" horiz-adv-x="582" 
d="M420 0h-257v1456h257v-1456zM-68 1685q0 50 35 84.5t92 34.5q58 0 93 -34.5t35 -84.5q0 -49 -35 -83.5t-93 -34.5q-57 0 -92 34.5t-35 83.5zM397 1684q0 49 34 84t92 35t93 -35t35 -84q0 -50 -35 -84t-93 -34t-92 34t-34 84z" />
    <glyph glyph-name="Eth" unicode="&#xd0;" horiz-adv-x="1337" 
d="M260 0l2 207h308q134 0 224 58t136 166.5t46 259.5v76q0 155 -45.5 262t-134.5 163t-217 56h-325v208h325q195 0 342.5 -86t230.5 -241t83 -364v-74q0 -210 -83 -365t-232.5 -240.5t-349.5 -85.5h-310zM404 0h-258v1456h258v-1456zM666 652h-675v170h675v-170z" />
    <glyph glyph-name="Ntilde" unicode="&#xd1;" horiz-adv-x="1453" 
d="M1305 0h-259l-642 1026v-1026h-258v1456h258l644 -1028v1028h257v-1456zM1094 1824q0 -73 -29 -131t-79 -91.5t-114 -33.5q-50 0 -83.5 14t-61.5 31.5t-57 31t-70 13.5q-38 0 -64 -28t-26 -74l-151 8q0 73 29.5 131.5t79 93t113.5 34.5q41 0 74.5 -13.5t64 -31t62.5 -31
t71 -13.5q38 0 64.5 28t26.5 74z" />
    <glyph glyph-name="Ograve" unicode="&#xd2;" horiz-adv-x="1413" 
d="M1312 690q0 -221 -76 -380t-211.5 -244.5t-317.5 -85.5q-178 0 -315.5 85.5t-215 244.5t-77.5 380v75q0 221 77 380.5t214 245t315 85.5q182 0 318 -85.5t212.5 -245t76.5 -380.5v-75zM1053 767q0 161 -41 271.5t-119 167t-188 56.5q-108 0 -185.5 -56.5t-119 -167
t-41.5 -271.5v-77q0 -161 42 -272t120 -168t186 -57q111 0 188.5 57t117.5 168t40 272v77zM837 1544h-206l-270 303h280z" />
    <glyph glyph-name="Oacute" unicode="&#xd3;" horiz-adv-x="1413" 
d="M1312 690q0 -221 -76 -380t-211.5 -244.5t-317.5 -85.5q-178 0 -315.5 85.5t-215 244.5t-77.5 380v75q0 221 77 380.5t214 245t315 85.5q182 0 318 -85.5t212.5 -245t76.5 -380.5v-75zM1053 767q0 161 -41 271.5t-119 167t-188 56.5q-108 0 -185.5 -56.5t-119 -167
t-41.5 -271.5v-77q0 -161 42 -272t120 -168t186 -57q111 0 188.5 57t117.5 168t40 272v77zM779 1847h279l-274 -303h-200z" />
    <glyph glyph-name="Ocircumflex" unicode="&#xd4;" horiz-adv-x="1413" 
d="M1312 690q0 -221 -76 -380t-211.5 -244.5t-317.5 -85.5q-178 0 -315.5 85.5t-215 244.5t-77.5 380v75q0 221 77 380.5t214 245t315 85.5q182 0 318 -85.5t212.5 -245t76.5 -380.5v-75zM1053 767q0 161 -41 271.5t-119 167t-188 56.5q-108 0 -185.5 -56.5t-119 -167
t-41.5 -271.5v-77q0 -161 42 -272t120 -168t186 -57q111 0 188.5 57t117.5 168t40 272v77zM1059 1570v-11h-199l-153 155l-152 -155h-196v14l275 274h146z" />
    <glyph glyph-name="Otilde" unicode="&#xd5;" horiz-adv-x="1413" 
d="M1312 690q0 -221 -76 -380t-211.5 -244.5t-317.5 -85.5q-178 0 -315.5 85.5t-215 244.5t-77.5 380v75q0 221 77 380.5t214 245t315 85.5q182 0 318 -85.5t212.5 -245t76.5 -380.5v-75zM1053 767q0 161 -41 271.5t-119 167t-188 56.5q-108 0 -185.5 -56.5t-119 -167
t-41.5 -271.5v-77q0 -161 42 -272t120 -168t186 -57q111 0 188.5 57t117.5 168t40 272v77zM1075 1825q0 -73 -29 -131t-79 -91.5t-114 -33.5q-50 0 -83.5 14t-61.5 31.5t-57 31t-70 13.5q-38 0 -64 -28t-26 -74l-151 8q0 73 29.5 131.5t79 93t113.5 34.5q41 0 74.5 -13.5
t64 -31t62.5 -31t71 -13.5q38 0 64.5 28t26.5 74z" />
    <glyph glyph-name="Odieresis" unicode="&#xd6;" horiz-adv-x="1413" 
d="M1312 690q0 -221 -76 -380t-211.5 -244.5t-317.5 -85.5q-178 0 -315.5 85.5t-215 244.5t-77.5 380v75q0 221 77 380.5t214 245t315 85.5q182 0 318 -85.5t212.5 -245t76.5 -380.5v-75zM1053 767q0 161 -41 271.5t-119 167t-188 56.5q-108 0 -185.5 -56.5t-119 -167
t-41.5 -271.5v-77q0 -161 42 -272t120 -168t186 -57q111 0 188.5 57t117.5 168t40 272v77zM348 1679q0 50 35 84.5t92 34.5q58 0 93 -34.5t35 -84.5q0 -49 -35 -83.5t-93 -34.5q-57 0 -92 34.5t-35 83.5zM813 1678q0 49 34 84t92 35t93 -35t35 -84q0 -50 -35 -84t-93 -34
t-92 34t-34 84z" />
    <glyph glyph-name="multiply" unicode="&#xd7;" horiz-adv-x="1091" 
d="M75 356l779 794l150 -150l-779 -794zM75 1000l151 150l779 -794l-151 -150z" />
    <glyph glyph-name="Oslash" unicode="&#xd8;" horiz-adv-x="1411" 
d="M325 -94h-171l975 1611h169zM1316 690q0 -221 -75.5 -380t-211.5 -244.5t-317 -85.5q-178 0 -316 85.5t-215.5 244.5t-77.5 380v75q0 221 77 380.5t214.5 245t315.5 85.5q181 0 317.5 -85.5t212.5 -245t76 -380.5v-75zM1057 767q0 161 -41 271.5t-118.5 167t-187.5 56.5
q-108 0 -186 -56.5t-119.5 -167t-41.5 -271.5v-77q0 -161 42 -272t120.5 -168t186.5 -57q110 0 187.5 57t117.5 168t40 272v77z" />
    <glyph glyph-name="Ugrave" unicode="&#xd9;" horiz-adv-x="1340" 
d="M1217 1456v-970q0 -167 -72.5 -279.5t-196.5 -169.5t-277 -57q-157 0 -280.5 57t-194 169.5t-70.5 279.5v970h257v-970q0 -103 35 -169t100 -98t153 -32q90 0 154 32t99 98t35 169v970h258zM799 1543h-206l-270 303h280z" />
    <glyph glyph-name="Uacute" unicode="&#xda;" horiz-adv-x="1340" 
d="M1217 1456v-970q0 -167 -72.5 -279.5t-196.5 -169.5t-277 -57q-157 0 -280.5 57t-194 169.5t-70.5 279.5v970h257v-970q0 -103 35 -169t100 -98t153 -32q90 0 154 32t99 98t35 169v970h258zM741 1846h279l-274 -303h-200z" />
    <glyph glyph-name="Ucircumflex" unicode="&#xdb;" horiz-adv-x="1340" 
d="M1217 1456v-970q0 -167 -72.5 -279.5t-196.5 -169.5t-277 -57q-157 0 -280.5 57t-194 169.5t-70.5 279.5v970h257v-970q0 -103 35 -169t100 -98t153 -32q90 0 154 32t99 98t35 169v970h258zM1021 1569v-11h-199l-153 155l-152 -155h-196v14l275 274h146z" />
    <glyph glyph-name="Udieresis" unicode="&#xdc;" horiz-adv-x="1340" 
d="M1217 1456v-970q0 -167 -72.5 -279.5t-196.5 -169.5t-277 -57q-157 0 -280.5 57t-194 169.5t-70.5 279.5v970h257v-970q0 -103 35 -169t100 -98t153 -32q90 0 154 32t99 98t35 169v970h258zM310 1678q0 50 35 84.5t92 34.5q58 0 93 -34.5t35 -84.5q0 -49 -35 -83.5
t-93 -34.5q-57 0 -92 34.5t-35 83.5zM775 1677q0 49 34 84t92 35t93 -35t35 -84q0 -50 -35 -84t-93 -34t-92 34t-34 84z" />
    <glyph glyph-name="Yacute" unicode="&#xdd;" horiz-adv-x="1252" 
d="M625 770l333 686h285l-488 -921v-535h-260v535l-488 921h286zM700 1846h279l-274 -303h-200z" />
    <glyph glyph-name="Thorn" unicode="&#xde;" horiz-adv-x="1232" 
d="M395 1456v-1456h-249v1456h249zM639 1179q168 0 283 -57t174.5 -156.5t59.5 -227.5q0 -127 -59.5 -226.5t-174.5 -156.5t-283 -57h-285v199h285q96 0 155 34.5t86 89t27 115.5q0 62 -27 118t-86 90.5t-155 34.5h-245l-148 200h393z" />
    <glyph glyph-name="germandbls" unicode="&#xdf;" horiz-adv-x="1262" 
d="M384 0h-247v1106q0 224 120.5 338t320.5 114q114 0 205.5 -39.5t145 -118.5t53.5 -199q0 -77 -17.5 -125t-40 -83.5t-40 -73t-17.5 -93.5q0 -46 32 -85.5t80 -79.5t95.5 -85t80 -102.5t32.5 -133.5q0 -117 -51 -197.5t-145.5 -121.5t-224.5 -41q-53 0 -109 8.5t-103.5 23
t-74.5 31.5l49 199q33 -19 94.5 -40.5t131.5 -21.5q63 0 104 19.5t61 54t20 79.5q0 52 -32 92.5t-80 78t-96 81t-80 100t-32 135.5q0 63 18.5 107.5t42.5 81t42.5 78t18.5 99.5q0 55 -22.5 93t-60.5 58.5t-88 20.5q-87 0 -136.5 -59t-49.5 -196v-1103z" />
    <glyph glyph-name="agrave" unicode="&#xe0;" horiz-adv-x="1105" 
d="M730 731q0 84 -46.5 134t-140.5 50q-56 0 -98 -19.5t-65 -52.5t-23 -75h-248q0 87 55 163.5t155.5 123.5t237.5 47q122 0 217 -41t149.5 -124t54.5 -208v-477q0 -76 11 -134t31 -101v-17h-254q-17 39 -26.5 101t-9.5 121v509zM768 506h-170q-132 0 -198.5 -48.5
t-66.5 -131.5q0 -64 44 -106.5t124 -42.5q73 0 127.5 29.5t85.5 73t32 81.5l79 -111q-12 -41 -40.5 -87.5t-75 -88t-110 -68t-147.5 -26.5q-106 0 -189 42t-130.5 115.5t-47.5 165.5q0 172 129 264t366 92h186zM694 1233h-206l-270 303h280z" />
    <glyph glyph-name="aacute" unicode="&#xe1;" horiz-adv-x="1105" 
d="M730 731q0 84 -46.5 134t-140.5 50q-56 0 -98 -19.5t-65 -52.5t-23 -75h-248q0 87 55 163.5t155.5 123.5t237.5 47q122 0 217 -41t149.5 -124t54.5 -208v-477q0 -76 11 -134t31 -101v-17h-254q-17 39 -26.5 101t-9.5 121v509zM768 506h-170q-132 0 -198.5 -48.5
t-66.5 -131.5q0 -64 44 -106.5t124 -42.5q73 0 127.5 29.5t85.5 73t32 81.5l79 -111q-12 -41 -40.5 -87.5t-75 -88t-110 -68t-147.5 -26.5q-106 0 -189 42t-130.5 115.5t-47.5 165.5q0 172 129 264t366 92h186zM637 1536h279l-274 -303h-200z" />
    <glyph glyph-name="acircumflex" unicode="&#xe2;" horiz-adv-x="1105" 
d="M730 731q0 84 -46.5 134t-140.5 50q-56 0 -98 -19.5t-65 -52.5t-23 -75h-248q0 87 55 163.5t155.5 123.5t237.5 47q122 0 217 -41t149.5 -124t54.5 -208v-477q0 -76 11 -134t31 -101v-17h-254q-17 39 -26.5 101t-9.5 121v509zM768 506h-170q-132 0 -198.5 -48.5
t-66.5 -131.5q0 -64 44 -106.5t124 -42.5q73 0 127.5 29.5t85.5 73t32 81.5l79 -111q-12 -41 -40.5 -87.5t-75 -88t-110 -68t-147.5 -26.5q-106 0 -189 42t-130.5 115.5t-47.5 165.5q0 172 129 264t366 92h186zM916 1259v-11h-199l-153 155l-152 -155h-196v14l275 274h146z
" />
    <glyph glyph-name="atilde" unicode="&#xe3;" horiz-adv-x="1105" 
d="M730 731q0 84 -46.5 134t-140.5 50q-56 0 -98 -19.5t-65 -52.5t-23 -75h-248q0 87 55 163.5t155.5 123.5t237.5 47q122 0 217 -41t149.5 -124t54.5 -208v-477q0 -76 11 -134t31 -101v-17h-254q-17 39 -26.5 101t-9.5 121v509zM768 506h-170q-132 0 -198.5 -48.5
t-66.5 -131.5q0 -64 44 -106.5t124 -42.5q73 0 127.5 29.5t85.5 73t32 81.5l79 -111q-12 -41 -40.5 -87.5t-75 -88t-110 -68t-147.5 -26.5q-106 0 -189 42t-130.5 115.5t-47.5 165.5q0 172 129 264t366 92h186zM931 1514q0 -73 -29 -131t-79 -91.5t-114 -33.5
q-50 0 -83.5 14t-61.5 31.5t-57 31t-70 13.5q-38 0 -64 -28t-26 -74l-151 8q0 73 29.5 131.5t79 93t113.5 34.5q41 0 74.5 -13.5t64 -31t62.5 -31t71 -13.5q38 0 64.5 28t26.5 74z" />
    <glyph glyph-name="adieresis" unicode="&#xe4;" horiz-adv-x="1105" 
d="M730 731q0 84 -46.5 134t-140.5 50q-56 0 -98 -19.5t-65 -52.5t-23 -75h-248q0 87 55 163.5t155.5 123.5t237.5 47q122 0 217 -41t149.5 -124t54.5 -208v-477q0 -76 11 -134t31 -101v-17h-254q-17 39 -26.5 101t-9.5 121v509zM768 506h-170q-132 0 -198.5 -48.5
t-66.5 -131.5q0 -64 44 -106.5t124 -42.5q73 0 127.5 29.5t85.5 73t32 81.5l79 -111q-12 -41 -40.5 -87.5t-75 -88t-110 -68t-147.5 -26.5q-106 0 -189 42t-130.5 115.5t-47.5 165.5q0 172 129 264t366 92h186zM205 1368q0 50 35 84.5t92 34.5q58 0 93 -34.5t35 -84.5
q0 -49 -35 -83.5t-93 -34.5q-57 0 -92 34.5t-35 83.5zM670 1367q0 49 34 84t92 35t93 -35t35 -84q0 -50 -35 -84t-93 -34t-92 34t-34 84z" />
    <glyph glyph-name="aring" unicode="&#xe5;" horiz-adv-x="1105" 
d="M730 731q0 84 -46.5 134t-140.5 50q-56 0 -98 -19.5t-65 -52.5t-23 -75h-248q0 87 55 163.5t155.5 123.5t237.5 47q122 0 217 -41t149.5 -124t54.5 -208v-477q0 -76 11 -134t31 -101v-17h-254q-17 39 -26.5 101t-9.5 121v509zM768 506h-170q-132 0 -198.5 -48.5
t-66.5 -131.5q0 -64 44 -106.5t124 -42.5q73 0 127.5 29.5t85.5 73t32 81.5l79 -111q-12 -41 -40.5 -87.5t-75 -88t-110 -68t-147.5 -26.5q-106 0 -189 42t-130.5 115.5t-47.5 165.5q0 172 129 264t366 92h186zM344 1419q0 86 63 146.5t158 60.5q94 0 156.5 -60.5
t62.5 -146.5q0 -85 -62.5 -143.5t-156.5 -58.5q-95 0 -158 58.5t-63 143.5zM453 1419q0 -43 31 -76.5t81 -33.5t80.5 33t30.5 77q0 46 -30.5 80t-80.5 34t-81 -34t-31 -80z" />
    <glyph glyph-name="ae" unicode="&#xe6;" horiz-adv-x="1730" 
d="M735 712q0 88 -46.5 139.5t-133.5 51.5q-95 0 -149.5 -45.5t-54.5 -106.5l-248 19q0 96 56.5 171t158.5 118t239 43q188 0 303 -98.5t115 -293.5v-492l-240 -35v529zM779 475h-229q-76 0 -127 -23t-77.5 -61t-26.5 -82q0 -62 44.5 -102t137.5 -40q47 0 96 17t91 44.5
t67 58.5t25 58l120 -151q-26 -49 -84 -98.5t-148 -83t-216 -33.5q-184 0 -282.5 91t-98.5 243q0 158 121.5 244.5t355.5 86.5h230zM1253 -21q-165 0 -280 67.5t-174 186.5t-59 272v59q0 158 59 280t167 190.5t255 67.5q215 0 332.5 -132t117.5 -357v-143h-819v173h573v29
q0 65 -20.5 117.5t-65.5 83t-118 30.5q-83 0 -137 -45.5t-80 -122t-26 -171.5v-59q0 -90 30 -164.5t95 -117.5t168 -43q111 0 180 29t123 60l72 -168q-29 -23 -83.5 -51.5t-132.5 -49.5t-177 -21z" />
    <glyph glyph-name="ccedilla" unicode="&#xe7;" horiz-adv-x="1071" 
d="M567 179q58 0 105 23.5t75 64.5t31 94h234q-3 -107 -63 -193t-159 -137t-221 -51q-165 0 -274.5 73.5t-163.5 197t-54 273.5v34q0 150 54 273.5t163.5 197t274.5 73.5q131 0 229.5 -51.5t154.5 -143.5t59 -215h-234q-3 58 -28.5 106t-72 76.5t-111.5 28.5
q-96 0 -148.5 -50t-72.5 -129t-20 -166v-34q0 -88 19.5 -167t72.5 -128.5t150 -49.5zM642 -2l-12 -56q57 -10 104.5 -48t47.5 -125q0 -102 -84.5 -164t-247.5 -62l-7 142q38 0 68.5 9t48.5 28.5t18 51.5q0 45 -36 61.5t-114 22.5l31 140h183z" />
    <glyph glyph-name="egrave" unicode="&#xe8;" horiz-adv-x="1099" 
d="M602 -20q-161 0 -278 69.5t-180 188t-63 265.5v41q0 169 64 294.5t175.5 194.5t252.5 69q156 0 259 -67.5t154 -187t51 -276.5v-107h-837v179h592v19q-2 63 -24 118t-69.5 89t-126.5 34t-133 -44.5t-82 -125t-28 -189.5v-41q0 -92 34 -165t99 -115.5t155 -42.5
q87 0 154.5 34t116.5 98l130 -130q-51 -77 -153.5 -139.5t-262.5 -62.5zM683 1233h-206l-270 303h280z" />
    <glyph glyph-name="eacute" unicode="&#xe9;" horiz-adv-x="1099" 
d="M602 -20q-161 0 -278 69.5t-180 188t-63 265.5v41q0 169 64 294.5t175.5 194.5t252.5 69q156 0 259 -67.5t154 -187t51 -276.5v-107h-837v179h592v19q-2 63 -24 118t-69.5 89t-126.5 34t-133 -44.5t-82 -125t-28 -189.5v-41q0 -92 34 -165t99 -115.5t155 -42.5
q87 0 154.5 34t116.5 98l130 -130q-51 -77 -153.5 -139.5t-262.5 -62.5zM625 1536h279l-274 -303h-200z" />
    <glyph glyph-name="ecircumflex" unicode="&#xea;" horiz-adv-x="1099" 
d="M602 -20q-161 0 -278 69.5t-180 188t-63 265.5v41q0 169 64 294.5t175.5 194.5t252.5 69q156 0 259 -67.5t154 -187t51 -276.5v-107h-837v179h592v19q-2 63 -24 118t-69.5 89t-126.5 34t-133 -44.5t-82 -125t-28 -189.5v-41q0 -92 34 -165t99 -115.5t155 -42.5
q87 0 154.5 34t116.5 98l130 -130q-51 -77 -153.5 -139.5t-262.5 -62.5zM905 1259v-11h-199l-153 155l-152 -155h-196v14l275 274h146z" />
    <glyph glyph-name="edieresis" unicode="&#xeb;" horiz-adv-x="1099" 
d="M602 -20q-161 0 -278 69.5t-180 188t-63 265.5v41q0 169 64 294.5t175.5 194.5t252.5 69q156 0 259 -67.5t154 -187t51 -276.5v-107h-837v179h592v19q-2 63 -24 118t-69.5 89t-126.5 34t-133 -44.5t-82 -125t-28 -189.5v-41q0 -92 34 -165t99 -115.5t155 -42.5
q87 0 154.5 34t116.5 98l130 -130q-51 -77 -153.5 -139.5t-262.5 -62.5zM194 1368q0 50 35 84.5t92 34.5q58 0 93 -34.5t35 -84.5q0 -49 -35 -83.5t-93 -34.5q-57 0 -92 34.5t-35 83.5zM659 1367q0 49 34 84t92 35t93 -35t35 -84q0 -50 -35 -84t-93 -34t-92 34t-34 84z" />
    <glyph glyph-name="igrave" unicode="&#xec;" horiz-adv-x="540" 
d="M391 0h-248v1082h248v-1082zM400 1223h-206l-270 303h280z" />
    <glyph glyph-name="iacute" unicode="&#xed;" horiz-adv-x="540" 
d="M391 0h-248v1082h248v-1082zM342 1526h279l-274 -303h-200z" />
    <glyph glyph-name="icircumflex" unicode="&#xee;" horiz-adv-x="540" 
d="M391 0h-248v1082h248v-1082zM622 1249v-11h-199l-153 155l-152 -155h-196v14l275 274h146z" />
    <glyph glyph-name="idieresis" unicode="&#xef;" horiz-adv-x="540" 
d="M391 0h-248v1082h248v-1082zM-90 1358q0 50 35 84.5t92 34.5q58 0 93 -34.5t35 -84.5q0 -49 -35 -83.5t-93 -34.5q-57 0 -92 34.5t-35 83.5zM375 1357q0 49 34 84t92 35t93 -35t35 -84q0 -50 -35 -84t-93 -34t-92 34t-34 84z" />
    <glyph glyph-name="eth" unicode="&#xf0;" horiz-adv-x="1188" 
d="M319 1580q228 -48 402 -174.5t272.5 -320t98.5 -442.5v-83q0 -172 -65 -303t-177.5 -204t-256.5 -73q-146 0 -257 65.5t-173 176t-62 246.5q0 152 55.5 265t157 175.5t238.5 62.5q113 0 203 -51.5t144.5 -136t58.5 -184.5l-90 1q0 29 -15.5 60t-48 58t-81.5 44t-115 17
q-83 0 -141 -37.5t-88 -107.5t-30 -166q0 -74 29 -140t84.5 -107t134.5 -41t133.5 47.5t83.5 129.5t29 186v102q0 165 -48.5 289.5t-133 213t-193 146.5t-227.5 88zM434 1041l-76 108l555 363l75 -108z" />
    <glyph glyph-name="ntilde" unicode="&#xf1;" horiz-adv-x="1141" 
d="M368 0h-248v1082h233l15 -231v-851zM244 579q1 157 55 274.5t151 183t226 65.5q105 0 182 -39.5t120 -128t43 -237.5v-697h-249v699q0 75 -21.5 119t-64 62.5t-103.5 18.5q-62 0 -109.5 -24.5t-81 -68.5t-51 -102t-17.5 -124zM942 1514q0 -73 -29 -131t-79 -91.5
t-114 -33.5q-50 0 -83.5 14t-61.5 31.5t-57 31t-70 13.5q-38 0 -64 -28t-26 -74l-151 8q0 73 29.5 131.5t79 93t113.5 34.5q41 0 74.5 -13.5t64 -31t62.5 -31t71 -13.5q38 0 64.5 28t26.5 74z" />
    <glyph glyph-name="ograve" unicode="&#xf2;" horiz-adv-x="1163" 
d="M77 551q0 158 60 282t172.5 196.5t270.5 72.5q160 0 273 -72.5t172.5 -196.5t59.5 -282v-21q0 -157 -59.5 -281.5t-172 -196.5t-271.5 -72t-272 72t-173 196.5t-60 281.5v21zM325 530q0 -96 27 -175.5t83.5 -127.5t146.5 -48q89 0 145.5 48t83 127.5t26.5 175.5v21
q0 95 -26.5 175t-83.5 128.5t-147 48.5q-89 0 -145.5 -48.5t-83 -128.5t-26.5 -175v-21zM706 1233h-206l-270 303h280z" />
    <glyph glyph-name="oacute" unicode="&#xf3;" horiz-adv-x="1163" 
d="M77 551q0 158 60 282t172.5 196.5t270.5 72.5q160 0 273 -72.5t172.5 -196.5t59.5 -282v-21q0 -157 -59.5 -281.5t-172 -196.5t-271.5 -72t-272 72t-173 196.5t-60 281.5v21zM325 530q0 -96 27 -175.5t83.5 -127.5t146.5 -48q89 0 145.5 48t83 127.5t26.5 175.5v21
q0 95 -26.5 175t-83.5 128.5t-147 48.5q-89 0 -145.5 -48.5t-83 -128.5t-26.5 -175v-21zM648 1536h279l-274 -303h-200z" />
    <glyph glyph-name="ocircumflex" unicode="&#xf4;" horiz-adv-x="1163" 
d="M77 551q0 158 60 282t172.5 196.5t270.5 72.5q160 0 273 -72.5t172.5 -196.5t59.5 -282v-21q0 -157 -59.5 -281.5t-172 -196.5t-271.5 -72t-272 72t-173 196.5t-60 281.5v21zM325 530q0 -96 27 -175.5t83.5 -127.5t146.5 -48q89 0 145.5 48t83 127.5t26.5 175.5v21
q0 95 -26.5 175t-83.5 128.5t-147 48.5q-89 0 -145.5 -48.5t-83 -128.5t-26.5 -175v-21zM928 1259v-11h-199l-153 155l-152 -155h-196v14l275 274h146z" />
    <glyph glyph-name="otilde" unicode="&#xf5;" horiz-adv-x="1163" 
d="M77 551q0 158 60 282t172.5 196.5t270.5 72.5q160 0 273 -72.5t172.5 -196.5t59.5 -282v-21q0 -157 -59.5 -281.5t-172 -196.5t-271.5 -72t-272 72t-173 196.5t-60 281.5v21zM325 530q0 -96 27 -175.5t83.5 -127.5t146.5 -48q89 0 145.5 48t83 127.5t26.5 175.5v21
q0 95 -26.5 175t-83.5 128.5t-147 48.5q-89 0 -145.5 -48.5t-83 -128.5t-26.5 -175v-21zM944 1514q0 -73 -29 -131t-79 -91.5t-114 -33.5q-50 0 -83.5 14t-61.5 31.5t-57 31t-70 13.5q-38 0 -64 -28t-26 -74l-151 8q0 73 29.5 131.5t79 93t113.5 34.5q41 0 74.5 -13.5
t64 -31t62.5 -31t71 -13.5q38 0 64.5 28t26.5 74z" />
    <glyph glyph-name="odieresis" unicode="&#xf6;" horiz-adv-x="1163" 
d="M77 551q0 158 60 282t172.5 196.5t270.5 72.5q160 0 273 -72.5t172.5 -196.5t59.5 -282v-21q0 -157 -59.5 -281.5t-172 -196.5t-271.5 -72t-272 72t-173 196.5t-60 281.5v21zM325 530q0 -96 27 -175.5t83.5 -127.5t146.5 -48q89 0 145.5 48t83 127.5t26.5 175.5v21
q0 95 -26.5 175t-83.5 128.5t-147 48.5q-89 0 -145.5 -48.5t-83 -128.5t-26.5 -175v-21zM217 1368q0 50 35 84.5t92 34.5q58 0 93 -34.5t35 -84.5q0 -49 -35 -83.5t-93 -34.5q-57 0 -92 34.5t-35 83.5zM682 1367q0 49 34 84t92 35t93 -35t35 -84q0 -50 -35 -84t-93 -34
t-92 34t-34 84z" />
    <glyph glyph-name="divide" unicode="&#xf7;" horiz-adv-x="1169" 
d="M1082 583h-1015v212h1015v-212zM434 1093q0 59 38 97.5t105 38.5q68 0 106.5 -38.5t38.5 -97.5q0 -58 -38.5 -96t-106.5 -38q-67 0 -105 38t-38 96zM434 280q0 58 38 96.5t105 38.5q68 0 106.5 -38.5t38.5 -96.5t-38.5 -96t-106.5 -38q-67 0 -105 38t-38 96z" />
    <glyph glyph-name="oslash" unicode="&#xf8;" horiz-adv-x="1159" 
d="M327 -139h-146l663 1352h146zM77 551q0 158 60 282t172.5 196.5t270.5 72.5q160 0 273 -72.5t172.5 -196.5t59.5 -282v-21q0 -157 -59.5 -281.5t-172 -196.5t-271.5 -72t-272 72t-173 196.5t-60 281.5v21zM325 530q0 -96 27 -175.5t83.5 -127.5t146.5 -48q89 0 145.5 48
t83 127.5t26.5 175.5v21q0 95 -26.5 175t-83.5 128.5t-147 48.5q-89 0 -145.5 -48.5t-83 -128.5t-26.5 -175v-21z" />
    <glyph glyph-name="ugrave" unicode="&#xf9;" horiz-adv-x="1140" 
d="M771 1082h248v-1082h-234l-14 256v826zM888 484q0 -146 -43 -259.5t-134 -179t-236 -65.5q-160 0 -259 94t-99 309v699h248v-701q0 -75 23.5 -118.5t62.5 -61.5t86 -18q101 0 159.5 39.5t83.5 107.5t25 152zM701 1233h-206l-270 303h280z" />
    <glyph glyph-name="uacute" unicode="&#xfa;" horiz-adv-x="1140" 
d="M771 1082h248v-1082h-234l-14 256v826zM888 484q0 -146 -43 -259.5t-134 -179t-236 -65.5q-160 0 -259 94t-99 309v699h248v-701q0 -75 23.5 -118.5t62.5 -61.5t86 -18q101 0 159.5 39.5t83.5 107.5t25 152zM643 1536h279l-274 -303h-200z" />
    <glyph glyph-name="ucircumflex" unicode="&#xfb;" horiz-adv-x="1140" 
d="M771 1082h248v-1082h-234l-14 256v826zM888 484q0 -146 -43 -259.5t-134 -179t-236 -65.5q-160 0 -259 94t-99 309v699h248v-701q0 -75 23.5 -118.5t62.5 -61.5t86 -18q101 0 159.5 39.5t83.5 107.5t25 152zM922 1259v-11h-199l-153 155l-152 -155h-196v14l275 274h146z
" />
    <glyph glyph-name="udieresis" unicode="&#xfc;" horiz-adv-x="1140" 
d="M771 1082h248v-1082h-234l-14 256v826zM888 484q0 -146 -43 -259.5t-134 -179t-236 -65.5q-160 0 -259 94t-99 309v699h248v-701q0 -75 23.5 -118.5t62.5 -61.5t86 -18q101 0 159.5 39.5t83.5 107.5t25 152zM212 1368q0 50 35 84.5t92 34.5q58 0 93 -34.5t35 -84.5
q0 -49 -35 -83.5t-93 -34.5q-57 0 -92 34.5t-35 83.5zM677 1367q0 49 34 84t92 35t93 -35t35 -84q0 -50 -35 -84t-93 -34t-92 34t-34 84z" />
    <glyph glyph-name="yacute" unicode="&#xfd;" horiz-adv-x="1004" 
d="M727 1082h265l-433 -1246q-15 -41 -39 -88t-62.5 -89t-96 -69t-138.5 -27q-22 0 -42.5 2.5t-39.5 6.5t-37 9v191q10 -1 24 -2t23 -1q89 0 135 32t71 109l79 209zM530 281l44 -268l-172 -39l-391 1108h268zM588 1536h279l-274 -303h-200z" />
    <glyph glyph-name="thorn" unicode="&#xfe;" horiz-adv-x="1170" 
d="M377 -416h-249v1952h249v-1952zM1079 531q0 -158 -48.5 -282.5t-142.5 -196.5t-229 -72q-136 0 -225.5 66.5t-139.5 183.5t-68 267v71q18 160 68 279.5t139 187t223 67.5q137 0 231 -69t143 -193t49 -288v-21zM831 552q0 97 -25 176t-78 125t-139 46q-63 0 -108 -20.5
t-75.5 -57.5t-47.5 -87.5t-23 -110.5v-181q11 -72 39 -132t81 -95.5t136 -35.5q85 0 137.5 48.5t77.5 128t25 175.5v21z" />
    <glyph glyph-name="ydieresis" unicode="&#xff;" horiz-adv-x="1004" 
d="M727 1082h265l-433 -1246q-15 -41 -39 -88t-62.5 -89t-96 -69t-138.5 -27q-22 0 -42.5 2.5t-39.5 6.5t-37 9v191q10 -1 24 -2t23 -1q89 0 135 32t71 109l79 209zM530 281l44 -268l-172 -39l-391 1108h268zM157 1368q0 50 35 84.5t92 34.5q58 0 93 -34.5t35 -84.5
q0 -49 -35 -83.5t-93 -34.5q-57 0 -92 34.5t-35 83.5zM622 1367q0 49 34 84t92 35t93 -35t35 -84q0 -50 -35 -84t-93 -34t-92 34t-34 84z" />
    <glyph glyph-name="dotlessi" unicode="&#x131;" horiz-adv-x="540" 
d="M391 0h-248v1082h248v-1082z" />
    <glyph glyph-name="OE" unicode="&#x152;" horiz-adv-x="1972" 
d="M684 1477q76 0 150.5 -6.5t141.5 -14.5v-207q-66 12 -140 19.5t-152 7.5q-103 0 -178.5 -44t-116.5 -131.5t-41 -218.5v-306q0 -130 41.5 -219t117.5 -133.5t179 -44.5q78 0 151.5 8t138.5 20v-207q-67 -7 -140.5 -14t-149.5 -7q-174 0 -305.5 75.5t-206 210.5t-74.5 311
v304q0 177 74 311.5t205 210t305 75.5zM1846 0h-769v207h769v-207zM1148 0h-258v1456h258v-1456zM1745 648h-668v204h668v-204zM1840 1248h-763v208h763v-208z" />
    <glyph glyph-name="oe" unicode="&#x153;" horiz-adv-x="1852" 
d="M1354 -21q-156 0 -269 70t-174 191.5t-61 273.5v41q0 158 61 282t169 195t246 70q150 0 250.5 -61t151.5 -170.5t51 -254.5v-146h-810v178h565v26q0 64 -21.5 115.5t-67.5 82.5t-119 31t-124.5 -47.5t-77.5 -126.5t-26 -174v-41q0 -90 30 -166.5t90.5 -122t152.5 -45.5
q109 0 178.5 25.5t125.5 63.5l77 -161q-54 -48 -154 -88.5t-244 -40.5zM89 551q0 158 59 282t170 196.5t269 72.5q160 0 271.5 -72.5t170 -196.5t58.5 -282v-21q0 -157 -58.5 -281.5t-169.5 -197t-270 -72.5t-270.5 72.5t-170.5 197t-59 281.5v21zM337 530
q0 -96 25.5 -175.5t81 -127t145.5 -47.5t145 47.5t80.5 127t25.5 175.5v21q0 95 -26 175t-81 128.5t-146 48.5q-88 0 -143.5 -48.5t-81 -128.5t-25.5 -175v-21z" />
    <glyph glyph-name="longs" unicode="&#x17f;" horiz-adv-x="523" 
d="M135 0v1185q0 180 99.5 276t275.5 96q38 0 76 -6t76 -15l-23 -190q-20 5 -42 8.5t-52 3.5q-79 0 -120.5 -46t-41.5 -127v-1185h-248z" />
    <glyph glyph-name="circumflex" unicode="&#x2c6;" horiz-adv-x="996" 
d="M843 1259v-11h-199l-153 155l-152 -155h-196v14l275 274h146z" />
    <glyph glyph-name="ring" unicode="&#x2da;" horiz-adv-x="685" 
d="M120 1359q0 86 63 146.5t158 60.5q94 0 156.5 -60.5t62.5 -146.5q0 -85 -62.5 -143.5t-156.5 -58.5q-95 0 -158 58.5t-63 143.5zM229 1359q0 -43 31 -76.5t81 -33.5t80.5 33t30.5 77q0 46 -30.5 80t-80.5 34t-81 -34t-31 -80z" />
    <glyph glyph-name="tilde" unicode="&#x2dc;" horiz-adv-x="979" 
d="M855 1514q0 -73 -29 -131t-79 -91.5t-114 -33.5q-50 0 -83.5 14t-61.5 31.5t-57 31t-70 13.5q-38 0 -64 -28t-26 -74l-151 8q0 73 29.5 131.5t79 93t113.5 34.5q41 0 74.5 -13.5t64 -31t62.5 -31t71 -13.5q38 0 64.5 28t26.5 74z" />
    <glyph glyph-name="gravecomb" unicode="&#x300;" horiz-adv-x="0" 
d="M-406 1233h-206l-270 303h280z" />
    <glyph glyph-name="acutecomb" unicode="&#x301;" horiz-adv-x="0" 
d="M-478 1536h279l-274 -303h-200z" />
    <glyph glyph-name="tildecomb" unicode="&#x303;" horiz-adv-x="0" 
d="M-176 1514q0 -73 -29 -131t-79 -91.5t-114 -33.5q-50 0 -83.5 14t-61.5 31.5t-57 31t-70 13.5q-38 0 -64 -28t-26 -74l-151 8q0 73 29.5 131.5t79 93t113.5 34.5q41 0 74.5 -13.5t64 -31t62.5 -31t71 -13.5q38 0 64.5 28t26.5 74z" />
    <glyph glyph-name="alpha" unicode="&#x3b1;" horiz-adv-x="1156" 
d="M84 529q0 168 49 297t143.5 202.5t231.5 73.5q125 0 206.5 -69t127.5 -191t63 -283v-54q-16 -154 -62 -272.5t-128.5 -186t-208.5 -67.5q-135 0 -229.5 68t-143.5 187.5t-49 273.5v21zM333 508q0 -93 23 -167.5t74.5 -118t137.5 -43.5q84 0 136 42t81 113.5t43 157.5v69
q-9 70 -27 132t-48.5 109t-75.5 74t-107 27q-86 0 -138 -51t-75.5 -136t-23.5 -187v-21zM1021 1082v-754q0 -82 21.5 -111t54.5 -29q8 0 14.5 1.5t11.5 2.5l24 -184q-32 -19 -62 -24t-64 -5q-108 0 -172.5 73t-75.5 237v560l35 233h213z" />
    <glyph glyph-name="uni05B0" unicode="&#x5b0;" horiz-adv-x="0" 
d="M616 -329q-38 0 -64 23.5t-26 58.5q0 37 26 60t64 23q40 0 65 -23t25 -60q0 -35 -25 -58.5t-65 -23.5zM616 -582q-38 0 -64 23.5t-26 58.5q0 36 26 59.5t64 23.5q40 0 65 -23.5t25 -59.5q0 -35 -25 -58.5t-65 -23.5z" />
    <glyph glyph-name="uni05B1" unicode="&#x5b1;" horiz-adv-x="0" 
d="M362 -329q-38 0 -64 23.5t-26 58.5q0 37 26 60t64 23q40 0 65 -23t25 -60q0 -35 -25.5 -58.5t-64.5 -23.5zM616 -329q-38 0 -64 23.5t-26 58.5q0 37 26 60t64 23q40 0 65 -23t25 -60q0 -35 -25 -58.5t-65 -23.5zM874 -329q-39 0 -65 23.5t-26 58.5q0 37 26 60t65 23
t64.5 -23t25.5 -60q0 -35 -25.5 -58.5t-64.5 -23.5zM490 -545q-39 0 -65 23.5t-26 58.5q0 36 26 59.5t65 23.5t64.5 -23.5t25.5 -59.5q0 -35 -25.5 -58.5t-64.5 -23.5zM874 -582q-39 0 -65 23.5t-26 58.5q0 36 26 59.5t65 23.5t64.5 -23.5t25.5 -59.5q0 -35 -25.5 -58.5
t-64.5 -23.5z" />
    <glyph glyph-name="uni05B2" unicode="&#x5b2;" horiz-adv-x="0" 
d="M278 -303v115h421v-115h-421zM868 -582q-39 0 -65 23.5t-26 58.5q0 36 26 59.5t65 23.5t64.5 -23.5t25.5 -59.5q0 -35 -25.5 -58.5t-64.5 -23.5zM868 -329q-39 0 -65 23.5t-26 58.5q0 37 26 60t65 23t64.5 -23t25.5 -60q0 -35 -25.5 -58.5t-64.5 -23.5z" />
    <glyph glyph-name="uni05B3" unicode="&#x5b3;" horiz-adv-x="0" 
d="M490 -572q-38 0 -64 24t-26 58q0 27 11.5 45t24.5 48.5t17 93.5h-176v115h424v-115h-175q4 -63 17 -93.5t24.5 -48.5t11.5 -45q0 -35 -25 -58.5t-64 -23.5zM868 -582q-39 0 -65 23.5t-26 58.5q0 36 26 59.5t65 23.5t64.5 -23.5t25.5 -59.5q0 -35 -25.5 -58.5t-64.5 -23.5
zM868 -329q-39 0 -65 23.5t-26 58.5q0 37 26 60t65 23t64.5 -23t25.5 -60q0 -35 -25.5 -58.5t-64.5 -23.5z" />
    <glyph glyph-name="uni05B4" unicode="&#x5b4;" horiz-adv-x="0" 
d="M616 -329q-38 0 -64 24.5t-26 57.5q0 37 26 60t64 23q40 0 65 -23t25 -60q0 -35 -25 -58.5t-65 -23.5z" />
    <glyph glyph-name="uni05B5" unicode="&#x5b5;" horiz-adv-x="0" 
d="M743 -329q-39 0 -65 24.5t-26 57.5q0 37 26 60t65 23t64.5 -23t25.5 -60q0 -35 -25.5 -58.5t-64.5 -23.5zM490 -329q-39 0 -65 24.5t-26 57.5q0 37 26 60t65 23t64.5 -23t25.5 -60q0 -35 -25.5 -58.5t-64.5 -23.5z" />
    <glyph glyph-name="uni05B6" unicode="&#x5b6;" horiz-adv-x="0" 
d="M743 -329q-39 0 -65 24.5t-26 57.5q0 37 26 60t65 23t64.5 -23t25.5 -60q0 -35 -25.5 -58.5t-64.5 -23.5zM616 -545q-38 0 -64 23.5t-26 58.5q0 36 26 59.5t64 23.5q40 0 65 -23.5t25 -59.5q0 -35 -25 -58.5t-65 -23.5zM490 -329q-39 0 -65 24.5t-26 57.5q0 37 26 60
t65 23t64.5 -23t25.5 -60q0 -35 -25.5 -58.5t-64.5 -23.5z" />
    <glyph glyph-name="uni05B7" unicode="&#x5b7;" horiz-adv-x="0" 
d="M395 -303v115h443v-115h-443z" />
    <glyph glyph-name="uni05B8" unicode="&#x5b8;" horiz-adv-x="0" 
d="M618 -562q-39 0 -65 24.5t-26 57.5q0 27 12 45t25 46.5t17 85.5h-165v115h401v-115h-163q5 -57 18 -85.5t24.5 -46.5t11.5 -45q0 -35 -25.5 -58.5t-64.5 -23.5z" />
    <glyph glyph-name="uni05B9" unicode="&#x5b9;" horiz-adv-x="0" 
d="M283 1342q-39 0 -65 24.5t-26 57.5q0 36 26 59.5t65 23.5q40 0 65.5 -23.5t25.5 -59.5q0 -35 -25.5 -58.5t-65.5 -23.5z" />
    <glyph glyph-name="holamhaserhebrew" unicode="&#x5ba;" horiz-adv-x="0" 
d="M283 1342q-39 0 -65 24.5t-26 57.5q0 36 26 59.5t65 23.5q40 0 65.5 -23.5t25.5 -59.5q0 -35 -25.5 -58.5t-65.5 -23.5z" />
    <glyph glyph-name="uni05BB" unicode="&#x5bb;" horiz-adv-x="0" 
d="M617 -329q-39 0 -65 24.5t-26 57.5q0 37 26 60t65 23t64.5 -23t25.5 -60q0 -35 -25.5 -58.5t-64.5 -23.5zM884 -749q-38 0 -64 24.5t-26 57.5q0 37 26 60.5t64 23.5q40 0 65.5 -23.5t25.5 -60.5q0 -35 -25.5 -58.5t-65.5 -23.5zM751 -538q-39 0 -65 24t-26 57
q0 36 26 59.5t65 23.5q38 0 64 -24t26 -59t-26 -58t-64 -23z" />
    <glyph glyph-name="uni05BC" unicode="&#x5bc;" horiz-adv-x="0" 
d="M326 518q-39 0 -65 24.5t-26 58.5q0 35 26 58.5t65 23.5t65 -23.5t26 -58.5t-26 -59t-65 -24z" />
    <glyph glyph-name="uni05BE" unicode="&#x5be;" horiz-adv-x="556" 
d="M496 990h-436v199h436v-199z" />
    <glyph glyph-name="uni05BF" unicode="&#x5bf;" horiz-adv-x="0" 
d="M230 1362v135h538v-135h-538z" />
    <glyph glyph-name="uni05C1" unicode="&#x5c1;" horiz-adv-x="0" 
d="M1378 1342q-39 0 -65 24.5t-26 57.5q0 36 26 59.5t65 23.5t65 -23.5t26 -59.5q0 -35 -26 -58.5t-65 -23.5z" />
    <glyph glyph-name="uni05C2" unicode="&#x5c2;" horiz-adv-x="0" 
d="M263 1342q-38 0 -64 24.5t-26 57.5q0 36 26 59.5t64 23.5q40 0 65.5 -23.5t25.5 -59.5q0 -35 -25.5 -58.5t-65.5 -23.5z" />
    <glyph glyph-name="qamatsqatanhebrew" unicode="&#x5c7;" horiz-adv-x="0" 
d="M618 -596q-39 0 -65 24.5t-26 57.5q0 31 15.5 54.5t27.5 62.5q5 14 8 42t3 52h-165v115h401v-115h-163q0 -22 4 -50t8 -43q13 -40 27.5 -63.5t14.5 -54.5q0 -35 -25.5 -58.5t-64.5 -23.5z" />
    <glyph glyph-name="uni05D0" unicode="&#x5d0;" horiz-adv-x="1347" 
d="M971 0l-842 1189h284l841 -1189h-283zM175 0v411q0 175 62 278t200 152l93 -128q-110 -58 -110 -199v-514h-245zM1263 1189l-401 -735l-165 198l281 537h285z" />
    <glyph glyph-name="uni05D1" unicode="&#x5d1;" horiz-adv-x="1098" 
d="M56 0v200h608l253 9l141 -18v-191h-1002zM664 58v700q0 120 -57 176t-181 56h-305v199h322q229 0 351.5 -113t122.5 -328v-690h-253z" />
    <glyph glyph-name="uni05D2" unicode="&#x5d2;" horiz-adv-x="853" 
d="M79 -11q-15 0 -31.5 1t-31.5 4v230q20 -3 40 -4.5t37 -1.5q87 2 151.5 33t107 86.5t63.5 127.5v525h-264v199h514v-607q0 -96 19 -187l81 -395h-235l-70 316h-7q-14 -89 -66 -163.5t-131.5 -119t-176.5 -44.5z" />
    <glyph glyph-name="uni05D3" unicode="&#x5d3;" horiz-adv-x="1116" 
d="M60 1189h990v-199h-204v-990h-254v990h-532v199z" />
    <glyph glyph-name="uni05D4" unicode="&#x5d4;" horiz-adv-x="1243" 
d="M847 0v758q0 120 -57.5 176t-180.5 56h-463v199h479q231 0 353.5 -113t122.5 -328v-748h-254zM145 0v407q0 114 22.5 169.5t40.5 84.5h203q-9 -42 -15 -97.5t-6 -133.5v-430h-245z" />
    <glyph glyph-name="uni05D5" unicode="&#x5d5;" horiz-adv-x="633" 
d="M207 0v990h-120v199h374v-1189h-254z" />
    <glyph glyph-name="uni05D6" unicode="&#x5d6;" horiz-adv-x="762" 
d="M293 0l-147 981l-75 16v192h622l-1 -199h-296l157 -990h-260z" />
    <glyph glyph-name="uni05D7" unicode="&#x5d7;" horiz-adv-x="1272" 
d="M172 0l1 1189h484q235 0 353 -113t119 -339v-737h-253v756q0 121 -52.5 177.5t-164.5 56.5h-233l-1 -990h-253z" />
    <glyph glyph-name="uni05D8" unicode="&#x5d8;" horiz-adv-x="1287" 
d="M670 -23q-149 0 -261 62t-174.5 174t-62.5 260v716h253v-741q0 -123 67.5 -198.5t176.5 -75.5q110 0 177 75.5t67 198.5v368q0 87 -38 132.5t-111 45.5q-27 0 -59 -7t-66 -20l-29 165q52 32 116 51t122 19q149 0 234 -97.5t85 -267.5v-364q0 -148 -62 -260t-173.5 -174
t-261.5 -62z" />
    <glyph glyph-name="uni05D9" unicode="&#x5d9;" horiz-adv-x="663" 
d="M254 518v472h-201v199h455v-671h-254z" />
    <glyph glyph-name="uni05DA" unicode="&#x5da;" horiz-adv-x="1043" 
d="M622 -416v1406h-555v199h805v-1605h-250z" />
    <glyph glyph-name="uni05DB" unicode="&#x5db;" horiz-adv-x="1117" 
d="M414 -18q-78 0 -163.5 13t-178.5 36l39 187q159 -39 274 -38q156 2 231.5 74.5t75.5 208.5v527h-576v199h830v-678q0 -184 -66 -301t-185 -172.5t-281 -55.5z" />
    <glyph glyph-name="uni05DC" unicode="&#x5dc;" horiz-adv-x="1085" 
d="M73 990v546h254v-347h596v-199h-850zM1014 1028l-414 -1028h-270l491 1189h193v-161z" />
    <glyph glyph-name="uni05DD" unicode="&#x5dd;" horiz-adv-x="1327" 
d="M172 0v1189h983v-1189h-983zM425 200h477v790h-477v-790z" />
    <glyph glyph-name="uni05DE" unicode="&#x5de;" horiz-adv-x="1332" 
d="M163 0l83 710q10 81 43.5 154t78.5 113q4 4 8.5 7.5t7.5 5.5l-1 4q-41 -7 -102 -23.5t-108 -33.5l-55 186q77 28 170.5 48.5t191 32.5t184.5 12q257 0 391 -133.5t135 -392.5v-690h-506v199h253v523q0 138 -59.5 211.5t-168.5 73.5q-91 0 -147 -70.5t-69 -196.5l-80 -740
h-250z" />
    <glyph glyph-name="uni05DF" unicode="&#x5df;" horiz-adv-x="623" 
d="M202 -416v1406h-123v199h373v-1605h-250z" />
    <glyph glyph-name="uni05E0" unicode="&#x5e0;" horiz-adv-x="783" 
d="M271 -20q-56 0 -105 6.5t-106 18.5l3 193q68 -11 145 -11q75 0 112 42t37 130v631h-220v199h474v-850q0 -173 -89 -266t-251 -93z" />
    <glyph glyph-name="uni05E1" unicode="&#x5e1;" horiz-adv-x="1316" 
d="M675 -23q-153 0 -269.5 69t-182 193.5t-67.5 289.5l-1 96q0 67 18.5 136.5t51 127t70.5 90.5q4 3 7.5 6t7.5 5l-1 4q-34 -4 -86 -17.5t-95 -24.5l-48 186q79 24 175 41.5t195.5 27t187.5 9.5q176 0 300.5 -65.5t190 -189.5t65.5 -303v-129q0 -165 -64.5 -289.5
t-181.5 -193.5t-273 -69zM674 188q80 0 140 42.5t93.5 119t33.5 178.5v126q0 112 -32.5 191t-93.5 120.5t-147 41.5q-79 0 -137 -43.5t-89 -125t-33 -197.5v-113q0 -102 33 -178.5t93 -119t139 -42.5z" />
    <glyph glyph-name="uni05E2" unicode="&#x5e2;" horiz-adv-x="1237" 
d="M510 -27q-99 0 -212 19.5t-238 65.5l56 187q104 -40 193.5 -59.5t164.5 -20.5q154 0 246 80.5t92 236.5v707h253v-696q0 -170 -70 -286t-195.5 -175t-289.5 -59zM119 1189h254l184 -857q14 -66 34 -115t58 -89l-194 2q-46 34 -88 91t-59 133z" />
    <glyph glyph-name="uni05E3" unicode="&#x5e3;" horiz-adv-x="1252" 
d="M1081 1189v-1605h-251v1406h-342q-17 -37 -29.5 -83.5t-19.5 -95.5t-7 -96v-118q23 -8 56 -11t74 -2v-188q-79 -6 -145.5 -1.5t-123 21t-106.5 45.5l-2 175q-1 66 9.5 131.5t30 123.5t45.5 99h-133v199h944z" />
    <glyph glyph-name="uni05E4" unicode="&#x5e4;" horiz-adv-x="1324" 
d="M599 -23q-93 0 -204 18t-212 53l48 187q96 -28 191 -41.5t162 -13.5q154 2 234.5 74t80.5 209v527h-411q-26 -56 -41 -125t-15 -140v-74q23 -7 55.5 -10t74.5 -3v-187q-79 -7 -146 -2.5t-123.5 21.5t-105.5 46l-3 130q0 99 22.5 191t63.5 153h-134v199h1016v-685
q0 -184 -73 -300.5t-198 -172t-282 -54.5z" />
    <glyph glyph-name="uni05E5" unicode="&#x5e5;" horiz-adv-x="1144" 
d="M582 -416v741q0 69 -37 125l-502 739h284l328 -521l104 -150q34 -49 49 -100.5t15 -118.5v-715h-241zM716 466l-157 203l264 520h285z" />
    <glyph glyph-name="uni05E6" unicode="&#x5e6;" horiz-adv-x="1165" 
d="M129 0v200h586l-672 989h284l337 -525l377 -545v-119h-912zM716 466l-157 203l264 520h285z" />
    <glyph glyph-name="uni05E7" unicode="&#x5e7;" horiz-adv-x="1308" 
d="M589 0v195q135 5 214 84.5t79 225.5v485h-711v199h965v-679q0 -158 -67 -270.5t-189.5 -173.5t-290.5 -66zM187 -416v846q0 113 22.5 168.5t39.5 84.5h205q-11 -42 -16.5 -97t-5.5 -133v-869h-245z" />
    <glyph glyph-name="uni05E8" unicode="&#x5e8;" horiz-adv-x="1012" 
d="M616 0v806q0 87 -50 135.5t-141 48.5h-378v199h393q201 0 315.5 -105t114.5 -293v-791h-254z" />
    <glyph glyph-name="uni05E9" unicode="&#x5e9;" horiz-adv-x="1705" 
d="M417 1189v-938q89 -38 191.5 -60.5t193.5 -22.5q139 0 248.5 39.5t173 122.5t63.5 212v647h246v-674q0 -138 -57 -241t-156.5 -171.5t-229.5 -102t-277 -33.5q-155 0 -322 37.5t-319 109.5v1075h245zM668 355q28 39 42.5 109t14.5 155v570h246v-519q0 -101 -24 -184
t-71 -134z" />
    <glyph glyph-name="uni05EA" unicode="&#x5ea;" horiz-adv-x="1302" 
d="M689 1189q234 0 352.5 -113t118.5 -339v-737h-252l-2 756q0 121 -52 177.5t-164 56.5h-160q-24 -55 -37.5 -129.5t-13.5 -147.5v-369q0 -173 -87.5 -265.5t-247.5 -92.5q-36 0 -67.5 3t-66.5 8v199q17 -2 34 -2.5t33 -0.5q79 0 117 41t38 128v329q0 74 19.5 158.5
t58.5 140.5h-203v199h582z" />
    <glyph glyph-name="uni05F0" unicode="&#x5f0;" horiz-adv-x="1266" 
d="M840 0v990h-120v199h374v-1189h-254zM207 0v990h-120v199h374v-1189h-254z" />
    <glyph glyph-name="uni05F1" unicode="&#x5f1;" horiz-adv-x="1297" 
d="M887 518v472h-201v199h455v-671h-254zM207 0v990h-120v199h374v-1189h-254z" />
    <glyph glyph-name="uni05F2" unicode="&#x5f2;" horiz-adv-x="1328" 
d="M917 518v472h-201v199h455v-671h-254zM254 518v472h-201v199h455v-671h-254z" />
    <glyph glyph-name="uni05F3" unicode="&#x5f3;" horiz-adv-x="407" 
d="M170 879l-153 64q47 64 73.5 141t26.5 153v201h228l-1 -180q0 -70 -22.5 -140.5t-61.5 -132t-90 -106.5z" />
    <glyph glyph-name="uni05F4" unicode="&#x5f4;" horiz-adv-x="811" 
d="M190 879l-153 64q47 64 73 141t26 153v201h228l-1 -180q0 -70 -22.5 -140.5t-61 -132t-89.5 -106.5zM558 879l-154 64q48 64 74 141t26 153v201h228l-1 -180q0 -70 -22.5 -140.5t-61 -132t-89.5 -106.5z" />
    <glyph glyph-name="uni1E9E" unicode="&#x1e9e;" horiz-adv-x="1362" 
d="M361 0h-248v960h248v-960zM113 958q0 172 53.5 287t161 173t269.5 58q175 0 312 -66.5t262 -171.5l-430 -512h-156v122l283 334q-49 38 -114 66.5t-157 28.5q-87 0 -138.5 -38.5t-74.5 -110.5t-23 -170h-248zM538 228q36 -16 93 -32.5t127 -16.5q127 0 197.5 64t70.5 169
q0 96 -34 154t-101 84.5t-166 26.5h-140v167l165 9q250 0 386.5 -113t136.5 -326q0 -141 -65.5 -238t-177.5 -147t-253 -50q-91 0 -167 15t-143 40z" />
    <glyph glyph-name="uni200C" unicode="&#x200c;" horiz-adv-x="0" 
d="M-666 1232h168v-1432h-168v1432z" />
    <glyph glyph-name="afii57598" unicode="&#x200d;" horiz-adv-x="0" 
d="M-667 1230h167v-1430h-167v1430zM-408 923l-471 481l124 120l470 -481zM-879 1043l472 481l122 -120l-470 -481z" />
    <glyph glyph-name="afii57596" unicode="&#x200e;" horiz-adv-x="0" 
d="M-853 1325h547v-159h-547v159zM-608 1004l300 299l127 -58l-226 -241h-201zM-401 1497l220 -252l-129 -56l-293 308h202zM-853 1288h167v-1488h-167v1488z" />
    <glyph glyph-name="uni200F" unicode="&#x200f;" horiz-adv-x="0" 
d="M-272 1325h-548v-159h548v159zM-518 1004l-299 299l-128 -58l226 -241h201zM-725 1497l-220 -252l130 -56l292 308h-202zM-272 1288h-168v-1488h168v1488z" />
    <glyph glyph-name="endash" unicode="&#x2013;" horiz-adv-x="1315" 
d="M1177.41 619h-1021.21v201h1021.21v-201z" />
    <glyph glyph-name="emdash" unicode="&#x2014;" horiz-adv-x="1578" 
d="M1485.18 619h-1361.58v201h1361.58v-201z" />
    <glyph glyph-name="quoteleft" unicode="&#x2018;" horiz-adv-x="452" 
d="M101 1197q0 64 23 132t63.5 130t93.5 106l124 -77q-41 -62 -66.5 -131.5t-25.5 -157.5v-141h-212v139z" />
    <glyph glyph-name="quoteright" unicode="&#x2019;" horiz-adv-x="447" 
d="M358 1392q0 -63 -23 -131.5t-63.5 -130t-93.5 -106.5l-124 77q41 62 66.5 131.5t25.5 158.5v145h212v-144z" />
    <glyph glyph-name="quotesinglbase" unicode="&#x201a;" horiz-adv-x="468" 
d="M358 71q0 -63 -23 -131t-63.5 -130t-93.5 -106l-124 76q41 63 64 132.5t23 157.5v140h217v-139z" />
    <glyph glyph-name="quotedblleft" unicode="&#x201c;" horiz-adv-x="790" 
d="M110 1197q0 64 23 132t63.5 130t93.5 106l124 -77q-41 -62 -66.5 -131.5t-25.5 -157.5v-141h-212v139zM443 1197q0 64 23 132t63.5 130t93.5 106l124 -77q-41 -62 -66.5 -131.5t-25.5 -157.5v-141h-212v139z" />
    <glyph glyph-name="quotedblright" unicode="&#x201d;" horiz-adv-x="796" 
d="M371 1392q0 -63 -23 -131.5t-63.5 -130t-93.5 -106.5l-124 77q41 62 66.5 131.5t25.5 158.5v145h212v-144zM703 1392q0 -63 -23 -131.5t-63.5 -130t-93.5 -106.5l-124 77q41 62 66.5 131.5t25.5 158.5v145h212v-144z" />
    <glyph glyph-name="quotedblbase" unicode="&#x201e;" horiz-adv-x="779" 
d="M358 71q0 -66 -22 -138t-61.5 -137t-92.5 -112l-128 77q41 66 64 140.5t23 168.5v186h217v-185zM683 71q0 -66 -23 -138t-63.5 -137t-93.5 -112l-128 77q41 66 66 140.5t25 168.5v186h218z" />
    <glyph glyph-name="bullet" unicode="&#x2022;" horiz-adv-x="718" 
d="M137 769q0 95 60 156t163 61q105 0 165 -61t60 -156v-39q0 -95 -60 -155t-164 -60q-103 0 -163.5 60t-60.5 155v39z" />
    <glyph glyph-name="ellipsis" unicode="&#x2026;" horiz-adv-x="1457" 
d="M138 124q0 59 38.5 98.5t105.5 39.5q68 0 106.5 -39.5t38.5 -98.5q0 -57 -38.5 -96t-106.5 -39q-67 0 -105.5 39t-38.5 96zM597 124q0 59 38.5 98.5t105.5 39.5q68 0 106.5 -39.5t38.5 -98.5q0 -57 -38.5 -96t-106.5 -39q-67 0 -105.5 39t-38.5 96zM1042 124
q0 59 38.5 98.5t105.5 39.5q68 0 106.5 -39.5t38.5 -98.5q0 -57 -38.5 -96t-106.5 -39q-67 0 -105.5 39t-38.5 96z" />
    <glyph glyph-name="guilsinglleft" unicode="&#x2039;" horiz-adv-x="629" 
d="M314 531l-206 1v13l287 390h169zM564 137h-169l-287 389v13l206 1z" />
    <glyph glyph-name="guilsinglright" unicode="&#x203a;" horiz-adv-x="617" 
d="M334 539l205 -1v-13l-286 -389h-169zM253 934l286 -390v-13l-205 -1l-250 404h169z" />
    <glyph glyph-name="fraction" unicode="&#x2044;" horiz-adv-x="921" 
d="M169 110l-126 72l711 1138l126 -72z" />
    <glyph glyph-name="uni2070" unicode="&#x2070;" 
d="M682 983q0 -168 -83.5 -247.5t-218.5 -79.5t-220 79.5t-85 247.5v155q0 167 84 248t219 81q136 0 220 -81t84 -248v-155zM496 1149q0 89 -31 128t-87 39q-55 0 -85.5 -39t-30.5 -128v-175q0 -91 31 -129.5t87 -38.5q55 0 85.5 38.5t30.5 129.5v175z" />
    <glyph glyph-name="uni2074" unicode="&#x2074;" 
d="M703 831h-639l-10 121l365 504h147l-160 -255l-171 -218h468v-152zM607 667h-187v789h187v-789z" />
    <glyph glyph-name="uni2075" unicode="&#x2075;" 
d="M98 1051l52 405h493v-149h-340l-22 -149q16 6 53 16.5t81 10.5q130 0 200.5 -66.5t70.5 -188.5q0 -71 -32.5 -133.5t-99.5 -101.5t-171 -39q-77 0 -146 27.5t-112.5 80t-46.5 124.5h186q3 -45 35.5 -63.5t83.5 -18.5q66 0 91 37t25 88q0 55 -33 89t-99 34
q-52 0 -78 -13.5t-43 -26.5z" />
    <glyph glyph-name="uni2076" unicode="&#x2076;" 
d="M563 1470v-153h-11q-87 0 -152 -22.5t-101 -77t-36 -151.5v-118q0 -73 34.5 -107.5t93.5 -34.5q54 0 87.5 35.5t33.5 88.5q0 55 -32 84.5t-91 29.5q-40 0 -71 -14.5t-48.5 -35.5t-18.5 -42l-48 33q1 46 29.5 93.5t82.5 81t131 33.5q124 0 188 -74.5t64 -189.5
q0 -78 -38 -140t-106 -97.5t-158 -35.5q-94 0 -166 36t-112.5 106.5t-40.5 176.5v53q0 113 33.5 196.5t95.5 138t145.5 81t183.5 26.5h28z" />
    <glyph glyph-name="uni2077" unicode="&#x2077;" 
d="M686 1351l-339 -684h-196l338 639h-435v150h632v-105z" />
    <glyph glyph-name="uni2078" unicode="&#x2078;" 
d="M683 884q0 -113 -86.5 -170.5t-216.5 -57.5t-217.5 57.5t-87.5 170.5q0 105 87 163.5t216 58.5q132 0 218.5 -58.5t86.5 -163.5zM497 901q0 46 -33 69.5t-86 23.5q-52 0 -84 -23.5t-32 -69.5q0 -44 32.5 -69.5t85.5 -25.5t85 25.5t32 69.5zM664 1245q0 -95 -79.5 -151
t-204.5 -56t-205.5 56t-80.5 151q0 109 80 165.5t204 56.5q125 0 205.5 -56.5t80.5 -165.5zM478 1233q0 39 -26 62t-74 23q-46 0 -72 -22.5t-26 -62.5q0 -39 26 -63.5t74 -24.5q47 0 72.5 24.5t25.5 63.5z" />
    <glyph glyph-name="uni2079" unicode="&#x2079;" 
d="M227 805q87 0 145.5 19.5t88.5 68t30 134.5v154q0 71 -33 103.5t-86 32.5t-84.5 -40t-31.5 -96q0 -55 31 -88t92 -33q40 0 67.5 14t42.5 34.5t15 37.5l55 -29q1 -49 -30.5 -94.5t-83 -74t-114.5 -28.5q-82 0 -140.5 31t-89.5 90t-31 142q0 78 38 142t106 103t158 39
q89 0 158 -35t108 -107t39 -181v-54q0 -116 -31 -198.5t-89.5 -134.5t-141.5 -76t-187 -24h-15v148h14z" />
    <glyph glyph-name="zerosub" unicode="&#x2080;" 
d="M682 -48q0 -168 -83.5 -247.5t-218.5 -79.5t-220 79.5t-85 247.5v155q0 167 84 248t219 81q136 0 220 -81t84 -248v-155zM496 118q0 89 -31 128t-87 39q-55 0 -85.5 -39t-30.5 -128v-175q0 -91 31 -129.5t87 -38.5q55 0 85.5 38.5t30.5 129.5v175z" />
    <glyph glyph-name="uni2081" unicode="&#x2081;" 
d="M515 -364h-185v570l-199 -48v147l366 119h18v-788z" />
    <glyph glyph-name="twosub" unicode="&#x2082;" 
d="M690 -364h-612v126l288 263q60 54 85.5 97t25.5 70q0 43 -27.5 69t-79.5 26q-63 0 -93 -35.5t-30 -84.5h-187q0 74 36.5 135t104.5 97.5t162 36.5q142 0 221 -64t79 -179q0 -56 -23.5 -102.5t-69 -92.5t-113.5 -102l-137 -111h370v-149z" />
    <glyph glyph-name="threesub" unicode="&#x2083;" 
d="M357 102q64 0 94.5 26.5t30.5 70.5q0 34 -26.5 61t-89.5 27q-47 0 -80 -19.5t-33 -54.5h-187q0 71 41 121t108 76t146 26q137 0 222.5 -57t85.5 -168q0 -58 -35.5 -101.5t-98.5 -67.5t-147 -24h-118v84h87zM270 57h118q93 0 159 -20.5t101 -64.5t35 -115
q0 -111 -92 -171.5t-229 -60.5q-75 0 -145.5 24.5t-116 77.5t-45.5 139h186q0 -37 35.5 -64t94.5 -27q64 0 94.5 28t30.5 69q0 56 -37 79t-102 23h-87v83z" />
    <glyph glyph-name="foursub" unicode="&#x2084;" 
d="M703 -200h-639l-10 121l365 504h147l-160 -255l-171 -218h468v-152zM607 -364h-187v789h187v-789z" />
    <glyph glyph-name="fivesub" unicode="&#x2085;" 
d="M98 20l52 405h493v-149h-340l-22 -149q16 6 53 16.5t81 10.5q130 0 200.5 -66.5t70.5 -188.5q0 -71 -32.5 -133.5t-99.5 -101.5t-171 -39q-77 0 -146 27.5t-112.5 80t-46.5 124.5h186q3 -45 35.5 -63.5t83.5 -18.5q66 0 91 37t25 88q0 55 -33 89t-99 34q-52 0 -78 -13.5
t-43 -26.5z" />
    <glyph glyph-name="uni2086" unicode="&#x2086;" 
d="M563 439v-153h-11q-87 0 -152 -22.5t-101 -77t-36 -151.5v-118q0 -73 34.5 -107.5t93.5 -34.5q54 0 87.5 35.5t33.5 88.5q0 55 -32 84.5t-91 29.5q-40 0 -71 -14.5t-48.5 -35.5t-18.5 -42l-48 33q1 46 29.5 93.5t82.5 81t131 33.5q124 0 188 -74.5t64 -189.5
q0 -78 -38 -140t-106 -97.5t-158 -35.5q-94 0 -166 36t-112.5 106.5t-40.5 176.5v53q0 113 33.5 196.5t95.5 138t145.5 81t183.5 26.5h28z" />
    <glyph glyph-name="sevensub" unicode="&#x2087;" 
d="M686 320l-339 -684h-196l338 639h-435v150h632v-105z" />
    <glyph glyph-name="eightsub" unicode="&#x2088;" 
d="M683 -147q0 -113 -86.5 -170.5t-216.5 -57.5t-217.5 57.5t-87.5 170.5q0 105 87 163.5t216 58.5q132 0 218.5 -58.5t86.5 -163.5zM497 -130q0 46 -33 69.5t-86 23.5q-52 0 -84 -23.5t-32 -69.5q0 -44 32.5 -69.5t85.5 -25.5t85 25.5t32 69.5zM664 214q0 -95 -79.5 -151
t-204.5 -56t-205.5 56t-80.5 151q0 109 80 165.5t204 56.5q125 0 205.5 -56.5t80.5 -165.5zM478 202q0 39 -26 62t-74 23q-46 0 -72 -22.5t-26 -62.5q0 -39 26 -63.5t74 -24.5q47 0 72.5 24.5t25.5 63.5z" />
    <glyph glyph-name="uni2089" unicode="&#x2089;" 
d="M227 -226q87 0 145.5 19.5t88.5 68t30 134.5v154q0 71 -33 103.5t-86 32.5t-84.5 -40t-31.5 -96q0 -55 31 -88t92 -33q40 0 67.5 14t42.5 34.5t15 37.5l55 -29q1 -49 -30.5 -94.5t-83 -74t-114.5 -28.5q-82 0 -140.5 31t-89.5 90t-31 142q0 78 38 142t106 103t158 39
q89 0 158 -35t108 -107t39 -181v-54q0 -116 -31 -198.5t-89.5 -134.5t-141.5 -76t-187 -24h-15v148h14z" />
    <glyph glyph-name="uni20AA" unicode="&#x20aa;" horiz-adv-x="1831" 
d="M576 0v796h234v-590h282q143 -1 238 79.5t95 228.5v677h234v-672q1 -161 -67 -277.5t-197 -179t-311 -62.5h-508zM142 0v1191h1083v-535q0 -40 -5 -84.5t-15.5 -88t-27.5 -82.5l-203 -33l-12 10q14 58 21.5 125t7.5 134v348h-615v-985h-234z" />
    <glyph glyph-name="Euro" unicode="&#x20ac;" horiz-adv-x="1165" 
d="M845 187q54 0 105 8t97 24l29 -209q-57 -14 -120.5 -22t-128.5 -8q-165 0 -291.5 63.5t-199 190t-72.5 314.5v340q0 195 73 325.5t202.5 196.5t298.5 66q62 0 120.5 -8.5t117.5 -22.5l-29 -210q-44 15 -95.5 24t-103.5 9q-152 0 -238.5 -90t-86.5 -288v-342
q0 -130 40.5 -209.5t112.5 -115.5t169 -36zM877 797h-785v140h785v-140zM877 526h-785v141h785v-141z" />
    <glyph glyph-name="minus" unicode="&#x2212;" horiz-adv-x="1152" 
d="M1007 619h-851v201h851v-201z" />
    <glyph glyph-name="divisionslash" unicode="&#x2215;" horiz-adv-x="758" 
d="M192 -125h-193l566 1581h193z" />
    <glyph glyph-name="fi" unicode="&#xfb01;" horiz-adv-x="1201" 
d="M190 0v1147q0 199 117.5 304.5t324.5 105.5q80 0 155 -17t155 -43l-37 -204q-50 17 -112.5 32t-143.5 15q-108 0 -159.5 -48.5t-51.5 -144.5v-1147h-248zM653 899h-628v183h628v-183zM1060 0h-249v1082h249v-1082z" />
    <glyph glyph-name="longst" unicode="&#xfb05;" horiz-adv-x="1300" 
d="M399 899h-357v183h357v-183zM582 1557q120 0 241.5 -31.5t217.5 -72.5v-208h-248v81q-24 12 -74.5 22t-101.5 10q-79 0 -120.5 -46t-41.5 -127v-1185h-248v1185q0 180 99.5 276t275.5 96zM1233 899h-614v183h614v-183zM1041 1347v-1042q0 -50 14.5 -75.5t40 -34.5
t60.5 -9q25 0 48 3t36 6l1 -191q-31 -10 -70.5 -17t-91.5 -7q-84 0 -148.5 30t-101 97.5t-36.5 179.5v1060h248z" />
    <glyph glyph-name="st" unicode="&#xfb06;" horiz-adv-x="1722" 
d="M840 758q-39 109 -83 194.5t-75 160.5t-31 151q0 82 46.5 148t134.5 106t213 40t207.5 -34t130.5 -90t68 -125t20 -139h-248q0 66 -22.5 110t-63.5 66.5t-97 22.5q-57 0 -93.5 -21t-54 -56t-17.5 -77q0 -59 13.5 -109.5t31 -102t31 -110.5t13.5 -135h-124zM1662 899h-608
v183h608v-183zM1471 1171v-849q0 -80 31 -108t82 -28q25 0 48.5 3t37.5 6v-191q-30 -10 -70 -17t-92 -7q-126 0 -205.5 79t-79.5 262v850h248zM727 295q0 34 -17.5 62t-67.5 52t-147 44q-115 24 -202.5 64t-136 103t-48.5 154q0 88 50.5 162.5t145 120t223.5 45.5
q136 0 234 -45.5t150.5 -123t52.5 -175.5h-248q0 64 -47.5 112.5t-142.5 48.5q-59 0 -98.5 -19t-59 -49t-19.5 -66q0 -35 19.5 -61t67 -46t133.5 -38q124 -26 214 -65.5t138.5 -104t48.5 -163.5q0 -95 -54.5 -169t-153 -116t-232.5 -42q-149 0 -251 53t-154.5 135.5
t-52.5 171.5h239q4 -64 36.5 -103t82 -56.5t103.5 -17.5q64 0 106.5 17t65 46.5t22.5 68.5z" />
    <glyph glyph-name="uniFB1F" unicode="&#xfb1f;" horiz-adv-x="1328" 
d="M917 518v472h-201v199h455v-671h-254zM254 518v472h-201v199h455v-671h-254zM162 -303v115h443v-115h-443z" />
    <glyph glyph-name="uniFB20" unicode="&#xfb20;" horiz-adv-x="1269" 
d="M510 -39q-201 0 -450 92l56 187q104 -40 193.5 -60t164.5 -21q154 0 242.5 81t95.5 236l32 713h253l-33 -701q-12 -255 -159.5 -391t-394.5 -136zM136 1189h255l182 -857q15 -65 35 -114t58 -90l-193 2q-46 33 -88 90t-60 134z" />
    <glyph glyph-name="widealefhebrew" unicode="&#xfb21;" horiz-adv-x="1850" 
d="M1389 0l-1260 1189h336l1269 -1189h-345zM208 0v572q0 163 68.5 270.5t206.5 164.5l67 -90q-46 -66 -71.5 -145.5t-25.5 -203.5v-568h-245zM1286 294l-166 198l362 697h283z" />
    <glyph glyph-name="widedalethebrew" unicode="&#xfb22;" horiz-adv-x="1396" 
d="M60 1189h1270v-188l-249 -25v-976h-253v990h-768v199z" />
    <glyph glyph-name="widehehebrew" unicode="&#xfb23;" horiz-adv-x="1648" 
d="M144 0v397q0 61 8.5 108.5t18.5 79.5t14 44l227 32l11 -11q-6 -26 -13 -68.5t-12 -91.5t-5 -98v-392h-249zM1252 0v806q0 87 -50 135.5t-140 48.5h-915v199h928q203 0 317 -105t114 -293v-791h-254z" />
    <glyph glyph-name="widekafhebrew" unicode="&#xfb24;" horiz-adv-x="1558" 
d="M674 -36q-126 0 -283.5 18.5t-318.5 54.5l37 199q160 -32 305.5 -48.5t250.5 -16.5q244 0 355.5 81.5t112.5 237.5v500h-1020v199h1273v-701q0 -176 -85.5 -292.5t-244.5 -174t-382 -57.5z" />
    <glyph glyph-name="widelamedhebrew" unicode="&#xfb25;" horiz-adv-x="1439" 
d="M1092 990h-1019v492h254v-293h1000zM1367 1028l-596 -1028h-269l672 1189h193v-161z" />
    <glyph glyph-name="finalwidememhebrew" unicode="&#xfb26;" horiz-adv-x="1794" 
d="M133 0v1189h1507v-1189h-1507zM386 200h1000v790h-1000v-790z" />
    <glyph glyph-name="widereshhebrew" unicode="&#xfb27;" horiz-adv-x="1410" 
d="M1015 0v806q0 87 -50 135.5t-141 48.5h-777v199h790q203 0 317 -105t114 -293v-791h-253z" />
    <glyph glyph-name="widetavhebrew" unicode="&#xfb28;" horiz-adv-x="1789" 
d="M1176 1189q234 0 352.5 -113t118.5 -339v-737h-253l-1 756q0 121 -52.5 177.5t-163.5 56.5h-647q-24 -55 -37.5 -129.5t-13.5 -147.5v-369q0 -173 -87.5 -265.5t-247.5 -92.5q-36 0 -67.5 3t-66.5 8v199q17 -2 34 -2.5t33 -0.5q79 0 117 41t38 128v329q0 74 19.5 158.5
t58.5 140.5h-203v199h1069z" />
    <glyph glyph-name="alternativeplushebrew" unicode="&#xfb29;" horiz-adv-x="1115" 
d="M439 1206h229v-420h388v-211h-998v211h381v420z" />
    <glyph glyph-name="uniFB2A" unicode="&#xfb2a;" horiz-adv-x="1705" 
d="M417 1189v-938q89 -38 191.5 -60.5t193.5 -22.5q139 0 248.5 39.5t173 122.5t63.5 212v647h246v-674q0 -138 -57 -241t-156.5 -171.5t-229.5 -102t-277 -33.5q-155 0 -322 37.5t-319 109.5v1075h245zM668 355q28 39 42.5 109t14.5 155v570h246v-519q0 -101 -24 -184
t-71 -134zM1399 1342q-39 0 -65 24.5t-26 57.5q0 36 26 59.5t65 23.5t65 -23.5t26 -59.5q0 -35 -26 -58.5t-65 -23.5z" />
    <glyph glyph-name="uniFB2B" unicode="&#xfb2b;" horiz-adv-x="1705" 
d="M417 1189v-938q89 -38 191.5 -60.5t193.5 -22.5q139 0 248.5 39.5t173 122.5t63.5 212v647h246v-674q0 -138 -57 -241t-156.5 -171.5t-229.5 -102t-277 -33.5q-155 0 -322 37.5t-319 109.5v1075h245zM668 355q28 39 42.5 109t14.5 155v570h246v-519q0 -101 -24 -184
t-71 -134zM285 1342q-38 0 -64 24.5t-26 57.5q0 36 26 59.5t64 23.5q40 0 65.5 -23.5t25.5 -59.5q0 -35 -25.5 -58.5t-65.5 -23.5z" />
    <glyph glyph-name="uniFB2C" unicode="&#xfb2c;" horiz-adv-x="1705" 
d="M417 1189v-938q89 -38 191.5 -60.5t193.5 -22.5q139 0 248.5 39.5t173 122.5t63.5 212v647h246v-674q0 -138 -57 -241t-156.5 -171.5t-229.5 -102t-277 -33.5q-155 0 -322 37.5t-319 109.5v1075h245zM668 355q28 39 42.5 109t14.5 155v570h246v-519q0 -101 -24 -184
t-71 -134zM1127 520q-39 0 -65 24.5t-26 58.5q0 35 26 58.5t65 23.5t65 -23.5t26 -58.5t-26 -59t-65 -24zM1399 1342q-39 0 -65 24.5t-26 57.5q0 36 26 59.5t65 23.5t65 -23.5t26 -59.5q0 -35 -26 -58.5t-65 -23.5z" />
    <glyph glyph-name="uniFB2D" unicode="&#xfb2d;" horiz-adv-x="1705" 
d="M417 1189v-938q89 -38 191.5 -60.5t193.5 -22.5q139 0 248.5 39.5t173 122.5t63.5 212v647h246v-674q0 -138 -57 -241t-156.5 -171.5t-229.5 -102t-277 -33.5q-155 0 -322 37.5t-319 109.5v1075h245zM668 355q28 39 42.5 109t14.5 155v570h246v-519q0 -101 -24 -184
t-71 -134zM1127 520q-39 0 -65 24.5t-26 58.5q0 35 26 58.5t65 23.5t65 -23.5t26 -58.5t-26 -59t-65 -24zM285 1342q-38 0 -64 24.5t-26 57.5q0 36 26 59.5t64 23.5q40 0 65.5 -23.5t25.5 -59.5q0 -35 -25.5 -58.5t-65.5 -23.5z" />
    <glyph glyph-name="uniFB2E" unicode="&#xfb2e;" horiz-adv-x="1347" 
d="M971 0l-842 1189h284l841 -1189h-283zM175 0v411q0 175 62 278t200 152l93 -128q-110 -58 -110 -199v-514h-245zM1263 1189l-401 -735l-165 198l281 537h285zM467 -303v115h443v-115h-443z" />
    <glyph glyph-name="uniFB2F" unicode="&#xfb2f;" horiz-adv-x="1347" 
d="M971 0l-842 1189h284l841 -1189h-283zM175 0v411q0 175 62 278t200 152l93 -128q-110 -58 -110 -199v-514h-245zM1263 1189l-401 -735l-165 198l281 537h285zM690 -562q-39 0 -65 24.5t-26 57.5q0 27 12 45t25 46.5t17 85.5h-165v115h401v-115h-163q5 -57 18 -85.5
t24.5 -46.5t11.5 -45q0 -35 -25.5 -58.5t-64.5 -23.5z" />
    <glyph glyph-name="uniFB30" unicode="&#xfb30;" horiz-adv-x="1347" 
d="M971 0l-842 1189h284l841 -1189h-283zM175 0v411q0 175 62 278t200 152l93 -128q-110 -58 -110 -199v-514h-245zM1263 1189l-401 -735l-165 198l281 537h285zM604 108q-39 0 -65 24.5t-26 58.5q0 35 26 58.5t65 23.5t65 -23.5t26 -58.5t-26 -59t-65 -24z" />
    <glyph glyph-name="uniFB31" unicode="&#xfb31;" horiz-adv-x="1098" 
d="M56 0v200h608l253 9l141 -18v-191h-1002zM664 58v700q0 120 -57 176t-181 56h-305v199h322q229 0 351.5 -113t122.5 -328v-690h-253zM364 520q-39 0 -65 24.5t-26 58.5q0 35 26 58.5t65 23.5t65 -23.5t26 -58.5t-26 -59t-65 -24z" />
    <glyph glyph-name="uniFB32" unicode="&#xfb32;" horiz-adv-x="853" 
d="M79 -11q-15 0 -31.5 1t-31.5 4v230q20 -3 40 -4.5t37 -1.5q87 2 151.5 33t107 86.5t63.5 127.5v525h-264v199h514v-607q0 -96 19 -187l81 -395h-235l-70 316h-7q-14 -89 -66 -163.5t-131.5 -119t-176.5 -44.5zM184 520q-39 0 -65 24.5t-26 58.5q0 35 26 58.5t65 23.5
t65 -23.5t26 -58.5t-26 -59t-65 -24z" />
    <glyph glyph-name="uniFB33" unicode="&#xfb33;" horiz-adv-x="1116" 
d="M60 1189h990v-199h-204v-990h-254v990h-532v199zM306 520q-39 0 -65 24.5t-26 58.5q0 35 26 58.5t65 23.5t65 -23.5t26 -58.5t-26 -59t-65 -24z" />
    <glyph glyph-name="uniFB34" unicode="&#xfb34;" horiz-adv-x="1243" 
d="M847 0v758q0 120 -57.5 176t-180.5 56h-463v199h479q231 0 353.5 -113t122.5 -328v-748h-254zM145 0v407q0 114 22.5 169.5t40.5 84.5h203q-9 -42 -15 -97.5t-6 -133.5v-430h-245zM620 520q-39 0 -65 24.5t-26 58.5q0 35 26 58.5t65 23.5t65 -23.5t26 -58.5t-26 -59
t-65 -24z" />
    <glyph glyph-name="uniFB35" unicode="&#xfb35;" horiz-adv-x="633" 
d="M207 0v990h-120v199h374v-1189h-254zM47 520q-39 0 -65 24.5t-26 58.5q0 35 26 58.5t65 23.5t65 -23.5t26 -58.5t-26 -59t-65 -24z" />
    <glyph glyph-name="uniFB36" unicode="&#xfb36;" horiz-adv-x="762" 
d="M293 0l-147 981l-75 16v192h622l-1 -199h-296l157 -990h-260zM609 520q-39 0 -65 24.5t-26 58.5q0 35 26 58.5t65 23.5t65 -23.5t26 -58.5t-26 -59t-65 -24z" />
    <glyph glyph-name="uniFB38" unicode="&#xfb38;" horiz-adv-x="1287" 
d="M670 -23q-149 0 -261 62t-174.5 174t-62.5 260v716h253v-741q0 -123 67.5 -198.5t176.5 -75.5q110 0 177 75.5t67 198.5v368q0 87 -38 132.5t-111 45.5q-27 0 -59 -7t-66 -20l-29 165q52 32 116 51t122 19q149 0 234 -97.5t85 -267.5v-364q0 -148 -62 -260t-173.5 -174
t-261.5 -62zM670 520q-39 0 -65 24.5t-26 58.5q0 35 26 58.5t65 23.5t65 -23.5t26 -58.5t-26 -59t-65 -24z" />
    <glyph glyph-name="uniFB39" unicode="&#xfb39;" horiz-adv-x="663" 
d="M254 518v472h-201v199h455v-671h-254zM72 691q-39 0 -65 24.5t-26 58.5q0 35 26 58.5t65 23.5t65 -23.5t26 -58.5t-26 -59t-65 -24z" />
    <glyph glyph-name="uniFB3A" unicode="&#xfb3a;" horiz-adv-x="1043" 
d="M622 -416v1406h-555v199h805v-1605h-250zM317 553q-39 0 -65 24.5t-26 58.5q0 35 26 58.5t65 23.5t65 -23.5t26 -58.5t-26 -59t-65 -24z" />
    <glyph glyph-name="uniFB3B" unicode="&#xfb3b;" horiz-adv-x="1117" 
d="M414 -18q-78 0 -163.5 13t-178.5 36l39 187q159 -39 274 -38q156 2 231.5 74.5t75.5 208.5v527h-576v199h830v-678q0 -184 -66 -301t-185 -172.5t-281 -55.5zM385 520q-39 0 -65 24.5t-26 58.5q0 35 26 58.5t65 23.5t65 -23.5t26 -58.5t-26 -59t-65 -24z" />
    <glyph glyph-name="uniFB3C" unicode="&#xfb3c;" horiz-adv-x="1085" 
d="M73 990v546h254v-347h596v-199h-850zM1014 1028l-414 -1028h-270l491 1189h193v-161zM301 585q-39 0 -65 24.5t-26 58.5q0 35 26 58.5t65 23.5t65 -23.5t26 -58.5t-26 -59t-65 -24z" />
    <glyph glyph-name="uniFB3E" unicode="&#xfb3e;" horiz-adv-x="1332" 
d="M163 0l83 710q10 81 43.5 154t78.5 113q4 4 8.5 7.5t7.5 5.5l-1 4q-41 -7 -102 -23.5t-108 -33.5l-55 186q77 28 170.5 48.5t191 32.5t184.5 12q257 0 391 -133.5t135 -392.5v-690h-506v199h253v523q0 138 -59.5 211.5t-168.5 73.5q-91 0 -147 -70.5t-69 -196.5l-80 -740
h-250zM706 520q-39 0 -65 24.5t-26 58.5q0 35 26 58.5t65 23.5t65 -23.5t26 -58.5t-26 -59t-65 -24z" />
    <glyph glyph-name="uniFB40" unicode="&#xfb40;" horiz-adv-x="783" 
d="M271 -20q-56 0 -105 6.5t-106 18.5l3 193q68 -11 145 -11q75 0 112 42t37 130v631h-220v199h474v-850q0 -173 -89 -266t-251 -93zM154 520q-39 0 -65 24.5t-26 58.5q0 35 26 58.5t65 23.5t65 -23.5t26 -58.5t-26 -59t-65 -24z" />
    <glyph glyph-name="uniFB41" unicode="&#xfb41;" horiz-adv-x="1316" 
d="M675 -23q-153 0 -269.5 69t-182 193.5t-67.5 289.5l-1 96q0 67 18.5 136.5t51 127t70.5 90.5q4 3 7.5 6t7.5 5l-1 4q-34 -4 -86 -17.5t-95 -24.5l-48 186q79 24 175 41.5t195.5 27t187.5 9.5q176 0 300.5 -65.5t190 -189.5t65.5 -303v-129q0 -165 -64.5 -289.5
t-181.5 -193.5t-273 -69zM674 188q80 0 140 42.5t93.5 119t33.5 178.5v126q0 112 -32.5 191t-93.5 120.5t-147 41.5q-79 0 -137 -43.5t-89 -125t-33 -197.5v-113q0 -102 33 -178.5t93 -119t139 -42.5zM676 520q-39 0 -65 24.5t-26 58.5q0 35 26 58.5t65 23.5t65 -23.5
t26 -58.5t-26 -59t-65 -24z" />
    <glyph glyph-name="finalpedageshhebrew" unicode="&#xfb43;" horiz-adv-x="1252" 
d="M1081 1189v-1605h-251v1406h-342q-17 -37 -29.5 -83.5t-19.5 -95.5t-7 -96v-118q23 -8 56 -11t74 -2v-188q-79 -6 -145.5 -1.5t-123 21t-106.5 45.5l-2 175q-1 66 9.5 131.5t30 123.5t45.5 99h-133v199h944zM634 689q-39 0 -65 24.5t-26 58.5q0 35 26 58.5t65 23.5
t65 -23.5t26 -58.5t-26 -59t-65 -24z" />
    <glyph glyph-name="uniFB44" unicode="&#xfb44;" horiz-adv-x="1324" 
d="M599 -23q-93 0 -204 18t-212 53l48 187q96 -28 191 -41.5t162 -13.5q154 2 234.5 74t80.5 209v527h-411q-26 -56 -41 -125t-15 -140v-74q23 -7 55.5 -10t74.5 -3v-187q-79 -7 -146 -2.5t-123.5 21.5t-105.5 46l-3 130q0 99 22.5 191t63.5 153h-134v199h1016v-685
q0 -184 -73 -300.5t-198 -172t-282 -54.5zM672 705q-39 0 -65 24.5t-26 58.5q0 35 26 58.5t65 23.5t65 -23.5t26 -58.5t-26 -59t-65 -24z" />
    <glyph glyph-name="uniFB46" unicode="&#xfb46;" horiz-adv-x="1165" 
d="M129 0v200h586l-672 989h284l337 -525l377 -545v-119h-912zM716 466l-157 203l264 520h285zM307 313q-39 0 -65 24.5t-26 58.5q0 35 26 58.5t65 23.5t65 -23.5t26 -58.5t-26 -59t-65 -24z" />
    <glyph glyph-name="uniFB47" unicode="&#xfb47;" horiz-adv-x="1308" 
d="M589 0v195q135 5 214 84.5t79 225.5v485h-711v199h965v-679q0 -158 -67 -270.5t-189.5 -173.5t-290.5 -66zM187 -416v846q0 113 22.5 168.5t39.5 84.5h205q-11 -42 -16.5 -97t-5.5 -133v-869h-245zM654 520q-39 0 -65 24.5t-26 58.5q0 35 26 58.5t65 23.5t65 -23.5
t26 -58.5t-26 -59t-65 -24z" />
    <glyph glyph-name="uniFB48" unicode="&#xfb48;" horiz-adv-x="1012" 
d="M616 0v806q0 87 -50 135.5t-141 48.5h-378v199h393q201 0 315.5 -105t114.5 -293v-791h-254zM312 520q-39 0 -65 24.5t-26 58.5q0 35 26 58.5t65 23.5t65 -23.5t26 -58.5t-26 -59t-65 -24z" />
    <glyph glyph-name="uniFB49" unicode="&#xfb49;" horiz-adv-x="1705" 
d="M417 1189v-938q89 -38 191.5 -60.5t193.5 -22.5q139 0 248.5 39.5t173 122.5t63.5 212v647h246v-674q0 -138 -57 -241t-156.5 -171.5t-229.5 -102t-277 -33.5q-155 0 -322 37.5t-319 109.5v1075h245zM668 355q28 39 42.5 109t14.5 155v570h246v-519q0 -101 -24 -184
t-71 -134zM1127 520q-39 0 -65 24.5t-26 58.5q0 35 26 58.5t65 23.5t65 -23.5t26 -58.5t-26 -59t-65 -24z" />
    <glyph glyph-name="uniFB4A" unicode="&#xfb4a;" horiz-adv-x="1302" 
d="M689 1189q234 0 352.5 -113t118.5 -339v-737h-252l-2 756q0 121 -52 177.5t-164 56.5h-160q-24 -55 -37.5 -129.5t-13.5 -147.5v-369q0 -173 -87.5 -265.5t-247.5 -92.5q-36 0 -67.5 3t-66.5 8v199q17 -2 34 -2.5t33 -0.5q79 0 117 41t38 128v329q0 74 19.5 158.5
t58.5 140.5h-203v199h582zM692 520q-39 0 -65 24.5t-26 58.5q0 35 26 58.5t65 23.5t65 -23.5t26 -58.5t-26 -59t-65 -24z" />
    <glyph glyph-name="uniFB4B" unicode="&#xfb4b;" horiz-adv-x="633" 
d="M207 0v990h-120v199h374v-1189h-254zM277 1342q-39 0 -65 24.5t-26 57.5q0 36 26 59.5t65 23.5q40 0 65.5 -23.5t25.5 -59.5q0 -35 -25.5 -58.5t-65.5 -23.5z" />
    <glyph glyph-name="uniFB4C" unicode="&#xfb4c;" horiz-adv-x="1098" 
d="M56 0v200h608l253 9l141 -18v-191h-1002zM664 58v700q0 120 -57 176t-181 56h-305v199h322q229 0 351.5 -113t122.5 -328v-690h-253zM228 1362v135h538v-135h-538z" />
    <glyph glyph-name="uniFB4D" unicode="&#xfb4d;" horiz-adv-x="1117" 
d="M414 -18q-78 0 -163.5 13t-178.5 36l39 187q159 -39 274 -38q156 2 231.5 74.5t75.5 208.5v527h-576v199h830v-678q0 -184 -66 -301t-185 -172.5t-281 -55.5zM230 1362v135h538v-135h-538z" />
    <glyph glyph-name="uniFB4E" unicode="&#xfb4e;" horiz-adv-x="1324" 
d="M599 -23q-93 0 -204 18t-212 53l48 187q96 -28 191 -41.5t162 -13.5q154 2 234.5 74t80.5 209v527h-411q-26 -56 -41 -125t-15 -140v-74q23 -7 55.5 -10t74.5 -3v-187q-79 -7 -146 -2.5t-123.5 21.5t-105.5 46l-3 130q0 99 22.5 191t63.5 153h-134v199h1016v-685
q0 -184 -73 -300.5t-198 -172t-282 -54.5zM385 1362v135h538v-135h-538z" />
    <glyph glyph-name="uniFB4F" unicode="&#xfb4f;" horiz-adv-x="1233" 
d="M844 0l-771 1095v387h254v-343l798 -1139h-281zM1148 1189l-400 -735l-165 198l281 537h284z" />
    <glyph glyph-name="zero.sup" 
d="M682 316q0 -168 -83.5 -247.5t-218.5 -79.5t-220 79.5t-85 247.5v155q0 167 84 248t219 81q136 0 220 -81t84 -248v-155zM496 482q0 89 -31 128t-87 39q-55 0 -85.5 -39t-30.5 -128v-175q0 -91 31 -129.5t87 -38.5q55 0 85.5 38.5t30.5 129.5v175z" />
    <glyph glyph-name="one.sup" 
d="M515 0h-185v570l-199 -48v147l366 119h18v-788z" />
    <glyph glyph-name="two.sup" 
d="M690 0h-612v126l288 263q60 54 85.5 97t25.5 70q0 43 -27.5 69t-79.5 26q-63 0 -93 -35.5t-30 -84.5h-187q0 74 36.5 135t104.5 97.5t162 36.5q142 0 221 -64t79 -179q0 -56 -23.5 -102.5t-69 -92.5t-113.5 -102l-137 -111h370v-149z" />
    <glyph glyph-name="three.sup" 
d="M357 466q64 0 94.5 26.5t30.5 70.5q0 34 -26.5 61t-89.5 27q-47 0 -80 -19.5t-33 -54.5h-187q0 71 41 121t108 76t146 26q137 0 222.5 -57t85.5 -168q0 -58 -35.5 -101.5t-98.5 -67.5t-147 -24h-118v84h87zM270 421h118q93 0 159 -20.5t101 -64.5t35 -115
q0 -111 -92 -171.5t-229 -60.5q-75 0 -145.5 24.5t-116 77.5t-45.5 139h186q0 -37 35.5 -64t94.5 -27q64 0 94.5 28t30.5 69q0 56 -37 79t-102 23h-87v83z" />
    <glyph glyph-name="four.sup" 
d="M703 164h-639l-10 121l365 504h147l-160 -255l-171 -218h468v-152zM607 0h-187v789h187v-789z" />
    <glyph glyph-name="five.sup" 
d="M98 384l52 405h493v-149h-340l-22 -149q16 6 53 16.5t81 10.5q130 0 200.5 -66.5t70.5 -188.5q0 -71 -32.5 -133.5t-99.5 -101.5t-171 -39q-77 0 -146 27.5t-112.5 80t-46.5 124.5h186q3 -45 35.5 -63.5t83.5 -18.5q66 0 91 37t25 88q0 55 -33 89t-99 34q-52 0 -78 -13.5
t-43 -26.5z" />
    <glyph glyph-name="six.sup" 
d="M563 803v-153h-11q-87 0 -152 -22.5t-101 -77t-36 -151.5v-118q0 -73 34.5 -107.5t93.5 -34.5q54 0 87.5 35.5t33.5 88.5q0 55 -32 84.5t-91 29.5q-40 0 -71 -14.5t-48.5 -35.5t-18.5 -42l-48 33q1 46 29.5 93.5t82.5 81t131 33.5q124 0 188 -74.5t64 -189.5
q0 -78 -38 -140t-106 -97.5t-158 -35.5q-94 0 -166 36t-112.5 106.5t-40.5 176.5v53q0 113 33.5 196.5t95.5 138t145.5 81t183.5 26.5h28z" />
    <glyph glyph-name="seven.sup" 
d="M686 684l-339 -684h-196l338 639h-435v150h632v-105z" />
    <glyph glyph-name="eight.sup" 
d="M683 217q0 -113 -86.5 -170.5t-216.5 -57.5t-217.5 57.5t-87.5 170.5q0 105 87 163.5t216 58.5q132 0 218.5 -58.5t86.5 -163.5zM497 234q0 46 -33 69.5t-86 23.5q-52 0 -84 -23.5t-32 -69.5q0 -44 32.5 -69.5t85.5 -25.5t85 25.5t32 69.5zM664 578q0 -95 -79.5 -151
t-204.5 -56t-205.5 56t-80.5 151q0 109 80 165.5t204 56.5q125 0 205.5 -56.5t80.5 -165.5zM478 566q0 39 -26 62t-74 23q-46 0 -72 -22.5t-26 -62.5q0 -39 26 -63.5t74 -24.5q47 0 72.5 24.5t25.5 63.5z" />
    <glyph glyph-name="nine.sup" 
d="M227 138q87 0 145.5 19.5t88.5 68t30 134.5v154q0 71 -33 103.5t-86 32.5t-84.5 -40t-31.5 -96q0 -55 31 -88t92 -33q40 0 67.5 14t42.5 34.5t15 37.5l55 -29q1 -49 -30.5 -94.5t-83 -74t-114.5 -28.5q-82 0 -140.5 31t-89.5 90t-31 142q0 78 38 142t106 103t158 39
q89 0 158 -35t108 -107t39 -181v-54q0 -116 -31 -198.5t-89.5 -134.5t-141.5 -76t-187 -24h-15v148h14z" />
    <glyph glyph-name="crossbar" horiz-adv-x="955" 
d="M817 650h-675v170h675v-170z" />
    </font>
</defs>
</svg>
