<?xml version="1.0" encoding="UTF-8"?>
<svg width="20px" height="20px" viewBox="0 0 20 20" version="1.1" xmlns="http://www.w3.org/2000/svg" xmlns:xlink="http://www.w3.org/1999/xlink">
    <title>icon / arrow</title>
    <g id="icon-/-arrow" stroke="none" stroke-width="1" fill="none" fill-rule="evenodd">
        <path d="M10,0 C15.5228475,0 20,4.4771525 20,10 C20,15.5228475 15.5228475,20 10,20 C4.4771525,20 0,15.5228475 0,10 C0,4.4771525 4.4771525,0 10,0 Z M10,2 C5.581722,2 2,5.581722 2,10 C2,14.418278 5.581722,18 10,18 C14.418278,18 18,14.418278 18,10 C18,5.581722 14.418278,2 10,2 Z M10.6128994,5.60970461 L10.7071068,5.69289322 L14.3071068,9.29289322 C14.3355731,9.32135953 14.3623312,9.35153408 14.387214,9.38324992 L14.3071068,9.29289322 C14.3425008,9.32828727 14.374687,9.36567442 14.4036654,9.40469339 C14.4215099,9.42886931 14.4382813,9.45372505 14.4539326,9.47933981 C14.4613931,9.49138689 14.4685012,9.50360556 14.4753288,9.5159379 C14.4862061,9.53570605 14.4966234,9.5561086 14.5063462,9.57690085 C14.514321,9.5939015 14.5218036,9.61120435 14.5287745,9.62866398 C14.5366843,9.6484208 14.5438775,9.66820232 14.5504533,9.68826359 C14.5552713,9.70314866 14.5599023,9.71853672 14.5641549,9.73400703 C14.5701664,9.75556352 14.5753602,9.77725392 14.5798348,9.7992059 C14.5832978,9.81662474 14.5863719,9.83405099 14.5889822,9.85153313 C14.5920328,9.87147534 14.5944666,9.89211395 14.5962623,9.91293499 C14.5978436,9.93173451 14.5989053,9.94973363 14.5994829,9.96774538 C14.5998183,9.97778921 14.6,9.98887338 14.6,10 L14.5994506,10.0332468 C14.5988772,10.050591 14.597855,10.0679231 14.596384,10.0852242 L14.6,10 C14.6,10.0506203 14.5962388,10.1003621 14.5889807,10.1489612 C14.5863719,10.165949 14.5832978,10.1833753 14.5797599,10.2007258 C14.5753602,10.2227461 14.5701664,10.2444365 14.564279,10.2658396 C14.5599023,10.2814633 14.5552713,10.2968513 14.5502619,10.3121425 C14.5438775,10.3317977 14.5366843,10.3515792 14.528896,10.3710585 C14.5218036,10.3887956 14.514321,10.4060985 14.5063266,10.4232215 C14.4966234,10.4438914 14.4862061,10.4642939 14.4751242,10.484277 C14.4685012,10.4963944 14.4613931,10.5086131 14.4540045,10.5207088 C14.4382813,10.546275 14.4215099,10.5711307 14.4036865,10.5951593 C14.3992821,10.6012086 14.3948255,10.6070733 14.3902954,10.6128994 C14.3849289,10.6196628 14.3826279,10.6225624 14.3803112,10.625449 L14.3071068,10.7071068 L10.7071068,14.3071068 C10.3165825,14.6976311 9.68341751,14.6976311 9.29289322,14.3071068 C8.93240926,13.9466228 8.90467972,13.3793918 9.20970461,12.9871006 L9.29289322,12.8928932 L11.185,11 L6.4,11 C5.84771525,11 5.4,10.5522847 5.4,10 C5.4,9.48716416 5.78604019,9.06449284 6.28337887,9.00672773 L6.4,9 L11.185,9 L9.29289322,7.10710678 C8.93240926,6.74662282 8.90467972,6.17939176 9.20970461,5.78710056 L9.29289322,5.69289322 C9.65337718,5.33240926 10.2206082,5.30467972 10.6128994,5.60970461 Z" id="Combined-Shape" fill="#ffffff"></path>
    </g>
</svg>