<?xml version="1.0" encoding="UTF-8"?>
<svg width="20px" height="20px" viewBox="0 0 20 20" version="1.1" xmlns="http://www.w3.org/2000/svg" xmlns:xlink="http://www.w3.org/1999/xlink">
    <title>icon / arrow-left</title>
    <g id="icon-/-arrow-left" stroke="none" stroke-width="1" fill="none" fill-rule="evenodd">
        <path d="M8.70710678,2.29289322 C9.06759074,2.65337718 9.09532028,3.22060824 8.79029539,3.61289944 L8.70710678,3.70710678 L3.415,9 L19,9 C19.5522847,9 20,9.44771525 20,10 C20,10.5128358 19.6139598,10.9355072 19.1166211,10.9932723 L19,11 L3.415,11 L8.70710678,16.2928932 C9.06759074,16.6533772 9.09532028,17.2206082 8.79029539,17.6128994 L8.70710678,17.7071068 C8.34662282,18.0675907 7.77939176,18.0953203 7.38710056,17.7902954 L7.29289322,17.7071068 L0.292893219,10.7071068 L0.219688767,10.625449 C0.217372104,10.6225624 0.215071126,10.6196628 0.212785965,10.6167501 L0.292893219,10.7071068 C0.257499166,10.6717127 0.225312953,10.6343256 0.196334578,10.5953066 C0.178490093,10.5711307 0.1617187,10.546275 0.146067433,10.5206602 C0.138606922,10.5086131 0.131498828,10.4963944 0.124671174,10.4840621 C0.11379392,10.4642939 0.103376643,10.4438914 0.0936537803,10.4230991 C0.0856790475,10.4060985 0.0781964242,10.3887956 0.0712254916,10.371336 C0.0633157362,10.3515792 0.0561224864,10.3317977 0.0495466818,10.3117364 C0.0447287157,10.2968513 0.0400977346,10.2814633 0.0358451423,10.265993 C0.0298336259,10.2444365 0.0246397952,10.2227461 0.0201651536,10.2007941 C0.0167021706,10.1833753 0.0136280806,10.165949 0.0110178009,10.1484669 C0.00810097727,10.1294204 0.0057479633,10.1096949 0.00397747606,10.0898018 C0.00189498016,10.0659949 0.000634893312,10.042681 0.000186147798,10.0193545 C6.12825798e-05,10.0129086 0,10.0064615 0,10 L0.000167545257,9.98163795 C0.000599315847,9.95798023 0.00186560354,9.93433491 0.00396640833,9.91074993 L0,10 C0,9.94937972 0.00376118706,9.89963791 0.0110193427,9.85103878 C0.0136280806,9.83405099 0.0167021706,9.81662474 0.020240071,9.79927424 C0.0246397952,9.77725392 0.0298336259,9.75556352 0.0357209664,9.73416039 C0.0400977346,9.71853672 0.0447287157,9.70314866 0.0497380859,9.68785748 C0.0561224864,9.66820232 0.0633157362,9.6484208 0.0711039637,9.62894148 C0.0781964242,9.61120435 0.0856790475,9.5939015 0.0936733617,9.57677845 C0.103376643,9.5561086 0.11379392,9.53570605 0.12487577,9.51572305 C0.131498828,9.50360556 0.138606922,9.49138689 0.145995454,9.47929125 C0.1617187,9.45372505 0.178490093,9.42886931 0.196313506,9.4048407 C0.200717862,9.39879136 0.20517454,9.39292666 0.209704612,9.38710056 C0.237668838,9.35153408 0.264426908,9.32135953 0.292893219,9.29289322 L7.29289322,2.29289322 C7.68341751,1.90236893 8.31658249,1.90236893 8.70710678,2.29289322 Z" id="Combined-Shape" fill="#ffffff"></path>
    </g>
</svg>