<?xml version="1.0" encoding="UTF-8"?>
<svg width="20px" height="20px" viewBox="0 0 20 20" version="1.1" xmlns="http://www.w3.org/2000/svg" xmlns:xlink="http://www.w3.org/1999/xlink">
    <title>icon / building</title>
    <g id="icon-/-building" stroke="none" stroke-width="1" fill="none" fill-rule="evenodd">
        <path d="M10.5,0 C11.0522847,0 11.5,0.44771525 11.5,1 L11.5,8 L19,8 C19.5522847,8 20,8.44771525 20,9 L20,19 C20,19.5522847 19.5522847,20 19,20 L1,20 C0.44771525,20 0,19.5522847 0,19 L0,1 C0,0.44771525 0.44771525,0 1,0 L10.5,0 Z M10,1.5 L1.5,1.5 L1.5,18.5 L3.25,18.5 L3.25,15 C3.25,14.3527913 3.74187466,13.8204661 4.37219476,13.7564536 L4.5,13.75 L7,13.75 C7.64720869,13.75 8.1795339,14.2418747 8.24354639,14.8721948 L8.25,15 L8.25,18.5 L10,18.5 L10,1.5 Z M18.5,9.5 L11.5,9.5 L11.5,18.5 L13,18.5 L13,16.25 C13,15.7371642 13.3860402,15.3144928 13.8833789,15.2567277 L14,15.25 L16,15.25 C16.5128358,15.25 16.9355072,15.6360402 16.9932723,16.1333789 L17,16.25 L17,18.5 L18.5,18.5 L18.5,9.5 Z M15.5,16.75 L14.5,16.75 L14.5,18.5 L15.5,18.5 L15.5,16.75 Z M6.75,15.25 L4.75,15.25 L4.75,18.5 L6.75,18.5 L6.75,15.25 Z M13.75,12.875 C13.9312184,12.875 14.082414,13.0035432 14.1173813,13.1744244 L14.125,13.25 L14.125,13.75 C14.125,13.9312184 13.9964568,14.082414 13.8255756,14.1173813 L13.75,14.125 L13.25,14.125 C13.0687816,14.125 12.917586,13.9964568 12.8826187,13.8255756 L12.875,13.75 L12.875,13.25 C12.875,13.0687816 13.0035432,12.917586 13.1744244,12.8826187 L13.25,12.875 L13.75,12.875 Z M16.5,12.875 C16.6812184,12.875 16.832414,13.0035432 16.8673813,13.1744244 L16.875,13.25 L16.875,13.75 C16.875,13.9312184 16.7464568,14.082414 16.5755756,14.1173813 L16.5,14.125 L16,14.125 C15.8187816,14.125 15.667586,13.9964568 15.6326187,13.8255756 L15.625,13.75 L15.625,13.25 C15.625,13.0687816 15.7535432,12.917586 15.9244244,12.8826187 L16,12.875 L16.5,12.875 Z M3.25,10.875 C3.43121843,10.875 3.58241398,11.0035432 3.61738133,11.1744244 L3.625,11.25 L3.625,11.75 C3.625,11.9312184 3.49645675,12.082414 3.32557558,12.1173813 L3.25,12.125 L2.75,12.125 C2.56878157,12.125 2.41758602,11.9964568 2.38261867,11.8255756 L2.375,11.75 L2.375,11.25 C2.375,11.0687816 2.50354325,10.917586 2.67442442,10.8826187 L2.75,10.875 L3.25,10.875 Z M6,10.875 C6.18121843,10.875 6.33241398,11.0035432 6.36738133,11.1744244 L6.375,11.25 L6.375,11.75 C6.375,11.9312184 6.24645675,12.082414 6.07557558,12.1173813 L6,12.125 L5.5,12.125 C5.31878157,12.125 5.16758602,11.9964568 5.13261867,11.8255756 L5.125,11.75 L5.125,11.25 C5.125,11.0687816 5.25354325,10.917586 5.42442442,10.8826187 L5.5,10.875 L6,10.875 Z M8.75,10.875 C8.93121843,10.875 9.08241398,11.0035432 9.11738133,11.1744244 L9.125,11.25 L9.125,11.75 C9.125,11.9312184 8.99645675,12.082414 8.82557558,12.1173813 L8.75,12.125 L8.25,12.125 C8.06878157,12.125 7.91758602,11.9964568 7.88261867,11.8255756 L7.875,11.75 L7.875,11.25 C7.875,11.0687816 8.00354325,10.917586 8.17442442,10.8826187 L8.25,10.875 L8.75,10.875 Z M13.75,10.875 C13.9312184,10.875 14.082414,11.0035432 14.1173813,11.1744244 L14.125,11.25 L14.125,11.75 C14.125,11.9312184 13.9964568,12.082414 13.8255756,12.1173813 L13.75,12.125 L13.25,12.125 C13.0687816,12.125 12.917586,11.9964568 12.8826187,11.8255756 L12.875,11.75 L12.875,11.25 C12.875,11.0687816 13.0035432,10.917586 13.1744244,10.8826187 L13.25,10.875 L13.75,10.875 Z M16.5,10.875 C16.6812184,10.875 16.832414,11.0035432 16.8673813,11.1744244 L16.875,11.25 L16.875,11.75 C16.875,11.9312184 16.7464568,12.082414 16.5755756,12.1173813 L16.5,12.125 L16,12.125 C15.8187816,12.125 15.667586,11.9964568 15.6326187,11.8255756 L15.625,11.75 L15.625,11.25 C15.625,11.0687816 15.7535432,10.917586 15.9244244,10.8826187 L16,10.875 L16.5,10.875 Z M3.25,8.875 C3.43121843,8.875 3.58241398,9.00354325 3.61738133,9.17442442 L3.625,9.25 L3.625,9.75 C3.625,9.93121843 3.49645675,10.082414 3.32557558,10.1173813 L3.25,10.125 L2.75,10.125 C2.56878157,10.125 2.41758602,9.99645675 2.38261867,9.82557558 L2.375,9.75 L2.375,9.25 C2.375,9.06878157 2.50354325,8.91758602 2.67442442,8.88261867 L2.75,8.875 L3.25,8.875 Z M6,8.875 C6.18121843,8.875 6.33241398,9.00354325 6.36738133,9.17442442 L6.375,9.25 L6.375,9.75 C6.375,9.93121843 6.24645675,10.082414 6.07557558,10.1173813 L6,10.125 L5.5,10.125 C5.31878157,10.125 5.16758602,9.99645675 5.13261867,9.82557558 L5.125,9.75 L5.125,9.25 C5.125,9.06878157 5.25354325,8.91758602 5.42442442,8.88261867 L5.5,8.875 L6,8.875 Z M8.75,8.875 C8.93121843,8.875 9.08241398,9.00354325 9.11738133,9.17442442 L9.125,9.25 L9.125,9.75 C9.125,9.93121843 8.99645675,10.082414 8.82557558,10.1173813 L8.75,10.125 L8.25,10.125 C8.06878157,10.125 7.91758602,9.99645675 7.88261867,9.82557558 L7.875,9.75 L7.875,9.25 C7.875,9.06878157 8.00354325,8.91758602 8.17442442,8.88261867 L8.25,8.875 L8.75,8.875 Z M3.25,6.875 C3.43121843,6.875 3.58241398,7.00354325 3.61738133,7.17442442 L3.625,7.25 L3.625,7.75 C3.625,7.93121843 3.49645675,8.08241398 3.32557558,8.11738133 L3.25,8.125 L2.75,8.125 C2.56878157,8.125 2.41758602,7.99645675 2.38261867,7.82557558 L2.375,7.75 L2.375,7.25 C2.375,7.06878157 2.50354325,6.91758602 2.67442442,6.88261867 L2.75,6.875 L3.25,6.875 Z M6,6.875 C6.18121843,6.875 6.33241398,7.00354325 6.36738133,7.17442442 L6.375,7.25 L6.375,7.75 C6.375,7.93121843 6.24645675,8.08241398 6.07557558,8.11738133 L6,8.125 L5.5,8.125 C5.31878157,8.125 5.16758602,7.99645675 5.13261867,7.82557558 L5.125,7.75 L5.125,7.25 C5.125,7.06878157 5.25354325,6.91758602 5.42442442,6.88261867 L5.5,6.875 L6,6.875 Z M8.75,6.875 C8.93121843,6.875 9.08241398,7.00354325 9.11738133,7.17442442 L9.125,7.25 L9.125,7.75 C9.125,7.93121843 8.99645675,8.08241398 8.82557558,8.11738133 L8.75,8.125 L8.25,8.125 C8.06878157,8.125 7.91758602,7.99645675 7.88261867,7.82557558 L7.875,7.75 L7.875,7.25 C7.875,7.06878157 8.00354325,6.91758602 8.17442442,6.88261867 L8.25,6.875 L8.75,6.875 Z M3.25,4.875 C3.43121843,4.875 3.58241398,5.00354325 3.61738133,5.17442442 L3.625,5.25 L3.625,5.75 C3.625,5.93121843 3.49645675,6.08241398 3.32557558,6.11738133 L3.25,6.125 L2.75,6.125 C2.56878157,6.125 2.41758602,5.99645675 2.38261867,5.82557558 L2.375,5.75 L2.375,5.25 C2.375,5.06878157 2.50354325,4.91758602 2.67442442,4.88261867 L2.75,4.875 L3.25,4.875 Z M6,4.875 C6.18121843,4.875 6.33241398,5.00354325 6.36738133,5.17442442 L6.375,5.25 L6.375,5.75 C6.375,5.93121843 6.24645675,6.08241398 6.07557558,6.11738133 L6,6.125 L5.5,6.125 C5.31878157,6.125 5.16758602,5.99645675 5.13261867,5.82557558 L5.125,5.75 L5.125,5.25 C5.125,5.06878157 5.25354325,4.91758602 5.42442442,4.88261867 L5.5,4.875 L6,4.875 Z M8.75,4.875 C8.93121843,4.875 9.08241398,5.00354325 9.11738133,5.17442442 L9.125,5.25 L9.125,5.75 C9.125,5.93121843 8.99645675,6.08241398 8.82557558,6.11738133 L8.75,6.125 L8.25,6.125 C8.06878157,6.125 7.91758602,5.99645675 7.88261867,5.82557558 L7.875,5.75 L7.875,5.25 C7.875,5.06878157 8.00354325,4.91758602 8.17442442,4.88261867 L8.25,4.875 L8.75,4.875 Z M3.25,2.875 C3.43121843,2.875 3.58241398,3.00354325 3.61738133,3.17442442 L3.625,3.25 L3.625,3.75 C3.625,3.93121843 3.49645675,4.08241398 3.32557558,4.11738133 L3.25,4.125 L2.75,4.125 C2.56878157,4.125 2.41758602,3.99645675 2.38261867,3.82557558 L2.375,3.75 L2.375,3.25 C2.375,3.06878157 2.50354325,2.91758602 2.67442442,2.88261867 L2.75,2.875 L3.25,2.875 Z M6,2.875 C6.18121843,2.875 6.33241398,3.00354325 6.36738133,3.17442442 L6.375,3.25 L6.375,3.75 C6.375,3.93121843 6.24645675,4.08241398 6.07557558,4.11738133 L6,4.125 L5.5,4.125 C5.31878157,4.125 5.16758602,3.99645675 5.13261867,3.82557558 L5.125,3.75 L5.125,3.25 C5.125,3.06878157 5.25354325,2.91758602 5.42442442,2.88261867 L5.5,2.875 L6,2.875 Z M8.75,2.875 C8.93121843,2.875 9.08241398,3.00354325 9.11738133,3.17442442 L9.125,3.25 L9.125,3.75 C9.125,3.93121843 8.99645675,4.08241398 8.82557558,4.11738133 L8.75,4.125 L8.25,4.125 C8.06878157,4.125 7.91758602,3.99645675 7.88261867,3.82557558 L7.875,3.75 L7.875,3.25 C7.875,3.06878157 8.00354325,2.91758602 8.17442442,2.88261867 L8.25,2.875 L8.75,2.875 Z" id="Combined-Shape" fill="#000000"></path>
    </g>
</svg>