<?xml version="1.0" encoding="UTF-8"?>
<svg width="20px" height="20px" viewBox="0 0 20 20" version="1.1" xmlns="http://www.w3.org/2000/svg" xmlns:xlink="http://www.w3.org/1999/xlink">
    <title>icon / calendar</title>
    <g id="icon-/-calendar" stroke="none" stroke-width="1" fill="none" fill-rule="evenodd">
        <path d="M13.7,8.08242362e-14 C14.2128358,8.08242362e-14 14.6355072,0.38604019 14.6932723,0.883378875 L14.7,1 L14.699,2 L17.2,2 C18.6891233,2 19.9067389,3.16246286 19.99489,4.62943181 L20,4.8 L20,17.2 C20,18.7463973 18.7463973,20 17.2,20 L17.2,20 L2.8,20 C1.2536027,20 0,18.7463973 0,17.2 L0,17.2 L0,4.8 C0,3.2536027 1.2536027,2 2.8,2 L2.8,2 L5.5,2 L5.5,1 C5.5,0.44771525 5.94771525,8.08242362e-14 6.5,8.08242362e-14 C7.01283584,8.08242362e-14 7.43550716,0.38604019 7.49327227,0.883378875 L7.5,1 L7.5,2 L12.699,2 L12.7,1 C12.7,0.44771525 13.1477153,8.08242362e-14 13.7,8.08242362e-14 Z M18,9.199 L2,9.2 L2,17.2 C2,17.6418278 2.3581722,18 2.8,18 L2.8,18 L17.2,18 C17.6418278,18 18,17.6418278 18,17.2 L18,17.2 L18,9.199 Z M5.5,4 L2.8,4 C2.3581722,4 2,4.3581722 2,4.8 L2,4.8 L2,7.2 L18,7.199 L18,4.8 C18,4.39215895 17.6948119,4.05559842 17.3003503,4.00623314 L17.2,4 L14.699,4 L14.7,4.6 C14.7,5.15228475 14.2522847,5.6 13.7,5.6 C13.1871642,5.6 12.7644928,5.21395981 12.7067277,4.71662113 L12.7,4.6 L12.699,4 L7.5,4 L7.5,4.6 C7.5,5.15228475 7.05228475,5.6 6.5,5.6 C5.98716416,5.6 5.56449284,5.21395981 5.50672773,4.71662113 L5.5,4.6 L5.5,4 Z" id="Combined-Shape" fill="#cccccc"></path>
    </g>
</svg>