<?xml version="1.0" encoding="UTF-8"?>
<svg width="20px" height="20px" viewBox="0 0 20 20" version="1.1" xmlns="http://www.w3.org/2000/svg" xmlns:xlink="http://www.w3.org/1999/xlink">
    <title>icon / check-1</title>
    <g id="icon-/-check-1" stroke="none" stroke-width="1" fill="none" fill-rule="evenodd">
        <path d="M10,0 C15.5228475,0 20,4.4771525 20,10 C20,15.5228475 15.5228475,20 10,20 C4.4771525,20 0,15.5228475 0,10 C0,4.4771525 4.4771525,0 10,0 Z M14.7505898,6.72287384 C14.4222344,6.42188136 13.8946183,6.42631777 13.5721264,6.73278285 L13.5721264,6.73278285 L8.43750007,11.6123334 L6.42787362,9.70247973 L6.34999521,9.63712003 C6.02538903,9.3971394 5.55250751,9.41473151 5.24941019,9.69257073 C4.92105475,9.99356322 4.91630146,10.4860049 5.2387934,10.7924699 L5.2387934,10.7924699 L7.84295996,13.2672174 L7.9218552,13.3333331 C8.25077062,13.5757577 8.73055559,13.5537191 9.03204017,13.2672174 L9.03204017,13.2672174 L14.7612066,7.82277306 L14.8298204,7.74892078 C15.0810525,7.44168057 15.0536871,7.00071306 14.7505898,6.72287384 Z" id="Combined-Shape" fill="#000000"></path>
    </g>
</svg>