<?xml version="1.0" encoding="UTF-8"?>
<svg width="20px" height="20px" viewBox="0 0 20 20" version="1.1" xmlns="http://www.w3.org/2000/svg" xmlns:xlink="http://www.w3.org/1999/xlink">
    <title>icon / credits</title>
    <g id="icon-/-credits" stroke="none" stroke-width="1" fill="none" fill-rule="evenodd">
        <path d="M10,0 C15.5228475,0 20,4.4771525 20,10 C20,15.5228475 15.5228475,20 10,20 C4.4771525,20 0,15.5228475 0,10 C0,4.4771525 4.4771525,0 10,0 Z M10,2 C5.581722,2 2,5.581722 2,10 C2,14.418278 5.581722,18 10,18 C14.418278,18 18,14.418278 18,10 C18,5.581722 14.418278,2 10,2 Z M7.94576394,6 C8.6668839,6 9.27370263,6.12469383 9.76622013,6.3740815 C10.2587376,6.62346916 10.6397417,6.96370519 10.9092324,7.39478958 C11.1787231,7.82587397 11.3376297,8.31217992 11.3859522,8.85370741 L11.3859522,8.85370741 L9.3006517,8.85370741 L9.29166236,8.68597058 C9.26207717,8.36314806 9.16285301,8.11623246 8.99398986,7.94522378 C8.79698286,7.74571365 8.44757422,7.64595858 7.94576394,7.64595858 C7.64467777,7.64595858 7.39656046,7.71454019 7.20141202,7.85170341 C7.00626358,7.98886662 6.86129616,8.2168782 6.76650978,8.53573814 C6.67172339,8.85459809 6.6243302,9.28835449 6.6243302,9.83700735 L6.6243302,9.83700735 L6.6243302,10.1629927 L6.62689045,10.3925129 C6.63713148,10.8372664 6.67809558,11.1962974 6.74978277,11.4696059 C6.83341781,11.7884658 6.97466811,12.0155867 7.17353367,12.1509686 C7.37239923,12.2863505 7.64096066,12.3540414 7.97921796,12.3540414 C8.25800145,12.3540414 8.49403814,12.3148519 8.68732802,12.2364729 C8.88061791,12.158094 9.02837316,12.0351815 9.13059377,11.8677355 C9.23281439,11.7002895 9.28578325,11.4829659 9.28950036,11.2157649 L9.28950036,11.2157649 L11.3748009,11.2157649 L11.3572773,11.4469211 C11.3062998,11.9012719 11.1597393,12.3078538 10.9175959,12.6666667 C10.6350953,13.0852817 10.2438692,13.4121576 9.74391745,13.6472946 C9.24396573,13.8824315 8.65573256,14 7.97921796,14 C7.24694666,14 6.62061308,13.8459141 6.10021723,13.5377422 C5.57982139,13.2295703 5.18301955,12.7886885 4.90981173,12.2150969 C4.63660391,11.6415052 4.5,10.9574705 4.5,10.1629927 L4.5,10.1629927 L4.5,9.84769539 L4.50670823,9.55369071 C4.53801329,8.87995435 4.67888607,8.29213984 4.92932657,7.79024716 C5.21554429,7.21665553 5.61606324,6.7748831 6.13088342,6.46492986 C6.6457036,6.15497662 7.25066377,6 7.94576394,6 Z M14.9703114,8.00400802 C15.0632392,8.00400802 15.1570963,8.00846137 15.2518827,8.01736807 C15.3466691,8.02627477 15.4293748,8.04319751 15.5,8.06813627 L15.5,8.06813627 L15.466546,9.9492318 L15.4105139,9.94421765 C15.3704976,9.94069896 15.325158,9.93682839 15.2744951,9.93260595 L15.2744951,9.93260595 L15.1515206,9.92251169 C15.0195631,9.91182365 14.9126961,9.90647963 14.8309196,9.90647963 C14.548419,9.90647963 14.3188873,9.94121576 14.1423244,10.010688 C13.9657615,10.0801603 13.8384504,10.1879314 13.760391,10.3340013 L13.760391,10.3340013 L13.760391,13.8931196 L11.7531499,13.8931196 L11.7531499,8.11088844 L13.6265749,8.11088844 L13.6882756,8.83345144 L13.7527245,8.72211089 C13.8498341,8.56936094 13.9611151,8.43865509 14.0865677,8.32999332 C14.3374728,8.11266978 14.6320541,8.00400802 14.9703114,8.00400802 Z" id="Combined-Shape" fill="#ffffff"></path>
    </g>
</svg>