<?xml version="1.0" encoding="UTF-8"?>
<svg width="20px" height="20px" viewBox="0 0 20 20" version="1.1" xmlns="http://www.w3.org/2000/svg" xmlns:xlink="http://www.w3.org/1999/xlink">
    <title>icon / cross</title>
    <g id="icon-/-cross" stroke="none" stroke-width="1" fill="none" fill-rule="evenodd">
        <path d="M10,0 C15.5228475,0 20,4.4771525 20,10 C20,15.5228475 15.5228475,20 10,20 C4.4771525,20 0,15.5228475 0,10 C0,4.4771525 4.4771525,0 10,0 Z M13.8047379,6.19526215 C13.5443883,5.93491262 13.1222783,5.93491262 12.8619288,6.19526215 L12.8619288,6.19526215 L10,9.057 L7.13807119,6.19526215 L7.0752663,6.13980307 C6.81373882,5.93645315 6.43558479,5.9549395 6.19526215,6.19526215 C5.93491262,6.45561167 5.93491262,6.87772166 6.19526215,7.13807119 L6.19526215,7.13807119 L9.057,10 L6.19526215,12.8619288 L6.13980307,12.9247337 C5.93645315,13.1862612 5.9549395,13.5644152 6.19526215,13.8047379 C6.45561167,14.0650874 6.87772166,14.0650874 7.13807119,13.8047379 L7.13807119,13.8047379 L10,10.943 L12.8619288,13.8047379 L12.9247337,13.8601969 C13.1862612,14.0635469 13.5644152,14.0450605 13.8047379,13.8047379 C14.0650874,13.5443883 14.0650874,13.1222783 13.8047379,12.8619288 L13.8047379,12.8619288 L10.943,10 L13.8047379,7.13807119 L13.8601969,7.0752663 C14.0635469,6.81373882 14.0450605,6.43558479 13.8047379,6.19526215 Z" id="Combined-Shape" fill="#ffffff"></path>
    </g>
</svg>