<?xml version="1.0" encoding="UTF-8"?>
<svg width="20px" height="20px" viewBox="0 0 20 20" version="1.1" xmlns="http://www.w3.org/2000/svg" xmlns:xlink="http://www.w3.org/1999/xlink">
    <title>icon / current-location</title>
    <g id="icon-/-current-location" stroke="none" stroke-width="1" fill="none" fill-rule="evenodd">
        <path d="M10,0 C4.47727273,0 0,4.47727273 0,10 C0,15.5229545 4.47727273,20 10,20 C15.5229545,20 20,15.5229545 20,10 C20,4.47727273 15.5229545,0 10,0 Z M10.9090909,18.1302273 L10.9090909,15.4545455 C10.9090909,14.9525 10.5020455,14.5454545 10,14.5454545 C9.49795455,14.5454545 9.09090909,14.9525 9.09090909,15.4545455 L9.09090909,18.1302273 C5.29886364,17.7109091 2.28909091,14.7011364 1.86977273,10.9090909 L4.54545455,10.9090909 C5.0475,10.9090909 5.45454545,10.5020455 5.45454545,10 C5.45454545,9.49795455 5.0475,9.09090909 4.54545455,9.09090909 L1.86977273,9.09090909 C2.28909091,5.29886364 5.29886364,2.28909091 9.09090909,1.86977273 L9.09090909,4.54545455 C9.09090909,5.0475 9.49795455,5.45454545 10,5.45454545 C10.5020455,5.45454545 10.9090909,5.0475 10.9090909,4.54545455 L10.9090909,1.86977273 C14.7011364,2.28909091 17.7109091,5.29886364 18.1302273,9.09090909 L15.4545455,9.09090909 C14.9525,9.09090909 14.5454545,9.49795455 14.5454545,10 C14.5454545,10.5020455 14.9525,10.9090909 15.4545455,10.9090909 L18.1302273,10.9090909 C17.7109091,14.7011364 14.7011364,17.7109091 10.9090909,18.1302273 Z" id="Shape" fill="#cccccc"></path>
    </g>
</svg>