<?xml version="1.0" encoding="UTF-8"?>
<svg width="20px" height="20px" viewBox="0 0 20 20" version="1.1" xmlns="http://www.w3.org/2000/svg" xmlns:xlink="http://www.w3.org/1999/xlink">
    <title>icon / e-mail</title>
    <g id="icon-/-e-mail" stroke="none" stroke-width="1" fill="none" fill-rule="evenodd">
        <path d="M17.2,2 C18.7360785,2 20,3.22881256 20,4.75 L20,4.75 L20,15.25 C20,16.7711874 18.7360785,18 17.2,18 L17.2,18 L2.8,18 C1.26392149,18 3.55271368e-15,16.7711874 3.55271368e-15,15.25 L3.55271368e-15,15.25 L3.55271368e-15,4.75 C3.55271368e-15,3.22881256 1.26392149,2 2.8,2 L2.8,2 Z M18,6.72 L10.5734623,11.9192319 C10.2674,12.1334756 9.87129182,12.1572804 9.54521928,11.9906465 L9.42653766,11.9192319 L2,6.721 L2,15.25 C2,15.6201615 2.29920486,15.9419019 2.69100492,15.9929548 L2.8,16 L17.2,16 C17.6439215,16 18,15.6538126 18,15.25 L18,15.25 L18,6.72 Z M17.2,4 L2.8,4 C2.51052619,4 2.25840434,4.14720329 2.11800919,4.361599 L9.999,9.879 L17.8819908,4.361599 C17.7415957,4.14720329 17.4894738,4 17.2,4 L17.2,4 Z" id="Combined-Shape" fill="#000000"></path>
    </g>
</svg>