<?xml version="1.0" encoding="UTF-8"?>
<svg width="20px" height="20px" viewBox="0 0 20 20" version="1.1" xmlns="http://www.w3.org/2000/svg" xmlns:xlink="http://www.w3.org/1999/xlink">
    <title>icon / home</title>
    <g id="icon-/-home" stroke="none" stroke-width="1" fill="none" fill-rule="evenodd">
        <path d="M3.8,20 C2.2536027,20 1,18.7463973 1,17.2 L1,17.2 L1,7.3 C1,6.99140957 1.14247284,6.70010398 1.38605939,6.51064778 L1.38605939,6.51064778 L9.48605939,0.210647783 C9.84716987,-0.0702159275 10.3528301,-0.0702159275 10.7139406,0.210647783 L10.7139406,0.210647783 L18.8139406,6.51064778 C19.0575272,6.70010398 19.2,6.99140957 19.2,7.3 L19.2,7.3 L19.2,17.2 C19.2,18.7463973 17.9463973,20 16.4,20 L16.4,20 Z M10.1,2.266 L3,7.788 L3,17.2 C3,17.607841 3.30518815,17.9444016 3.6996497,17.9937669 L3.6996497,17.9937669 L3.8,18 L6.4,18 L6.4,10 C6.4,9.48716416 6.78604019,9.06449284 7.28337887,9.00672773 L7.4,9 L12.8,9 C13.3128358,9 13.7355072,9.38604019 13.7932723,9.88337887 L13.8,10 L13.8,18 L16.4,18 C16.807841,18 17.1444016,17.6948119 17.1937669,17.3003503 L17.2,17.2 L17.2,7.789 L10.1,2.266 Z M11.8,11 L8.4,11 L8.4,18 L11.8,18 L11.8,11 Z" id="Combined-Shape" fill="#cccccc"></path>
    </g>
</svg>