<?xml version="1.0" encoding="UTF-8"?>
<svg width="20px" height="20px" viewBox="0 0 20 20" version="1.1" xmlns="http://www.w3.org/2000/svg" xmlns:xlink="http://www.w3.org/1999/xlink">
    <title>icon / information</title>
    <g id="icon-/-information" stroke="none" stroke-width="1" fill="none" fill-rule="evenodd">
        <path d="M10,0 C15.5228475,0 20,4.4771525 20,10 C20,15.5228475 15.5228475,20 10,20 C4.4771525,20 0,15.5228475 0,10 C0,4.4771525 4.4771525,0 10,0 Z M10,2 C5.581722,2 2,5.581722 2,10 C2,14.418278 5.581722,18 10,18 C14.418278,18 18,14.418278 18,10 C18,5.581722 14.418278,2 10,2 Z M10,8 C10.5128358,8 10.9355072,8.38604019 10.9932723,8.88337887 L11,9 L11,14 C11,14.5522847 10.5522847,15 10,15 C9.48716416,15 9.06449284,14.6139598 9.00672773,14.1166211 L9,14 L9,9 C9,8.44771525 9.44771525,8 10,8 Z M10.009,5 C10.5612847,5 11.009,5.44771525 11.009,6 C11.009,6.51283584 10.6229598,6.93550716 10.1256211,6.99327227 L10.009,7 C9.44771525,7 9,6.55228475 9,6 C9,5.48716416 9.38604019,5.06449284 9.88337887,5.00672773 L10.009,5 Z" id="Combined-Shape" fill="#000000"></path>
    </g>
</svg>