<?xml version="1.0" encoding="UTF-8"?>
<svg width="20px" height="20px" viewBox="0 0 20 20" version="1.1" xmlns="http://www.w3.org/2000/svg" xmlns:xlink="http://www.w3.org/1999/xlink">
    <title>icon / location-filled</title>
    <g id="icon-/-location-filled" stroke="none" stroke-width="1" fill="none" fill-rule="evenodd">
        <path d="M10,0 C14.6944203,0 18.5,3.7445275 18.5,8.36363625 C18.5,12.5668468 15.8092307,16.3911607 10.5637442,19.8320503 C10.2223682,20.0559832 9.77763181,20.0559832 9.43625577,19.8320503 C4.19076934,16.3911607 1.5,12.5668468 1.5,8.36363625 C1.5,3.7445275 5.30557965,0 10,0 Z M10,4.9090908 C8.06100028,4.9090908 6.48913043,6.45574348 6.48913043,8.36363625 C6.48913043,10.271529 8.06100028,11.8181817 10,11.8181817 C11.9389997,11.8181817 13.5108696,10.271529 13.5108696,8.36363625 C13.5108696,6.45574348 11.9389997,4.9090908 10,4.9090908 Z" id="Combined-Shape" fill="#000000"></path>
    </g>
</svg>