<?xml version="1.0" encoding="UTF-8"?>
<svg width="20px" height="20px" viewBox="0 0 20 20" version="1.1" xmlns="http://www.w3.org/2000/svg" xmlns:xlink="http://www.w3.org/1999/xlink">
    <title>icon / location</title>
    <g id="icon-/-location" stroke="none" stroke-width="1" fill="none" fill-rule="evenodd">
        <path d="M10,0 C14.6944203,0 18.5,3.7445275 18.5,8.36363625 C18.5,12.5668468 15.8092307,16.3911607 10.5637442,19.8320503 C10.2223682,20.0559832 9.77763181,20.0559832 9.43625577,19.8320503 C4.19076934,16.3911607 1.5,12.5668468 1.5,8.36363625 C1.5,3.7445275 5.30557965,0 10,0 Z M10,2 C6.42815843,2 3.5326087,4.84909701 3.5326087,8.36363625 C3.5326087,11.6160971 5.59540369,14.7190711 9.8366748,17.676408 L9.8366748,17.676408 L9.99935326,17.7879999 L10.1633252,17.676408 C14.2867832,14.8012193 16.3511107,11.7883722 16.4626138,8.6343287 L16.4626138,8.6343287 L16.4673913,8.36363625 C16.4673913,4.84909701 13.5718416,2 10,2 Z M10,4.9090908 C11.9389997,4.9090908 13.5108696,6.45574348 13.5108696,8.36363625 C13.5108696,10.271529 11.9389997,11.8181817 10,11.8181817 C8.06100028,11.8181817 6.48913043,10.271529 6.48913043,8.36363625 C6.48913043,6.45574348 8.06100028,4.9090908 10,4.9090908 Z M10,6.9090908 C9.18357907,6.9090908 8.52173913,7.56031298 8.52173913,8.36363625 C8.52173913,9.16695953 9.18357907,9.81818171 10,9.81818171 C10.8164209,9.81818171 11.4782609,9.16695953 11.4782609,8.36363625 C11.4782609,7.56031298 10.8164209,6.9090908 10,6.9090908 Z" id="Combined-Shape" fill="#000000"></path>
    </g>
</svg>