<?xml version="1.0" encoding="iso-8859-1"?>
<!-- Generator: Adobe Illustrator 19.0.0, SVG Export Plug-In . SVG Version: 6.00 Build 0)  -->
<svg version="1.1" id="Capa_1" xmlns="http://www.w3.org/2000/svg" xmlns:xlink="http://www.w3.org/1999/xlink" x="0px" y="0px"
	 viewBox="0 0 512 512" style="enable-background:new 0 0 512 512;" xml:space="preserve">
<g transform="translate(1 1)">
	<g>
		<g>
			<path d="M489.667-1h-384C93.885-1,84.333,8.551,84.333,20.333v149.333c0,11.782,9.551,21.333,21.333,21.333
				c11.782,0,21.333-9.551,21.333-21.333v-128h341.333v426.667H127v-128c0-11.782-9.551-21.333-21.333-21.333
				c-11.782,0-21.333,9.551-21.333,21.333v149.333c0,11.782,9.551,21.333,21.333,21.333h384c11.782,0,21.333-9.551,21.333-21.333
				V20.333C511,8.551,501.449-1,489.667-1z"/>
			<path d="M197.248,325.251c-8.331,8.331-8.331,21.839,0,30.17c8.331,8.331,21.839,8.331,30.17,0l85.333-85.333
				c0.004-0.004,0.006-0.008,0.01-0.011c0.493-0.494,0.96-1.012,1.403-1.552c0.203-0.247,0.379-0.507,0.569-0.761
				c0.227-0.303,0.462-0.6,0.673-0.916c0.203-0.304,0.379-0.619,0.565-0.931c0.171-0.286,0.35-0.565,0.508-0.859
				c0.17-0.318,0.314-0.644,0.467-0.969c0.145-0.307,0.298-0.609,0.429-0.923c0.13-0.315,0.236-0.637,0.35-0.957
				c0.121-0.337,0.25-0.669,0.354-1.013c0.097-0.32,0.168-0.646,0.249-0.969c0.089-0.351,0.187-0.698,0.258-1.055
				c0.074-0.375,0.119-0.753,0.173-1.13c0.044-0.311,0.104-0.617,0.135-0.933c0.138-1.4,0.138-2.811,0-4.211
				c-0.031-0.315-0.09-0.621-0.135-0.933c-0.054-0.377-0.098-0.756-0.173-1.13c-0.071-0.358-0.169-0.704-0.258-1.055
				c-0.081-0.324-0.152-0.649-0.249-0.969c-0.104-0.344-0.233-0.677-0.354-1.013c-0.115-0.32-0.22-0.642-0.35-0.957
				c-0.13-0.315-0.284-0.616-0.429-0.923c-0.153-0.324-0.297-0.651-0.467-0.969c-0.158-0.294-0.337-0.573-0.508-0.859
				c-0.186-0.312-0.362-0.627-0.565-0.931c-0.211-0.316-0.446-0.612-0.673-0.916c-0.19-0.254-0.366-0.514-0.569-0.761
				c-0.443-0.54-0.91-1.059-1.403-1.552c-0.004-0.004-0.006-0.008-0.01-0.011l-85.333-85.333c-8.331-8.331-21.839-8.331-30.17,0
				s-8.331,21.839,0,30.17l48.915,48.915H20.333C8.551,233.669-1,243.22-1,255.002s9.551,21.333,21.333,21.333h225.83
				L197.248,325.251z"/>
		</g>
	</g>
</g>
<g>
</g>
<g>
</g>
<g>
</g>
<g>
</g>
<g>
</g>
<g>
</g>
<g>
</g>
<g>
</g>
<g>
</g>
<g>
</g>
<g>
</g>
<g>
</g>
<g>
</g>
<g>
</g>
<g>
</g>
</svg>
