<?xml version="1.0" encoding="UTF-8"?>
<svg width="20px" height="20px" viewBox="0 0 20 20" version="1.1" xmlns="http://www.w3.org/2000/svg" xmlns:xlink="http://www.w3.org/1999/xlink">
    <title>icon / logout</title>
    <g id="icon-/-logout" stroke="none" stroke-width="1" fill="none" fill-rule="evenodd">
        <path d="M17,0 L17.1762728,0.00509269341 C18.75108,0.0963391206 20,1.40231912 20,3 L20,3 L20,17 L19.9949073,17.1762728 C19.9036609,18.75108 18.5976809,20 17,20 L17,20 L13,20 L12.8833789,19.9932723 C12.3860402,19.9355072 12,19.5128358 12,19 C12,18.4477153 12.4477153,18 13,18 L13,18 L17,18 L17.1166211,17.9932723 C17.6139598,17.9355072 18,17.5128358 18,17 L18,17 L18,3 L17.9932723,2.88337887 C17.9355072,2.38604019 17.5128358,2 17,2 L17,2 L13,2 L12.8833789,1.99327227 C12.3860402,1.93550716 12,1.51283584 12,1 C12,0.44771525 12.4477153,0 13,0 L13,0 L17,0 Z M5.38710056,4.20970461 C5.77939176,3.90467972 6.34662282,3.93240926 6.70710678,4.29289322 L6.70710678,4.29289322 L6.79029539,4.38710056 C7.09532028,4.77939176 7.06759074,5.34662282 6.70710678,5.70710678 L6.70710678,5.70710678 L3.415,9 L13,9 L13.1166211,9.00672773 C13.6139598,9.06449284 14,9.48716416 14,10 C14,10.5522847 13.5522847,11 13,11 L13,11 L3.415,11 L6.70710678,14.2928932 L6.79029539,14.3871006 C7.09532028,14.7793918 7.06759074,15.3466228 6.70710678,15.7071068 C6.31658249,16.0976311 5.68341751,16.0976311 5.29289322,15.7071068 L5.29289322,15.7071068 L0.292893219,10.7071068 L0.219688767,10.625449 C0.217372104,10.6225624 0.215071126,10.6196628 0.212785965,10.6167501 C0.20517454,10.6070733 0.200717862,10.6012086 0.196334578,10.5953066 C0.178490093,10.5711307 0.1617187,10.546275 0.146067433,10.5206602 C0.138606922,10.5086131 0.131498828,10.4963944 0.124671174,10.4840621 C0.11379392,10.4642939 0.103376643,10.4438914 0.0936537803,10.4230991 C0.0856790475,10.4060985 0.0781964242,10.3887956 0.0712254916,10.371336 C0.0633157362,10.3515792 0.0561224864,10.3317977 0.0495466818,10.3117364 C0.0447287157,10.2968513 0.0400977346,10.2814633 0.0358451423,10.265993 C0.0298336259,10.2444365 0.0246397952,10.2227461 0.0201651536,10.2007941 C0.0167021706,10.1833753 0.0136280806,10.165949 0.0110178009,10.1484669 C0.00376118706,10.1003621 0,10.0506203 0,10 L0.00396640833,10.0892501 C0.00189498016,10.0659949 0.000634893312,10.042681 0.000186147798,10.0193545 L0,10 C0,9.99359377 6.02394912e-05,9.9872016 0.000180182926,9.98082404 C0.000599315847,9.95798023 0.00186560354,9.93433491 0.00396640833,9.91074993 C0.00576611731,9.89015296 0.00811222997,9.87050421 0.0110193427,9.85103878 C0.0136280806,9.83405099 0.0167021706,9.81662474 0.020240071,9.79927424 C0.0246397952,9.77725392 0.0298336259,9.75556352 0.0357209664,9.73416039 C0.0400977346,9.71853672 0.0447287157,9.70314866 0.0497380859,9.68785748 C0.0561224864,9.66820232 0.0633157362,9.6484208 0.0711039637,9.62894148 C0.0781964242,9.61120435 0.0856790475,9.5939015 0.0936733617,9.57677845 C0.103376643,9.5561086 0.11379392,9.53570605 0.12487577,9.51572305 C0.131498828,9.50360556 0.138606922,9.49138689 0.145995454,9.47929125 C0.1617187,9.45372505 0.178490093,9.42886931 0.196313506,9.4048407 C0.225312953,9.36567442 0.257499166,9.32828727 0.292893219,9.29289322 L0.212785965,9.38324992 C0.237668838,9.35153408 0.264426908,9.32135953 0.292893219,9.29289322 L5.29289322,4.29289322 Z" id="Combined-Shape" fill="#000000"></path>
    </g>
</svg>