<?xml version="1.0" encoding="UTF-8"?>
<svg width="255px" height="62px" viewBox="0 0 255 62" version="1.1" xmlns="http://www.w3.org/2000/svg" xmlns:xlink="http://www.w3.org/1999/xlink">
    <title>logo</title>
    <g id="Design---v1.3" stroke="none" stroke-width="1" fill="none" fill-rule="evenodd">
        <g id="0A---Splash-screen" transform="translate(-60.000000, -304.000000)" fill="#000000">
            <g id="logo" transform="translate(60.000000, 304.000000)">
                <path d="M47.4081365,3.26589385 L47.4081365,21.4854914 C47.4081365,35.8603569 36.0879521,47.5134879 22.123797,47.5134879 C8.29928348,47.5134879 -2.93387435,36.0922542 -3.15715505,21.9159119 L-3.16054243,21.4854914 L-3.16054243,14.9784923 L35.4739283,14.9784923 L35.4739283,20.1840916 L1.89632546,20.1840916 L1.89632546,21.4854914 C1.89632546,32.8703849 10.7722556,42.1212208 21.7892988,42.305099 L22.123797,42.3078886 C33.1834079,42.3078886 42.1699341,33.1709017 42.3485587,21.8298278 L42.3512686,21.4854914 L42.3512686,8.47149315 L-3.16054243,8.47149315 L-3.16054243,3.26589385 L47.4081365,3.26589385 Z" id="Rectangle" transform="translate(22.123797, 25.389691) rotate(-90.000000) translate(-22.123797, -25.389691) "></path>
                <path d="M56.6593076,51.4663748 C59.6223161,51.4663748 62.0914899,50.7338533 64.0668289,49.2688101 C66.0421679,47.803767 67.4002135,45.7049693 68.1409656,42.972417 L68.1409656,42.972417 L63.5729941,42.4045071 C62.9639313,44.2152345 62.0832593,45.5691648 60.9309782,46.4662979 C59.7786971,47.3634311 58.3548069,47.8119976 56.6593076,47.8119976 C54.4535123,47.8119976 52.6139779,47.0465538 51.1407042,45.515666 C49.6674305,43.9847783 48.8402573,41.7707525 48.6591845,38.8735886 L48.6591845,38.8735886 L68.289116,38.8735886 C68.289116,34.7089155 67.6718226,31.6183329 66.4372357,29.601841 C65.2026488,27.5853491 63.7005681,26.1573436 61.9309936,25.3178245 C60.161419,24.4783054 58.3218846,24.0585459 56.4123902,24.0585459 C52.5110956,24.0585459 49.4863577,25.3425163 47.3381766,27.910457 C45.1899954,30.4783977 44.1159048,33.8282435 44.1159048,37.9599943 C44.1159048,42.1411285 45.2229177,45.4374755 47.4369435,47.8490352 C49.6509693,50.2605949 52.7250907,51.4663748 56.6593076,51.4663748 Z M63.7211446,35.2192114 L48.9061019,35.2192114 C49.120097,32.996955 49.902002,31.1862275 51.251817,29.7870291 C52.601632,28.3878306 54.3218231,27.6882314 56.4123902,27.6882314 C58.157273,27.6882314 59.7663512,28.2767178 61.2396249,29.4536906 C62.7128986,30.6306634 63.5400718,32.5525037 63.7211446,35.2192114 L63.7211446,35.2192114 Z M82.1103308,51.4663748 C85.3037955,51.4663748 87.8552751,50.6680086 89.7647695,49.0712762 C91.6742639,47.4745439 92.6290111,45.5074354 92.6290111,43.1699509 C92.6290111,41.4250681 92.2462891,40.0629073 91.4808452,39.0834683 C90.7154014,38.1040294 89.6454261,37.3427008 88.2709193,36.7994826 C86.8964126,36.2562644 84.8264219,35.6307403 82.0609473,34.9229105 C79.6082347,34.2809253 77.9662341,33.7377071 77.1349456,33.2932558 C76.3036571,32.8488045 75.8880129,32.1080524 75.8880129,31.0709994 C75.8880129,29.9681018 76.4106546,29.1285827 77.4559382,28.5524422 C78.5012218,27.9763016 79.8716132,27.6882314 81.5671125,27.6882314 C83.279073,27.6882314 84.6165422,28.0462616 85.5795199,28.7623219 C86.5424977,29.4783823 87.1227535,30.5524729 87.3202874,31.9845937 L87.3202874,31.9845937 L91.6660333,31.391992 C91.320349,28.9557406 90.2791807,27.1244367 88.5425285,25.8980804 C86.8058762,24.6717241 84.3737401,24.0585459 81.24612,24.0585459 C78.2995726,24.0585459 75.9538575,24.7663757 74.2089747,26.1820354 C72.4640919,27.597695 71.5916505,29.4001918 71.5916505,31.5895259 C71.5916505,33.3508699 72.1883675,34.8652965 73.3818015,36.1328057 C74.5752355,37.4003149 77.0320634,38.4785208 80.7522852,39.3674233 C83.2543813,39.9764862 84.8634595,40.400361 85.5795199,40.6390478 C86.2955803,40.8777346 86.8922973,41.2357648 87.3696709,41.7131384 C87.8470445,42.190512 88.0857313,42.8242666 88.0857313,43.6144022 C88.0857313,44.7831445 87.5672048,45.7749293 86.5301518,46.5897566 C85.4930988,47.4045839 84.003364,47.8119976 82.0609473,47.8119976 C80.0362248,47.8119976 78.4600689,47.3593158 77.3324795,46.453952 C76.2048902,45.5485883 75.5258674,44.1823122 75.2954112,42.3551236 L75.2954112,42.3551236 L70.8755901,43.0218005 C71.3035802,45.8366586 72.451746,47.9478022 74.3200875,49.3552312 C76.188429,50.7626603 78.7851768,51.4663748 82.1103308,51.4663748 Z M101.437803,50.8490814 L101.437803,40.429168 L104.573654,37.4414678 L113.289837,50.8490814 L118.746711,50.8490814 L107.709504,34.3550005 L117.73435,24.6511476 L111.956483,24.6511476 L101.437803,35.2685948 L101.437803,14.6509938 L96.9932902,14.6509938 L96.9932902,50.8490814 L101.437803,50.8490814 Z M128.864165,51.4663748 C132.321009,51.4663748 135.539165,50.1824044 138.518635,47.6144637 C138.699707,48.9478176 139.004239,50.0260234 139.432229,50.8490814 L139.432229,50.8490814 L144.098967,50.8490814 C143.42406,49.663878 143.016646,48.4498675 142.876726,47.20705 C142.736807,45.9642326 142.666847,43.5238658 142.666847,39.8859498 L142.666847,33.9105493 C142.666847,31.8364433 142.49812,30.140944 142.160666,28.8240513 C141.823212,27.5071586 140.917849,26.3836845 139.444575,25.4536291 C137.971301,24.5235736 135.662624,24.0585459 132.518542,24.0585459 C129.061699,24.0585459 126.345608,24.7334534 124.370269,26.0832684 C122.39493,27.4330834 121.168574,29.4495753 120.6912,32.1327441 L120.6912,32.1327441 L125.036946,32.7006541 C125.448475,30.7746986 126.209803,29.4578059 127.320932,28.7499761 C128.43206,28.0421463 129.942371,27.6882314 131.851866,27.6882314 C133.349831,27.6882314 134.543265,27.8693041 135.432167,28.2314496 C136.32107,28.5935951 136.967171,29.0709687 137.370469,29.6635704 C137.773767,30.2561721 138.016569,30.8281973 138.098875,31.3796461 C138.181181,31.931095 138.222334,32.8734963 138.222334,34.2068501 C137.218203,34.5689956 135.942463,34.873527 134.395115,35.1204444 L134.395115,35.1204444 L130.246903,35.7377379 C126.444375,36.1986503 123.773552,37.132821 122.234434,38.5402501 C120.695315,39.9476791 119.925756,41.7378301 119.925756,43.9107031 C119.925756,46.1823429 120.724122,48.0095315 122.320855,49.3922688 C123.917587,50.7750062 126.098691,51.4663748 128.864165,51.4663748 Z M129.92591,47.960148 C128.230411,47.960148 126.929979,47.5691955 126.024615,46.7872905 C125.119252,46.0053855 124.66657,45.0136007 124.66657,43.8119361 C124.66657,41.4250681 126.345608,40.0052932 129.703684,39.5526113 C133.061761,39.0999295 135.901311,38.4867513 138.222334,37.7130769 L138.222334,37.7130769 L138.222334,39.3180398 C138.222334,42.4621211 137.38693,44.6884928 135.716122,45.9971549 C134.045315,47.305817 132.115244,47.960148 129.92591,47.960148 Z M153.05591,60.9233104 L153.05591,48.1082985 L153.179369,48.1082985 C154.874868,50.347016 157.130047,51.4663748 159.944905,51.4663748 C163.154831,51.4663748 165.862691,50.2112115 168.068486,47.7008848 C170.274282,45.1905581 171.377179,41.8036748 171.377179,37.5402347 C171.377179,33.5401732 170.381279,30.2932097 168.389479,27.7993442 C166.397679,25.3054787 163.681588,24.0585459 160.241206,24.0585459 C156.916052,24.0585459 154.422186,25.3836692 152.759609,28.0339157 L152.759609,28.0339157 L152.660842,28.0339157 L152.660842,24.6511476 L148.611397,24.6511476 L148.611397,60.9233104 L153.05591,60.9233104 Z M159.648604,47.8119976 C157.558037,47.8119976 155.862537,46.9724785 154.562106,45.2934404 C153.261674,43.6144022 152.611459,41.153459 152.611459,37.9106108 C152.611459,34.8488353 153.290481,32.3549698 154.648527,30.4290142 C156.006573,28.5030587 157.739109,27.5400809 159.846138,27.5400809 C161.887321,27.5400809 163.562244,28.4042917 164.870906,30.1327134 C166.179568,31.861135 166.8339,34.3303088 166.8339,37.5402347 C166.8339,40.9476945 166.154877,43.51152 164.796831,45.231711 C163.438786,46.9519021 161.72271,47.8119976 159.648604,47.8119976 Z M183.223055,51.4663748 C186.679898,51.4663748 189.898055,50.1824044 192.877524,47.6144637 C193.058597,48.9478176 193.363129,50.0260234 193.791119,50.8490814 L193.791119,50.8490814 L198.457857,50.8490814 C197.78295,49.663878 197.375536,48.4498675 197.235616,47.20705 C197.095696,45.9642326 197.025736,43.5238658 197.025736,39.8859498 L197.025736,33.9105493 C197.025736,31.8364433 196.857009,30.140944 196.519556,28.8240513 C196.182102,27.5071586 195.276738,26.3836845 193.803465,25.4536291 C192.330191,24.5235736 190.021513,24.0585459 186.877432,24.0585459 C183.420589,24.0585459 180.704498,24.7334534 178.729159,26.0832684 C176.75382,27.4330834 175.527463,29.4495753 175.05009,32.1327441 L175.05009,32.1327441 L179.395836,32.7006541 C179.807365,30.7746986 180.568693,29.4578059 181.679821,28.7499761 C182.79095,28.0421463 184.301261,27.6882314 186.210755,27.6882314 C187.708721,27.6882314 188.902155,27.8693041 189.791057,28.2314496 C190.67996,28.5935951 191.32606,29.0709687 191.729359,29.6635704 C192.132657,30.2561721 192.375459,30.8281973 192.457765,31.3796461 C192.540071,31.931095 192.581224,32.8734963 192.581224,34.2068501 C191.577093,34.5689956 190.301353,34.873527 188.754004,35.1204444 L188.754004,35.1204444 L184.605792,35.7377379 C180.803265,36.1986503 178.132442,37.132821 176.593323,38.5402501 C175.054205,39.9476791 174.284646,41.7378301 174.284646,43.9107031 C174.284646,46.1823429 175.083012,48.0095315 176.679744,49.3922688 C178.276477,50.7750062 180.45758,51.4663748 183.223055,51.4663748 Z M184.2848,47.960148 C182.5893,47.960148 181.288869,47.5691955 180.383505,46.7872905 C179.478141,46.0053855 179.02546,45.0136007 179.02546,43.8119361 C179.02546,41.4250681 180.704498,40.0052932 184.062574,39.5526113 C187.42065,39.0999295 190.2602,38.4867513 192.581224,37.7130769 L192.581224,37.7130769 L192.581224,39.3180398 C192.581224,42.4621211 191.74582,44.6884928 190.075012,45.9971549 C188.404205,47.305817 186.474134,47.960148 184.2848,47.960148 Z M212.624756,51.4663748 C215.851143,51.4663748 218.262703,50.1494821 219.859435,47.5156968 L219.859435,47.5156968 L219.958202,47.5156968 L219.958202,50.8490814 L224.106414,50.8490814 L224.106414,14.6509938 L219.661901,14.6509938 L219.661901,27.6388479 L219.563135,27.6388479 C217.93348,25.2519799 215.554842,24.0585459 212.427222,24.0585459 C209.102068,24.0585459 206.42713,25.2849022 204.402408,27.7376148 C202.377685,30.1903274 201.365324,33.5319426 201.365324,37.7624604 C201.365324,41.8119053 202.439414,45.1082523 204.587596,47.6515013 C206.735777,50.1947503 209.41483,51.4663748 212.624756,51.4663748 Z M213.093899,47.8119976 C211.842851,47.8119976 210.649417,47.433391 209.513597,46.6761777 C208.377777,45.9189644 207.49299,44.7872597 206.859235,43.2810637 C206.225481,41.7748677 205.908604,39.9353333 205.908604,37.7624604 C205.908604,34.7500684 206.49709,32.3179322 207.674063,30.4660519 C208.851036,28.6141715 210.591803,27.6882314 212.896365,27.6882314 C215.200928,27.6882314 216.970502,28.634748 218.205089,30.5277812 C219.439676,32.4208144 220.056969,34.9640634 220.056969,38.1575282 C220.056969,41.4003764 219.382062,43.8201667 218.032247,45.4168991 C216.682432,47.0136314 215.036316,47.8119976 213.093899,47.8119976 Z M241.236322,51.4663748 C244.19933,51.4663748 246.668504,50.7338533 248.643843,49.2688101 C250.619182,47.803767 251.977228,45.7049693 252.71798,42.972417 L252.71798,42.972417 L248.150008,42.4045071 C247.540946,44.2152345 246.660274,45.5691648 245.507992,46.4662979 C244.355711,47.3634311 242.931821,47.8119976 241.236322,47.8119976 C239.030527,47.8119976 237.190992,47.0465538 235.717718,45.515666 C234.244445,43.9847783 233.417272,41.7707525 233.236199,38.8735886 L233.236199,38.8735886 L252.86613,38.8735886 C252.86613,34.7089155 252.248837,31.6183329 251.01425,29.601841 C249.779663,27.5853491 248.277582,26.1573436 246.508008,25.3178245 C244.738433,24.4783054 242.898899,24.0585459 240.989404,24.0585459 C237.08811,24.0585459 234.063372,25.3425163 231.915191,27.910457 C229.76701,30.4783977 228.692919,33.8282435 228.692919,37.9599943 C228.692919,42.1411285 229.799932,45.4374755 232.013958,47.8490352 C234.227984,50.2605949 237.302105,51.4663748 241.236322,51.4663748 Z M248.298159,35.2192114 L233.483116,35.2192114 C233.697111,32.996955 234.479016,31.1862275 235.828831,29.7870291 C237.178646,28.3878306 238.898837,27.6882314 240.989404,27.6882314 C242.734287,27.6882314 244.343366,28.2767178 245.816639,29.4536906 C247.289913,30.6306634 248.117086,32.5525037 248.298159,35.2192114 L248.298159,35.2192114 Z" id="eskapade" stroke="#000000" stroke-width="1.05351414" fill-rule="nonzero"></path>
            </g>
        </g>
    </g>
</svg>