<?xml version="1.0" encoding="UTF-8"?>
<svg width="20px" height="20px" viewBox="0 0 20 20" version="1.1" xmlns="http://www.w3.org/2000/svg" xmlns:xlink="http://www.w3.org/1999/xlink">
    <title>icon / menu</title>
    <g id="icon-/-menu" stroke="none" stroke-width="1" fill="none" fill-rule="evenodd">
        <path d="M19,15 C19.5522847,15 20,15.4477153 20,16 C20,16.5128358 19.6139598,16.9355072 19.1166211,16.9932723 L19,17 L1,17 C0.44771525,17 0,16.5522847 0,16 C0,15.4871642 0.38604019,15.0644928 0.883378875,15.0067277 L1,15 L19,15 Z M19,9 C19.5522847,9 20,9.44771525 20,10 C20,10.5128358 19.6139598,10.9355072 19.1166211,10.9932723 L19,11 L1,11 C0.44771525,11 0,10.5522847 0,10 C0,9.48716416 0.38604019,9.06449284 0.883378875,9.00672773 L1,9 L19,9 Z M19,3 C19.5522847,3 20,3.44771525 20,4 C20,4.51283584 19.6139598,4.93550716 19.1166211,4.99327227 L19,5 L1,5 C0.44771525,5 0,4.55228475 0,4 C0,3.48716416 0.38604019,3.06449284 0.883378875,3.00672773 L1,3 L19,3 Z" id="Combined-Shape" fill="#000000"></path>
    </g>
</svg>