<?xml version="1.0" encoding="UTF-8"?>
<svg width="20px" height="20px" viewBox="0 0 20 20" version="1.1" xmlns="http://www.w3.org/2000/svg" xmlns:xlink="http://www.w3.org/1999/xlink">
    <title>icon / notes</title>
    <g id="icon-/-notes" stroke="none" stroke-width="1" fill="none" fill-rule="evenodd">
        <path d="M11.8658537,-1.15463195e-14 C11.9098914,-1.15463195e-14 11.9532877,0.00264920266 11.9958807,0.00779141967 C12.0070563,0.00925027293 12.0188576,0.010882475 12.0306147,0.0127084272 C12.0629325,0.0175593417 12.0941979,0.023859048 12.1249125,0.0314826471 C12.1350926,0.034265188 12.1451685,0.0369325025 12.1551965,0.0397448934 C12.1871556,0.0484191061 12.2185259,0.058824079 12.2491764,0.0705992767 C12.2589634,0.0746404473 12.2689913,0.0786643627 12.2789517,0.0828394942 C12.3080861,0.0948020595 12.3361535,0.108098778 12.3634727,0.122548316 C12.3748004,0.128733066 12.3864294,0.135150223 12.3979327,0.141787159 C12.427158,0.158521496 12.4551773,0.176585701 12.48219,0.195886532 C12.5229608,0.225012056 12.5621298,0.257488121 12.5988302,0.292893219 L12.5007321,0.209447376 C12.5320202,0.232865912 12.5618807,0.257974905 12.5901665,0.284632303 L12.5988302,0.292893219 L18.1963912,5.69289322 C18.2258989,5.72135953 18.253636,5.75153408 18.2794292,5.78324992 C18.2885785,5.79458863 18.297254,5.80575467 18.3056743,5.81707727 C18.3220609,5.83893827 18.3376417,5.86174326 18.3522552,5.8851734 C18.3602219,5.89825816 18.3680542,5.91152055 18.3755642,5.92494122 C18.3877535,5.94626807 18.3990462,5.96829431 18.4095044,5.99076055 C18.4163076,6.00599893 18.4229904,6.02139416 18.4292707,6.03694291 C18.4397993,6.06227165 18.4489454,6.0879576 18.4570138,6.11409147 C18.4606253,6.12667453 18.4642938,6.13944988 18.4676995,6.15229931 C18.4753031,6.18013061 18.4814306,6.20835763 18.4862971,6.23699399 C18.495319,6.29064939 18.5,6.3450919 18.5,6.4 L18.491883,6.27425046 C18.4922782,6.27728905 18.4926593,6.28033187 18.4930261,6.28337887 L18.5,6.4 L18.5,17.2 C18.5,18.7463973 17.2005338,20 15.597561,20 L15.597561,20 L4.40243902,20 C2.79946621,20 1.5,18.7463973 1.5,17.2 L1.5,17.2 L1.5,2.8 C1.5,1.2536027 2.79946621,0 4.40243902,0 L4.40243902,0 L11.8658537,-1.15463195e-14 L11.8658537,-1.15463195e-14 Z M10.829,1.999 L4.40243902,2 C3.94444679,2 3.57317073,2.3581722 3.57317073,2.8 L3.57317073,2.8 L3.57317073,17.2 C3.57317073,17.6418278 3.94444679,18 4.40243902,18 L4.40243902,18 L15.597561,18 C16.0555532,18 16.4268293,17.6418278 16.4268293,17.2 L16.4268293,17.2 L16.426,7.399 L11.8658537,7.4 C11.3342555,7.4 10.8961206,7.01395981 10.8362422,6.51662113 L10.8292683,6.4 L10.829,1.999 Z M10,9 C10.5315981,9 10.969733,9.38604019 11.0296115,9.88337887 L11.0365854,10 L11.036,11.699 L12.7987805,11.7 C13.3712708,11.7 13.8353659,12.1477153 13.8353659,12.7 C13.8353659,13.2128358 13.4352022,13.6355072 12.9196682,13.6932723 L12.7987805,13.7 L11.036,13.699 L11.0365854,15.4 C11.0365854,15.9522847 10.5724903,16.4 10,16.4 C9.46840187,16.4 9.03026697,16.0139598 8.9703885,15.5166211 L8.96341463,15.4 L8.963,13.699 L7.20121951,13.7 C6.62872922,13.7 6.16463415,13.2522847 6.16463415,12.7 C6.16463415,12.1871642 6.56479776,11.7644928 7.08033176,11.7067277 L7.20121951,11.7 L8.963,11.699 L8.96341463,10 C8.96341463,9.44771525 9.42750971,9 10,9 Z M12.902,3.414 L12.902439,5.4 L14.959,5.399 L12.902,3.414 Z" id="Combined-Shape" fill="#000000"></path>
    </g>
</svg>