<?xml version="1.0" encoding="UTF-8"?>
<svg width="20px" height="20px" viewBox="0 0 20 20" version="1.1" xmlns="http://www.w3.org/2000/svg" xmlns:xlink="http://www.w3.org/1999/xlink">
    <title>icon / password</title>
    <g id="icon-/-password" stroke="none" stroke-width="1" fill="none" fill-rule="evenodd">
        <path d="M18.8034408,0.791015705 C19.1650326,1.14918888 19.1928474,1.71278385 18.8868851,2.10256038 L18.8034408,2.19616383 L17.706,3.282 L19.7062067,5.26216965 C20.0677985,5.62034283 20.0956132,6.1839378 19.7896509,6.57371433 L19.7062067,6.66731778 L16.5465262,9.79712554 C16.1849344,10.1552987 15.6159601,10.1828505 15.2224633,9.87978089 L15.1279665,9.79712554 L13.128,7.817 L10.7808846,10.1420629 C11.712268,11.427891 12.0886558,13.0392642 11.8095475,14.6111847 L11.760059,14.8588074 L11.6996051,15.1054569 C11.1498909,17.1559295 9.53311866,18.7574162 7.46307517,19.3019332 C5.39303169,19.8464503 3.18714512,19.2504994 1.67536946,17.7327333 C-0.586444851,15.4130446 -0.554097726,11.7257832 1.74807168,9.44537935 C3.81237307,7.40059461 7.01862492,7.16355832 9.34749964,8.75165201 L12.4196689,5.70928505 L15.5793494,2.57947728 L17.3848811,0.791015705 C17.7766056,0.402994765 18.4117164,0.402994765 18.8034408,0.791015705 Z M8.7208315,10.8027193 C7.16617179,9.3153748 4.69496232,9.33664591 3.16663137,10.8505275 C1.63830042,12.364409 1.61682628,14.8122548 3.1108844,16.3446238 C4.10953283,17.3471761 5.57394492,17.7428074 6.94817546,17.3813213 C8.32240601,17.0198352 9.39572541,15.9566633 9.76066175,14.5954253 C10.1255981,13.2341872 9.72619068,11.7836202 8.71406942,10.7944133 L8.71406942,10.7944133 Z M16.288,4.687 L14.547,6.411 L15.8372463,7.68862196 L17.5775783,5.96474371 L16.288,4.687 Z" id="Combined-Shape" fill="#000000"></path>
    </g>
</svg>