<?xml version="1.0" encoding="UTF-8"?>
<svg width="20px" height="20px" viewBox="0 0 20 20" version="1.1" xmlns="http://www.w3.org/2000/svg" xmlns:xlink="http://www.w3.org/1999/xlink">
    <title>icon / plus</title>
    <g id="icon-/-plus" stroke="none" stroke-width="1" fill="none" fill-rule="evenodd">
        <path d="M10,3 C10.5983085,3 11.091425,3.45038022 11.1588176,4.03060869 L11.1666667,4.16666667 L11.166,8.833 L15.8333333,8.83333333 C16.4776655,8.83333333 17,9.35566779 17,10 C17,10.5983085 16.5496198,11.091425 15.9693913,11.1588176 L15.8333333,11.1666667 L11.166,11.166 L11.1666667,15.8333333 C11.1666667,16.4776655 10.6443322,17 10,17 C9.40169152,17 8.90857498,16.5496198 8.84118235,15.9693913 L8.83333333,15.8333333 L8.833,11.166 L4.16666667,11.1666667 C3.52233446,11.1666667 3,10.6443322 3,10 C3,9.40169152 3.45038022,8.90857498 4.03060869,8.84118235 L4.16666667,8.83333333 L8.833,8.833 L8.83333333,4.16666667 C8.83333333,3.52233446 9.35566779,3 10,3 Z" id="Combined-Shape" fill="#000000"></path>
    </g>
</svg>