<?xml version="1.0" encoding="UTF-8"?>
<svg width="20px" height="20px" viewBox="0 0 20 20" version="1.1" xmlns="http://www.w3.org/2000/svg" xmlns:xlink="http://www.w3.org/1999/xlink">
    <title>icon / promo</title>
    <g id="icon-/-promo" stroke="none" stroke-width="1" fill="none" fill-rule="evenodd">
        <path d="M19.4140625,3.5 C19.7376563,3.5 20,3.76234375 20,4.0859375 L20,4.0859375 L20,15.8046875 C20,16.1282813 19.7376563,16.390625 19.4140625,16.390625 L19.4140625,16.390625 L0.5859375,16.390625 C0.26234375,16.390625 0,16.1282813 0,15.8046875 L0,15.8046875 L0,12.2890625 C0,11.9654688 0.26234375,11.703125 0.5859375,11.703125 C1.55519531,11.703125 2.34375,10.9145703 2.34375,9.9453125 C2.34375,8.97605469 1.55519531,8.1875 0.5859375,8.1875 C0.26234375,8.1875 0,7.92515625 0,7.6015625 L0,7.6015625 L0,4.0859375 C0,3.76234375 0.26234375,3.5 0.5859375,3.5 L0.5859375,3.5 Z M4.73632812,4.671875 L1.171875,4.671875 L1.171875,7.07449219 C2.50746094,7.34671875 3.515625,8.53050781 3.515625,9.9453125 C3.515625,11.3601172 2.50746094,12.5439453 1.171875,12.8161719 L1.171875,12.8161719 L1.171875,15.21875 L4.6875,15.21875 L4.6875,14.6328125 C4.6875,14.3092188 4.94984375,14.046875 5.2734375,14.046875 C5.59703125,14.046875 5.859375,14.3092188 5.859375,14.6328125 L5.859375,14.6328125 L5.859375,15.21875 L18.828125,15.21875 L18.828125,4.671875 L5.90820312,4.671875 L5.90820312,5.2578125 C5.90820312,5.58140625 5.64585937,5.84375 5.32226562,5.84375 C4.99867187,5.84375 4.73632812,5.58140625 4.73632812,5.2578125 L4.73632812,5.2578125 L4.73632812,4.671875 Z M15.8984375,10.53125 C16.8676953,10.53125 17.65625,11.3198047 17.65625,12.2890625 C17.65625,13.2583203 16.8676953,14.046875 15.8984375,14.046875 C14.9291797,14.046875 14.140625,13.2583203 14.140625,12.2890625 C14.140625,11.3198047 14.9291797,10.53125 15.8984375,10.53125 Z M15.4108984,6.1046875 C15.5903906,5.83542969 15.9542578,5.76269531 16.2234375,5.94214844 C16.4926953,6.12164063 16.5654688,6.48542969 16.3859766,6.7546875 L16.3859766,6.7546875 L11.6984766,13.7859375 C11.5189453,14.0552344 11.1551562,14.1279297 10.8859375,13.9484766 C10.6166797,13.7689453 10.5439062,13.4051563 10.7233984,13.1359375 L10.7233984,13.1359375 Z M15.8984375,11.703125 C15.5753516,11.703125 15.3125,11.9659766 15.3125,12.2890625 C15.3125,12.6121484 15.5753516,12.875 15.8984375,12.875 C16.2215234,12.875 16.484375,12.6121484 16.484375,12.2890625 C16.484375,11.9659766 16.2215234,11.703125 15.8984375,11.703125 Z M5.2734375,10.53125 C5.59703125,10.53125 5.859375,10.7935937 5.859375,11.1171875 L5.859375,11.1171875 L5.859375,12.2890625 C5.859375,12.6126563 5.59703125,12.875 5.2734375,12.875 C4.94984375,12.875 4.6875,12.6126563 4.6875,12.2890625 L4.6875,12.2890625 L4.6875,11.1171875 C4.6875,10.7935937 4.94984375,10.53125 5.2734375,10.53125 Z M11.2109375,5.84375 C12.1801953,5.84375 12.96875,6.63230469 12.96875,7.6015625 C12.96875,8.57082031 12.1801953,9.359375 11.2109375,9.359375 C10.2416797,9.359375 9.453125,8.57082031 9.453125,7.6015625 C9.453125,6.63230469 10.2416797,5.84375 11.2109375,5.84375 Z M5.2734375,7.015625 C5.59703125,7.015625 5.859375,7.27796875 5.859375,7.6015625 L5.859375,7.6015625 L5.859375,8.7734375 C5.859375,9.09703125 5.59703125,9.359375 5.2734375,9.359375 C4.94984375,9.359375 4.6875,9.09703125 4.6875,8.7734375 L4.6875,8.7734375 L4.6875,7.6015625 C4.6875,7.27796875 4.94984375,7.015625 5.2734375,7.015625 Z M11.2109375,7.015625 C10.8878516,7.015625 10.625,7.27847656 10.625,7.6015625 C10.625,7.92464844 10.8878516,8.1875 11.2109375,8.1875 C11.5340234,8.1875 11.796875,7.92464844 11.796875,7.6015625 C11.796875,7.27847656 11.5340234,7.015625 11.2109375,7.015625 Z" id="Combined-Shape" fill="#000000"></path>
    </g>
</svg>