<?xml version="1.0" encoding="UTF-8"?>
<svg width="20px" height="20px" viewBox="0 0 20 20" version="1.1" xmlns="http://www.w3.org/2000/svg" xmlns:xlink="http://www.w3.org/1999/xlink">
    <title>icon / question</title>
    <g id="icon-/-question" stroke="none" stroke-width="1" fill="none" fill-rule="evenodd">
        <path d="M10,-2.13162821e-14 C15.5228475,-2.13162821e-14 20,4.4771525 20,10 C20,15.5228475 15.5228475,20 10,20 C4.4771525,20 7.10542736e-15,15.5228475 7.10542736e-15,10 C7.10542736e-15,4.4771525 4.4771525,-2.13162821e-14 10,-2.13162821e-14 Z M10,1.81818182 C5.48130659,1.81818182 1.81818182,5.48130659 1.81818182,10 C1.81818182,14.5186934 5.48130659,18.1818182 10,18.1818182 C14.5186934,18.1818182 18.1818182,14.5186934 18.1818182,10 C18.1818182,5.48130659 14.5186934,1.81818182 10,1.81818182 Z M10.0090909,14.1414141 C10.511168,14.1414141 10.9181818,14.548428 10.9181818,15.0505051 C10.9181818,15.5139608 10.5713771,15.8964159 10.1231253,15.9525129 L10.0090909,15.959596 C9.49792295,15.959596 9.09090909,15.5525821 9.09090909,15.0505051 C9.09090909,14.5870493 9.4377138,14.2045942 9.88596557,14.1484973 L10.0090909,14.1414141 Z M10.5420309,3.58363166 C12.2896584,3.88339624 13.566277,5.39992357 13.5636405,7.17171717 C13.5636405,8.31938572 12.9019105,9.25103935 11.8599053,10.0043917 C11.5734619,10.2114854 11.2892704,10.3847662 11.026711,10.5252914 L10.9090909,10.5858586 L10.9090909,12.020202 C10.9090909,12.4836578 10.5622862,12.8661129 10.1140344,12.9222098 L10,12.9292929 C9.53654427,12.9292929 9.15408911,12.5824882 9.0979922,12.1342365 L9.09090909,12.020202 L9.09090909,10 C9.09090909,9.62265598 9.32401622,9.2845416 9.67669058,9.15034284 L9.84163241,9.07989347 C9.89099877,9.05738056 9.94814713,9.03035165 10.0116913,8.99891806 C10.280319,8.86603526 10.548756,8.708732 10.7946402,8.53096186 C11.4117259,8.08481924 11.7454545,7.61495771 11.7454556,7.17036281 C11.7467764,6.28378882 11.1084671,5.52552516 10.2346533,5.37564287 C9.36083957,5.22576058 8.50632639,5.7279655 8.21212222,6.5643022 C8.0455112,7.03792877 7.52649609,7.28681405 7.05286952,7.12020303 C6.57924295,6.95359201 6.33035767,6.4345769 6.49696869,5.96095033 C7.08537702,4.28827692 8.79440338,3.28386708 10.5420309,3.58363166 Z" id="Combined-Shape" fill="#000000"></path>
    </g>
</svg>