<?xml version="1.0" encoding="UTF-8"?>
<svg width="20px" height="20px" viewBox="0 0 20 20" version="1.1" xmlns="http://www.w3.org/2000/svg" xmlns:xlink="http://www.w3.org/1999/xlink">
    <title>icon / share</title>
    <g id="icon-/-share" stroke="none" stroke-width="1" fill="none" fill-rule="evenodd">
        <path d="M15.3406593,-1.15463195e-14 C17.3616574,-1.15463195e-14 19,1.65654643 19,3.7 C19,5.74345357 17.3616574,7.4 15.3406593,7.4 C14.3517243,7.4 13.4544138,7.00335011 12.795853,6.35881025 L8.20173044,9.06848133 C8.2780638,9.36609133 8.31868132,9.67824959 8.31868132,10 C8.31868132,10.3213941 8.27815371,10.6332173 8.20198391,10.9305299 L12.7988602,13.6382499 C13.4571442,12.995444 14.3532288,12.6 15.3406593,12.6 C17.3616574,12.6 19,14.2565464 19,16.3 C19,18.3434536 17.3616574,20 15.3406593,20 C13.3196613,20 11.6813187,18.3434536 11.6813187,16.3 C11.6813187,15.9771807 11.7222065,15.6640173 11.7990315,15.3655156 L7.20414704,12.6588102 C6.54558621,13.3033501 5.64827568,13.7 4.65934066,13.7 C2.63834262,13.7 1,12.0434536 1,10 C1,7.95654643 2.63834262,6.3 4.65934066,6.3 C5.64827568,6.3 6.54558621,6.69664989 7.20414704,7.34118975 L11.7982696,4.63151867 C11.7219362,4.33390867 11.6813187,4.02175041 11.6813187,3.7 C11.6813187,1.65654643 13.3196613,-1.15463195e-14 15.3406593,-1.15463195e-14 Z M15.3406593,14.6 C14.7590393,14.6 14.2463969,14.8986093 13.9445094,15.352475 C13.9317078,15.3836357 13.9160663,15.4143263 13.8986894,15.4444777 L13.8450768,15.5225277 C13.7263618,15.7555258 13.6593407,16.0198491 13.6593407,16.3 C13.6593407,17.2388841 14.4120927,18 15.3406593,18 C16.269226,18 17.021978,17.2388841 17.021978,16.3 C17.021978,15.3611159 16.269226,14.6 15.3406593,14.6 Z M4.65934066,8.3 C3.73077399,8.3 2.97802198,9.06111593 2.97802198,10 C2.97802198,10.9388841 3.73077399,11.7 4.65934066,11.7 C5.58790733,11.7 6.34065934,10.9388841 6.34065934,10 C6.34065934,9.69437476 6.26089543,9.40758637 6.12126795,9.15975629 C6.11665154,9.15552753 6.11357028,9.15029729 6.11052932,9.1450285 L6.10741847,9.13563702 C5.81474291,8.63543708 5.27578408,8.3 4.65934066,8.3 Z M15.3406593,2 C14.4120927,2 13.6593407,2.76111593 13.6593407,3.7 C13.6593407,4.00562524 13.7391046,4.29241363 13.8787321,4.54024371 C13.8833485,4.54447247 13.8864297,4.54970271 13.8894707,4.5549715 L13.8925815,4.56436298 C14.1852571,5.06456292 14.7242159,5.4 15.3406593,5.4 C16.269226,5.4 17.021978,4.63888407 17.021978,3.7 C17.021978,2.76111593 16.269226,2 15.3406593,2 Z" id="Combined-Shape" fill="#ffffff"></path>
    </g>
</svg>