<?xml version="1.0" encoding="UTF-8"?>
<svg width="20px" height="20px" viewBox="0 0 20 20" version="1.1" xmlns="http://www.w3.org/2000/svg" xmlns:xlink="http://www.w3.org/1999/xlink">
    <title>icon / time</title>
    <g id="icon-/-time" stroke="none" stroke-width="1" fill="none" fill-rule="evenodd">
        <path d="M10,0 C15.5228475,0 20,4.4771525 20,10 C20,15.5228475 15.5228475,20 10,20 C4.4771525,20 0,15.5228475 0,10 C0,4.4771525 4.4771525,0 10,0 Z M10,2 C5.581722,2 2,5.581722 2,10 C2,14.418278 5.581722,18 10,18 C14.418278,18 18,14.418278 18,10 C18,5.581722 14.418278,2 10,2 Z M10,3.6 C10.5128358,3.6 10.9355072,3.98604019 10.9932723,4.48337887 L11,4.6 L11,9.382 L14.0472136,10.9055728 C14.5059079,11.13492 14.7113142,11.6692292 14.5405643,12.1398958 L14.4944272,12.2472136 C14.26508,12.7059079 13.7307708,12.9113142 13.2601042,12.7405643 L13.1527864,12.6944272 L9.5527864,10.8944272 C9.25164505,10.7438565 9.0490966,10.4535358 9.00780363,10.1248553 L9,10 L9,4.6 C9,4.04771525 9.44771525,3.6 10,3.6 Z" id="Combined-Shape" fill="#000000"></path>
    </g>
</svg>