<?xml version="1.0" encoding="UTF-8"?>
<svg width="20px" height="20px" viewBox="0 0 20 20" version="1.1" xmlns="http://www.w3.org/2000/svg" xmlns:xlink="http://www.w3.org/1999/xlink">
    <title>icon / timer</title>
    <g id="icon-/-timer" stroke="none" stroke-width="1" fill="none" fill-rule="evenodd">
        <path d="M16.3951076,0 C17.0065115,0 17.5,0.506917152 17.5,1.1297076 C17.5,1.71357173 17.0662721,2.19565405 16.5082727,2.25363362 L16.3951076,2.25947933 L15.773125,2.25904762 L15.7736934,3.79075131 C15.7735687,5.81936124 15.2783005,7.68777471 13.479386,9.09838182 L13.250349,9.27230177 L13.013025,9.44132374 C12.9106394,9.51196502 12.821018,9.72673472 12.821018,9.9999038 C12.821018,10.2730769 12.9106575,10.4879584 13.012849,10.5584482 C15.0250474,11.9463733 15.6823519,13.8578038 15.7683988,15.9564941 L15.7735685,16.2092143 L15.773125,17.74 L16.3951076,17.7404565 C16.9300904,17.7404565 17.3747865,18.1286663 17.4776015,18.642937 L17.4943087,18.7549718 L17.5,18.8702924 C17.5,19.4542064 17.0662255,19.9361887 16.5082125,19.9941556 L16.3950451,20 L3.60495486,20 C2.99355338,20 2.5,19.4930849 2.5,18.8702924 C2.5,18.2864724 2.93379759,17.8043515 3.4917918,17.7463669 L3.60495486,17.7405207 L4.2259375,17.74 L4.22649393,16.2092784 C4.22649393,14.1806088 4.72169351,12.3121895 6.520661,10.9016105 L6.749704,10.7276942 L6.987037,10.5586763 C7.0894097,10.4880439 7.179045,10.2732119 7.179045,9.99996793 C7.179045,9.72680584 7.08941767,9.5119756 6.987242,9.44144315 C4.97499306,8.05370214 4.31770876,6.14229447 4.23166356,4.04351686 L4.22649393,3.7907857 L4.2259375,2.25904762 L3.60495486,2.25941519 C3.06997639,2.25941519 2.62522918,1.87125765 2.52240141,1.35699732 L2.50569208,1.24496403 L2.5,1.12964346 C2.5,0.545819641 2.93380196,0.0638147853 3.49179262,0.00584474019 L3.60495486,0 L16.3951076,0 Z M13.5634375,2.25904762 L6.435625,2.25904762 L6.43646609,3.79084983 C6.43646609,5.28512712 6.77427183,6.50697636 8.031313,7.43176878 L8.222961,7.56825663 C8.95926277,8.07593653 9.389017,8.98761298 9.389017,9.99996793 C9.389017,11.0123603 8.959283,11.9240349 8.222983,12.4317921 C6.92504347,13.3268319 6.52543151,14.520146 6.44269731,15.987119 L6.43646609,16.2092143 L6.435625,17.74 L13.5634375,17.74 L13.5635963,16.2092426 C13.5635089,14.7149492 13.2256626,13.4930842 11.968576,12.5682616 L11.776921,12.4317691 C11.0406194,11.9239322 10.610921,11.0123737 10.610921,9.99996793 C10.610921,8.98766674 11.040682,8.07601954 11.777091,7.56813559 C13.0748746,6.67326206 13.4745039,5.47991331 13.5572401,4.01291825 L13.5634715,3.79081974 L13.5634375,2.25904762 Z" id="Shape" fill="#000000"></path>
    </g>
</svg>