<?xml version="1.0" encoding="UTF-8"?>
<svg width="20px" height="20px" viewBox="0 0 20 20" version="1.1" xmlns="http://www.w3.org/2000/svg" xmlns:xlink="http://www.w3.org/1999/xlink">
    <title>icon / users</title>
    <g id="icon-/-users" stroke="none" stroke-width="1" fill="none" fill-rule="evenodd">
        <path d="M10.8181818,11.4782609 C13.1085392,11.4782609 14.9779952,13.3097354 15.085982,15.6102594 L15.0909091,15.8206522 L15.0909091,17.4836957 C15.0909091,18.044985 14.6431938,18.5 14.0909091,18.5 C13.5780733,18.5 13.1554019,18.1076657 13.0976368,17.6022182 L13.0909091,17.4836957 L13.0909091,15.8206522 C13.0909091,14.5981469 12.1564024,13.597466 10.9737867,13.5161983 L10.8181818,13.5108696 L4.27272727,13.5108696 C3.06983435,13.5108696 2.08520716,14.4606127 2.00524324,15.6625103 L2,15.8206522 L2,17.4836957 C2,18.044985 1.55228475,18.5 1,18.5 C0.487164161,18.5 0.0644928393,18.1076657 0.00672773133,17.6022182 L8.8817842e-16,17.4836957 L8.8817842e-16,15.8206522 C8.8817842e-16,13.492952 1.80209261,11.5930157 4.06570978,11.4832683 L4.27272727,11.4782609 L10.8181818,11.4782609 Z M16.7954543,11.6186305 C18.6134603,12.0956905 19.9036981,13.7191484 19.9948416,15.6095533 L20,15.8206522 L20,17.4836957 C20,18.044985 19.5522847,18.5 19,18.5 C18.4871642,18.5 18.0644928,18.1076657 18.0067277,17.6022182 L18,17.4836957 L18.0000003,15.8214102 C17.9992706,14.8272734 17.3740155,13.9523668 16.4597311,13.6365371 L16.2954548,13.5866956 C15.7607074,13.4463734 15.4391376,12.8920534 15.5772086,12.3485872 C15.7152797,11.8051211 16.2607068,11.4783083 16.7954543,11.6186305 Z M7.54545455,1.5 C9.90521666,1.5 11.8181818,3.44415481 11.8181818,5.8423913 C11.8181818,8.2406278 9.90521666,10.1847826 7.54545455,10.1847826 C5.18569243,10.1847826 3.27272727,8.2406278 3.27272727,5.8423913 C3.27272727,3.44415481 5.18569243,1.5 7.54545455,1.5 Z M13.5207665,1.63985734 C15.4113573,2.13181747 16.7336899,3.86315207 16.7336899,5.84654891 C16.7336899,7.82994575 15.4113573,9.56128035 13.5207665,10.0532405 C12.9857406,10.1924623 12.4409655,9.86452805 12.3039773,9.32077895 C12.1767739,8.81586908 12.4459113,8.30241592 12.9133801,8.12017281 L13.0246881,8.08415082 C14.0303215,7.82246989 14.7336899,6.90154723 14.7336899,5.84654891 C14.7336899,4.79155059 14.0303215,3.87062793 13.0246881,3.60894701 C12.4896622,3.46972525 12.166989,2.91606797 12.3039773,2.37231887 C12.4409655,1.82856977 12.9857406,1.50063557 13.5207665,1.63985734 Z M7.54545455,3.5326087 C6.29026193,3.5326087 5.27272727,4.56673359 5.27272727,5.8423913 C5.27272727,7.11804901 6.29026193,8.15217391 7.54545455,8.15217391 C8.80064716,8.15217391 9.81818182,7.11804901 9.81818182,5.8423913 C9.81818182,4.56673359 8.80064716,3.5326087 7.54545455,3.5326087 Z" id="Combined-Shape" fill="#000000"></path>
    </g>
</svg>