<?xml version="1.0" encoding="UTF-8"?>
<svg width="20px" height="20px" viewBox="0 0 20 20" version="1.1" xmlns="http://www.w3.org/2000/svg" xmlns:xlink="http://www.w3.org/1999/xlink">
    <title>icon / user</title>
    <g id="icon-/-user" stroke="none" stroke-width="1" fill="none" fill-rule="evenodd">
        <path d="M14,11 C16.7286116,11 18.8895556,13.4415168 18.9958974,16.4353169 L19,16.6666667 L19,19 C19,19.5522847 18.5522847,20 18,20 C17.4871642,20 17.0644928,19.6139598 17.0067277,19.1166211 L17,19 L17,16.6666667 C17,14.6788917 15.7101882,13.107852 14.1611299,13.0053247 L14,13 L6,13 C4.43428811,13 3.09228587,14.5047805 3.00455874,16.4625645 L3,16.6666667 L3,19 C3,19.5522847 2.55228475,20 2,20 C1.48716416,20 1.06449284,19.6139598 1.00672773,19.1166211 L1,19 L1,16.6666667 C1,13.6457864 3.09272865,11.1287477 5.79125152,11.0047838 L6,11 L14,11 Z M10,0 C12.7614237,0 15,2.23857625 15,5 C15,7.76142375 12.7614237,10 10,10 C7.23857625,10 5,7.76142375 5,5 C5,2.23857625 7.23857625,0 10,0 Z M10,2 C8.34314575,2 7,3.34314575 7,5 C7,6.65685425 8.34314575,8 10,8 C11.6568542,8 13,6.65685425 13,5 C13,3.34314575 11.6568542,2 10,2 Z" id="Combined-Shape" fill="#000000"></path>
    </g>
</svg>